<svg id="Layer_1" data-name="Layer 1" xmlns="http://www.w3.org/2000/svg" width="332" height="80" viewBox="0 0 332 80">
  <title>Artboard 8</title>
  <path d="M79.81,49H74.6V46.28H88V49H82.8V62.82h-3Zm14.25-2.68h7.35A6.53,6.53,0,0,1,106.16,48a5.26,5.26,0,0,1,1.37,3.6v-.07a4.89,4.89,0,0,1-3.9,5l4.44,6.28h-3.45L100.57,57H97v5.74H94.06Zm7.12,8.12c2.07,0,3.37-1.08,3.37-2.76v-.08c0-1.76-1.3-2.75-3.45-2.75H96.89v5.51h4.29Zm19.14-8.27H123l7.28,16.61h-3.07l-1.68-4h-7.81l-1.69,4h-3Zm4.14,10.1-2.84-6.58-2.83,6.58ZM136,46.28h6.13c5.21,0,8.8,3.6,8.8,8.19v.08c0,4.67-3.59,8.27-8.8,8.27H136Zm6.13,13.86a5.43,5.43,0,0,0,5.74-5.59v-.08a5.43,5.43,0,0,0-5.74-5.59h-3.3V60.14Zm15.54-13.86H170v2.6H160.6v4.29h8.27v2.61H160.6v4.44h9.5v2.6H157.69Zm19.84,0h3.06l5,7.81,5.06-7.81h3.06V62.82h-2.91V51l-5.21,7.74h-.07L180.36,51V62.74h-2.83ZM207,46.13h2.68L217,62.74H213.9l-1.68-4h-7.81l-1.69,4h-3Zm4.14,10.1-2.84-6.58-2.83,6.58Zm11.79-9.95h7.35A6.51,6.51,0,0,1,235,48a5.26,5.26,0,0,1,1.38,3.6v-.07a4.89,4.89,0,0,1-3.91,5L237,62.74h-3.44L229.45,57h-3.6v5.74h-2.91Zm7.2,8.12c2.07,0,3.37-1.08,3.37-2.76v-.08c0-1.76-1.3-2.75-3.45-2.75h-4.21v5.51h4.29Zm13.63-8.12h2.91v8.27l7.89-8.27h3.6l-6.9,7.12,7.13,9.34v.08H255l-5.67-7.43-2.6,2.68V62.9h-2.91V46.28ZM167,69.1h3.75a2.88,2.88,0,0,1,2.22.77,1.81,1.81,0,0,1,.54,1.37h0a2.18,2.18,0,0,1-1.23,1.92,2.07,2.07,0,0,1,1.69,2.07h0c0,1.53-1.23,2.29-3.14,2.29h-3.91V69.1Zm5,2.37c0-.69-.53-1.07-1.45-1.07h-2.15v2.22h2c1,0,1.6-.38,1.6-1.15Zm-1.22,2.45h-2.38v2.3h2.46c1,0,1.6-.38,1.6-1.15h0C172.47,74.31,171.94,73.92,170.79,73.92Zm7.12.31-3.37-5.13h1.76l2.38,3.75,2.37-3.75h1.68l-3.36,5.05v3.37h-1.46V74.23Zm9.65-5.13h1.61l2,6.2,2.07-6.2h1.22l2.07,6.2,2-6.2H200l-2.91,8.42h-1.3l-2.07-6-2,6h-1.22Zm17,5.13-3.37-5.13H203l2.38,3.75,2.37-3.75h1.68L206,74.15v3.37h-1.46V74.23Zm6.59-5.13h1.37L217,74.92V69.1h1.46v8.42h-1.23l-4.67-6v6h-1.45V69.1Zm10.18,0h3.14a4.17,4.17,0,0,1,4.44,4.21h0a4.21,4.21,0,0,1-4.44,4.21h-3.14Zm1.46,1.38v5.74h1.68a2.75,2.75,0,0,0,2.91-2.83h0a2.71,2.71,0,0,0-2.91-2.83h-1.68Zm8.27-1.38h1.45v3.52h4V69.1H238v8.42h-1.46V74h-4v3.52h-1.45Zm12.33,0h1.37l3.68,8.42h-1.53l-.84-2h-4l-.84,2h-1.53Zm2.06,5.13L244,70.86l-1.46,3.37Zm4.67-5.13h1.61l2.53,4,2.53-4h1.61v8.42h-1.46v-6l-2.68,4h-.08l-2.6-4v6h-1.46V69.1ZM74.6,73.31h0A4.15,4.15,0,0,1,79,69.1a4.37,4.37,0,0,1,3.29,1.3l-.92,1.07A3.43,3.43,0,0,0,79,70.4a2.68,2.68,0,0,0-2.76,2.84h0A2.68,2.68,0,0,0,79,76.07,3.31,3.31,0,0,0,81.42,75l.92,1a4.44,4.44,0,0,1-3.45,1.53A4.13,4.13,0,0,1,74.6,73.31Zm9,0h0A4.21,4.21,0,0,1,88,69.1a4.14,4.14,0,0,1,4.36,4.21h0a4.21,4.21,0,0,1-4.44,4.21A4.15,4.15,0,0,1,83.56,73.31Zm7.2,0h0a2.8,2.8,0,0,0-2.83-2.91,2.73,2.73,0,0,0-2.83,2.84h0a2.78,2.78,0,0,0,2.83,2.83A2.67,2.67,0,0,0,90.76,73.31Zm3.6-4.21h1.46v7.05h4.44v1.37h-5.9Zm7.81,0h1.46v7.05h4.44v1.37h-5.9Zm8.12,0h6.28v1.3h-4.75v2.22H116v1.3h-4.21v2.3h4.82v1.3h-6.28Zm8,4.21h0a4.11,4.11,0,0,1,4.37-4.21,4.37,4.37,0,0,1,3.29,1.3L125,71.47a3.43,3.43,0,0,0-2.37-1.07,2.68,2.68,0,0,0-2.76,2.84h0a2.68,2.68,0,0,0,2.76,2.83A3.31,3.31,0,0,0,125.07,75l.92,1a4.27,4.27,0,0,1-3.45,1.46A4,4,0,0,1,118.25,73.31Zm12.1-2.83h-2.68V69.1h6.82v1.38h-2.68v7h-1.46Zm6.9-1.38h1.45v8.42h-1.45Zm3.67,4.21h0a4.21,4.21,0,0,1,4.44-4.21,4.15,4.15,0,0,1,4.37,4.21h0a4.41,4.41,0,0,1-8.81,0Zm7.28,0h0a2.81,2.81,0,0,0-2.84-2.91,2.74,2.74,0,0,0-2.83,2.84h0a2.78,2.78,0,0,0,2.83,2.83A2.6,2.6,0,0,0,148.2,73.31Zm3.44-4.21H153l4.52,5.82V69.1H159v8.42h-1.23l-4.67-6v6h-1.46Zm48.71-40h0a2.46,2.46,0,0,1,2.45-2.45,2.4,2.4,0,0,1,2.45,2.37h0a2.47,2.47,0,0,1-2.45,2.45A2.4,2.4,0,0,1,200.35,29.13Zm4.52,0h0A2.1,2.1,0,0,0,202.72,27a2.14,2.14,0,0,0-2.14,2.15h0a2.15,2.15,0,0,0,4.29,0Zm-3.14-1.31h1.15c.61,0,1,.23,1,.85a.75.75,0,0,1-.54.76l.62.92h-.77l-.53-.76h-.39v.76h-.53ZM202.88,29c.3,0,.45-.15.45-.38s-.15-.38-.45-.38h-.54v.69h.54ZM198.2,2.48h-11L175.61,24.91,163.44,2.48H129v12.1h1.3A12.39,12.39,0,0,1,133,6.15c1.61-1.84,4.45-2.53,9.88-2.53V29.89h-6.2v1.38h28V29.89a7.66,7.66,0,0,1-1.23.08c-2,0-3.29-.46-3.9-1.23a6.56,6.56,0,0,1-.69-3.52V6.38h0l13.86,25.5h.84l13.25-26V30h-5.51v1.38h17.07V30a8.61,8.61,0,0,1-1.22.07c-2,0-3.29-.45-3.91-1.22a6.58,6.58,0,0,1-.69-3.52V3.85h5.44V2.48ZM157.46,30h-4.13c-2,0-3.29-.38-3.91-1.15a7.26,7.26,0,0,1-.69-3.22v-22c4.29,0,7,.46,8.73,1.46Z"/>
</svg>
