<svg id="Layer_1" data-name="Layer 1" xmlns="http://www.w3.org/2000/svg" width="332" height="80" viewBox="0 0 332 80">
  <defs>
    <style>
      .cls-1 {
        fill: #7bc143;
      }

      .cls-2 {
        fill: #00723f;
      }
    </style>
  </defs>
  <title>Artboard 9</title>
  <g>
    <path class="cls-1" d="M127.34,67.69l-3.78-5.87h2.19L128.29,66l2.54-4.13H133l-3.77,5.83v3.91h-1.88Zm75.24,3.87h-2l-1-2.3H195.2l-1,2.3h-2l4.33-9.82h1.68Zm-5.19-7.46-1.5,3.47h3Zm-21.61-2.28a4.88,4.88,0,1,1,0,9.74h-3.66V61.82h3.66m0,8a3.15,3.15,0,1,0,0-6.29H174v6.29h1.78m-20.36-4.16-2.35-3.85h-2.22l3.61,5.72v4h1.89V67.5L160,61.82h-2.16Zm-8.17,6,2.87-9.81h-2l-1.8,6.67-2.08-6.7h-1.81l-2.12,6.69-1.79-6.66h-2l2.91,9.81h1.67l2.2-7,2.24,7Zm20.49-3.41-5-6.4h-1.7v9.74h1.85V65l5.12,6.6h1.55V61.82h-1.85Zm23.17,3.34V61.82H189v4h-4.36v-4H182.8v9.74h1.88v-4H189v4Zm17.6-5.32-2.85-4.42h-1.94v9.74h1.85V65l2.83,4.24h.16l2.86-4.27v6.62h1.88V61.82h-1.94ZM122.89,64.3c0-1.33-1-2.48-3.18-2.48h-4.35v9.74h4.49c2.16,0,3.58-1,3.58-2.72a2.38,2.38,0,0,0-1.92-2.36,2.34,2.34,0,0,0,1.38-2.18m-1.94.35c0,.68-.52,1.17-1.61,1.17h-2.1V63.49h2.1c1.14,0,1.61.54,1.61,1.16m.55,4c0,.71-.5,1.18-1.78,1.18h-2.48V67.5h2.48c1.33,0,1.78.52,1.78,1.19"/>
    <path class="cls-2" d="M191.92,35h-3.49l-9,20.36h4.1l2-4.78h9.09l2,4.78h4.22Zm1.29,12.08H187l3.08-7.19Zm-34.47-1.79a10.23,10.23,0,0,1,10.59-10.49,11.24,11.24,0,0,1,7.62,3l-2.41,2.89a7.44,7.44,0,0,0-5.26-2.23,6.61,6.61,0,0,0-6.62,6.8,6.7,6.7,0,0,0,6.77,6.87,10.57,10.57,0,0,0,4.19-.87V47.33H169V43.69h8.48V53.78a19.19,19.19,0,0,1-8.25,1.89,10.11,10.11,0,0,1-10.53-10.41m-44.92,10.2L109.17,41l-4.56,14.44h-3.46l-6-20.34h4.2L103,49l4.39-13.89h3.76l4.3,13.9,3.75-13.84h4.08l-5.95,20.34Zm36.53-20.34h3.84V55.33H151l-10.6-13.69V55.33h-3.84V35.12h3.53l10.3,13.28ZM126.28,45.53V35.12h3.9v20.2h-3.9Zm79,1.23v-8H199.1V35.12h16.2v3.64h-6.15V55.33h-3.9Zm12.94-1V35.12h14.7v4H222.06v4.22h9.54v3.63h-9.54v4.45h11v4H218.19Zm17.65-8.31v0a2.37,2.37,0,0,1,2.37-2.36,2.34,2.34,0,0,1,2.35,2.35h0a2.36,2.36,0,0,1-4.72,0m4.45,0h0a2.06,2.06,0,0,0-2.08-2.09,2.08,2.08,0,0,0-2.1,2.1v0a2.09,2.09,0,1,0,4.18,0m-3.06-1.32h1.12a1,1,0,0,1,.77.27.75.75,0,0,1,.21.55h0a.78.78,0,0,1-.54.78l.61.9h-.64l-.54-.81h-.44v.81h-.55Zm1.11,1.23c.28,0,.43-.16.43-.36v0c0-.24-.17-.36-.44-.36h-.55v.74Z"/>
    <g>
      <path class="cls-2" d="M182.41,18.08c4.36,0,5.93,2.28,5.93,3.21,0,.38-.2.71-.86.71-3.11,0-5,1.85-6.56,4.31l-2.15,3.45h-9.65c1.85-2.92,3.31-5.21,3.77-5.93,2.79-4.34,6.25-5.75,9.52-5.75m.6,11.68h9.79a3.3,3.3,0,0,1,2.78-1.32c.81,0,1-.45,1-.87,0-1.18-1.9-3-5.34-3-2.59,0-5.61,1-8.23,5.16M141.11,22c3.11,0,5,1.85,6.56,4.31l2.14,3.45h9.67l-3.78-5.93c-2.79-4.34-6.25-5.75-9.53-5.75-4.35,0-5.92,2.28-5.92,3.21,0,.38.2.71.86.71m-5.24,7.76h9.78C143,25.61,140,24.6,137.42,24.6c-3.44,0-5.33,1.79-5.33,3,0,.42.18.87,1,.87a3.32,3.32,0,0,1,2.79,1.32"/>
      <path class="cls-1" d="M152.15,16.63c2.58.45,4,1.46,6,4.59,2.25,3.48,5.4,8.38,5.56,8.63s.4.43.58.43.33,0,.59-.43,3.32-5.14,5.56-8.64c2-3.14,3.43-4.14,6-4.58.76-.13,1.3-.46,1.3-1.18,0-1.44-2.79-3.87-6.18-3.87a1.37,1.37,0,0,1-1.38-.89,6.64,6.64,0,0,0-11.78,0,1.36,1.36,0,0,1-1.38.89c-3.37,0-6.17,2.42-6.17,3.87,0,.72.54,1.05,1.3,1.18"/>
    </g>
  </g>
</svg>
