<svg id="Layer_1" data-name="Layer 1" xmlns="http://www.w3.org/2000/svg" width="332" height="80" viewBox="0 0 332 80">
  <title>wr_logo_brand_es_sep19</title>
  <g>
    <g>
      <path d="M278.37,43.06c-.18.09-.35.22-.53.31a14.78,14.78,0,0,1-1.75.83c-.47.15-1.06.3-1.17.91a5.56,5.56,0,0,0-.07,1.82c.25,1.57,1.07,2.14,2.61,1.83a5.43,5.43,0,0,0,2.29-1,3.22,3.22,0,0,0,1.69-2.7C281.37,43.15,280.06,42.28,278.37,43.06Z"/>
      <path d="M123.12,24.8c-4,0-7.44,2.27-10.23,4.92a9.85,9.85,0,0,0,1.31-3.89c0-1.38-.34-2.75-2-2.75a33.88,33.88,0,0,0-3.46,4.49c-1.7,2.4-8.15,7.9-15,11.16,0-3.83-2-8.46,1-11.5,1.75-1.26,3.11-1.89,3.11-3.12s-1.37-3.43-4.8-3.43c-4.73,0-6.15,4.57-6.45,7.16l-.07,0C84.7,29.6,70,41.26,63.09,41.26A3.17,3.17,0,0,1,60,39.4C74,37.89,76.16,24.8,65.49,24.8c-7.89,0-13.72,7.89-13.72,14.06,0,4.46,3.09,7.89,8.58,7.89,8.27,0,21.12-9.92,26.06-14.21,0,3-.2,7.56-1,8.38a1.55,1.55,0,0,1-.68.34h0a13.22,13.22,0,0,1-6.52-.69c-1.37-.69-3.43,6.17,3.44,6.17H82c5.63,0,12-2.62,17.29-6-6.06,8.83-15,22.64-15.23,26.88-.35,5.83,5.83,8.23,6.86,6.17s4.46-12,9.6-22.3c1.75-3.6,3.69-7,5.54-10.14.64,3.41,2.15,5.34,5.44,5.34C125.18,46.75,134.1,24.8,123.12,24.8Zm-58,5.49c4.09,0,2.12,4.61-5.38,5.37C60.4,33,62.44,30.29,65.15,30.29Zm46.31,11c-2.19,0-2.88-1.49-3-3.21,2.36-3.41,7.8-8.11,10.18-8.11C122.09,29.94,115.92,41.26,111.46,41.26Z"/>
      <path d="M242.59,6.62c-.69,0-7.21,10.29-14.07,20.58-1,1.43-1.85,2.71-2.65,3.87-.53-4-2-6.27-5.58-6.27-5.75,0-10.64,3.85-13.6,8.32-2.56,3.33-6.42,8.14-9.39,8.14-5.14,0,6.18-16.46-7.2-16.46-4,0-8,3-11.29,6.21a8,8,0,0,0,.66-2.44,2.34,2.34,0,0,0-1.72-2.4c-.44,0-1,.55-1.76,1.46-3.5,3.63-13.5,13.63-21.91,13.63a3.47,3.47,0,0,1-3.4-1.83c14.31-1.37,16.54-14.63,5.8-14.63-7.89,0-13.72,7.89-13.72,14.06,0,4.46,3.09,7.89,8.58,7.89s11.73-3.63,16.76-7.57c-1.93,3.08-3.38,5.74-3.38,6.54,0,1.37,4.11,2.4,5.48.69.44-.6,1-1.39,1.55-2.3,2.89-4,10.58-13.82,16.29-13.82,6.86,0-4.46,16.46,6.18,16.46,3.37,0,6.69-1.86,9.52-4.33.25,2.55,1.76,4.33,4.89,4.33,4.08,0,7.71-2.58,10.63-5.44-.58,1.06-1.14,2.16-1.72,3.38-1.71,3.78,0,9.27,3.09,9.27,2.75,0,1-3.09,2.75-7.55,3.08-8.23,19.89-25,22-32.25C246.36,10.73,244.3,6.62,242.59,6.62ZM156.14,30.29c4.13,0,2.07,4.71-5.64,5.4C151.21,33,153.42,30.29,156.14,30.29Zm64.15,0c2.19,0,2.88,1.5,3,3.23-2.29,3.31-7.48,7.74-9.84,7.74C210,41.26,215.83,30.29,220.29,30.29Z"/>
      <path d="M276.2,34.4A8.9,8.9,0,0,0,274.57,30c2.13-2.12,6.44-5.63,6.44-5.9,0-.69.34-3.43-5.15-3.43-4.49,0-5.76,4.13-6.08,6.76-2.44,2.26-10,7.07-16.29,8.12,2.63-5.41,1.87-10.76-5.07-10.76-14.41,0-22.64,22-10.64,22,4.84,0,9.41-2.87,12.61-6.54,8.74-.36,16.17-5.55,20-8.82l.3.27c1.71,1.37-7.21,7.54-7.21,12.35,0,4.46,4.8,7.2,5.83,6.17s-.34-2.06-.34-3.43C269,43.66,276.2,37.83,276.2,34.4Zm-26.75-4.11c2.18,0,1.57,2.62-.18,5.3A5.41,5.41,0,0,1,245,32.14,7.4,7.4,0,0,1,249.45,30.29Zm-7.67,5.54a9.22,9.22,0,0,0,4,3.64,6.68,6.68,0,0,1-3.92,1.79C239.68,41.26,240.1,38.55,241.78,35.83Z"/>
      <path d="M140.06,28.15c22.85-9.34,24.47-24.47,14.63-22.56-22.3,4.46-34.31,46.31-16.47,46.31,2.4,0,4.12-1.37,4.12-2.06s-3.77-2.06-3.77-12.69A29.47,29.47,0,0,1,140.06,28.15ZM155,9.7c4.53-.85-2.63,8.82-13.18,14C145.46,16.08,151.25,10.37,155,9.7Z"/>
    </g>
    <g>
      <path d="M128.81,73.5a1.53,1.53,0,0,1-.51.59,2.27,2.27,0,0,1-.75.36,3.1,3.1,0,0,1-.92.13h-3.55V67.24H127a1.41,1.41,0,0,1,.69.16,1.73,1.73,0,0,1,.53.43,1.87,1.87,0,0,1,.34.6,2,2,0,0,1,.12.68,2.05,2.05,0,0,1-.27,1,1.71,1.71,0,0,1-.79.71,1.87,1.87,0,0,1,1,.66,2,2,0,0,1,.36,1.21A1.76,1.76,0,0,1,128.81,73.5Zm-4.3-3.19h1.9a.84.84,0,0,0,.62-.25.89.89,0,0,0,.25-.68.91.91,0,0,0-.23-.67.74.74,0,0,0-.58-.25h-2Zm3,1.73a1.35,1.35,0,0,0-.19-.31.64.64,0,0,0-.27-.22.74.74,0,0,0-.34-.07h-2.19v1.93h2.12a.84.84,0,0,0,.66-.28,1,1,0,0,0,.2-.3.9.9,0,0,0,.07-.37A1.16,1.16,0,0,0,127.5,72Z"/>
      <path d="M136,70.77l1.84-3.53h1.54L136.7,72v2.57h-1.41V72l-2.66-4.75h1.55Z"/>
      <path d="M157.41,74.58h-1.47l-1.88-5-1.84,5h-1.48l-2.29-7.34h1.6l1.57,5.21,1.67-5.21h1.54l1.71,5.2,1.55-5.2h1.63Z"/>
      <path d="M166.75,70.77l1.84-3.53h1.54L167.46,72v2.57h-1.41V72l-2.66-4.75h1.55Z"/>
      <path d="M175.9,74.58h-1.42V67.24h1.1l3.83,4.82V67.25h1.42v7.33h-1.15l-3.78-4.71Z"/>
      <path d="M185.91,67.24h2.66a3.88,3.88,0,0,1,1.58.29,3.17,3.17,0,0,1,1.13.78,3.29,3.29,0,0,1,.68,1.16,4.62,4.62,0,0,1,0,2.94,3.25,3.25,0,0,1-1.87,1.9,4.17,4.17,0,0,1-1.5.27h-2.66Zm4.7,2.69a2.08,2.08,0,0,0-.43-.77,1.68,1.68,0,0,0-.68-.49,2.34,2.34,0,0,0-.93-.18h-1.24v4.84h1.24a2.35,2.35,0,0,0,.94-.19,2,2,0,0,0,.69-.52,2.22,2.22,0,0,0,.41-.76,3.4,3.4,0,0,0,0-1.93Z"/>
      <path d="M203,74.58H201.6V71.45h-3.33v3.13h-1.42V67.24h1.42v3h3.33v-3H203Z"/>
      <path d="M211.44,67.24l2.79,7.34h-1.47l-.68-1.83h-2.57l-.67,1.83h-1.47l2.81-7.34Zm-.63,1.62-1.06,2.89h2.07Z"/>
      <path d="M224.56,69.72l-1.89,3.62h-.78L220,69.72v4.86h-1.42V67.24h1.53l2.17,4.17,2.19-4.17H226v7.34h-1.43Z"/>
    </g>
  </g>
</svg>
