<svg id="Layer_1" data-name="Layer 1" xmlns="http://www.w3.org/2000/svg" width="332" height="80" viewBox="0 0 332 80">
  <defs>
    <style>
      .cls-1 {
        fill: #0068af;
      }

      .cls-2 {
        fill: #fff;
      }
    </style>
  </defs>
  <title>Artboard 7</title>
  <g>
    <polygon class="cls-1" points="130.75 5 200.5 5 200.5 74.75 130.75 74.75 130.75 5 130.75 5"/>
    <polygon class="cls-2" points="140.65 41.81 142.82 41.81 142.82 18.53 146.05 18.53 146.05 16.57 137.41 16.57 137.41 18.53 140.65 18.53 140.65 41.81 140.65 41.81"/>
    <path class="cls-2" d="M156.39,27.72V18.53h1.22c1.11,0,1.83.24,1.83,1.71v5.67c0,1.5-.59,1.81-1.61,1.81Zm3.15,14.09h2.16V31c0-1.75-.91-2.24-2.46-2.34V28.6c1.68-.1,2.37-.77,2.37-2.73v-6.4c0-2.52-1.28-2.9-3.35-2.9h-4V41.81h2.17V29.68h1.44c1,0,1.71.31,1.71,1.54V41.81Z"/>
    <polygon class="cls-2" points="174.03 28.04 173.97 28.04 171.9 16.57 169.74 16.57 172.92 30.83 172.92 41.81 175.08 41.81 175.08 30.83 178.26 16.57 176.1 16.57 174.03 28.04 174.03 28.04"/>
    <path class="cls-2" d="M186.78,41.81H189V30.45h1.28c2.79,0,3.61-1,3.61-3.84V20.42c0-2.87-.82-3.85-3.61-3.85h-3.45V41.81ZM189,28.5v-10H190c1,0,1.68.27,1.68,1.57v6.82c0,1.29-.7,1.58-1.68,1.58Z"/>
    <path class="cls-2" d="M137,69.66V65.18h1.67c.71,0,1.3.2,1.3,1.15a.92.92,0,0,1-.77,1h0c.67.09.84.52.84,1.13,0,1.14-1,1.19-1.38,1.19ZM138,67h.62a.49.49,0,0,0,.49-.56.54.54,0,0,0-.53-.58H138V67Zm0,2h.52a.56.56,0,0,0,.65-.63c0-.4-.15-.65-.62-.65H138V69Z"/>
    <polygon class="cls-2" points="143.79 68.11 142.62 65.18 143.65 65.18 144.32 67.07 145.03 65.18 145.99 65.18 144.73 68.11 144.73 69.66 143.79 69.66 143.79 68.11 143.79 68.11"/>
    <polygon class="cls-2" points="151.75 65.18 152.72 65.18 153.3 68.32 153.31 68.32 154.02 65.18 155.13 65.18 155.8 68.32 155.81 68.32 156.37 65.18 157.29 65.18 156.29 69.66 155.26 69.66 154.56 66.38 154.54 66.38 153.77 69.66 152.75 69.66 151.75 65.18 151.75 65.18"/>
    <polygon class="cls-2" points="160.68 68.11 159.5 65.18 160.53 65.18 161.2 67.07 161.92 65.18 162.87 65.18 161.62 68.11 161.62 69.66 160.68 69.66 160.68 68.11 160.68 68.11"/>
    <polygon class="cls-2" points="165.49 69.66 165.49 65.18 166.75 65.18 167.95 68.28 167.96 68.28 167.96 65.18 168.84 65.18 168.84 69.66 167.6 69.66 166.38 66.38 166.36 66.38 166.36 69.66 165.49 69.66 165.49 69.66"/>
    <path class="cls-2" d="M171.82,65.18h1.57c1.22,0,1.46.82,1.46,2.21,0,.69.1,2.27-1.5,2.27h-1.53V65.18Zm.94,3.79h.45c.57,0,.68-.43.68-1.56,0-.82,0-1.55-.65-1.55h-.48V69Z"/>
    <polygon class="cls-2" points="179.82 66.97 179.82 65.18 180.75 65.18 180.75 69.66 179.82 69.66 179.82 67.66 178.74 67.66 178.74 69.66 177.8 69.66 177.8 65.18 178.74 65.18 178.74 66.97 179.82 66.97 179.82 66.97"/>
    <path class="cls-2" d="M183.4,69.66l1.24-4.48h1.24l1.22,4.48h-1l-.25-1h-1.28l-.25,1ZM185.21,66h0L184.77,68h.89L185.21,66Z"/>
    <polygon class="cls-2" points="189.69 69.66 189.69 65.18 191.21 65.18 191.91 68.23 191.92 68.23 192.67 65.18 194.13 65.18 194.13 69.66 193.21 69.66 193.21 66.2 193.19 66.2 192.34 69.66 191.44 69.66 190.62 66.2 190.61 66.2 190.61 69.66 189.69 69.66 189.69 69.66"/>
  </g>
</svg>
