<svg id="Layer_1" data-name="Layer 1" xmlns="http://www.w3.org/2000/svg" width="332" height="80" viewBox="0 0 332 80">
  <defs>
    <style>
      .cls-1 {
        fill: #3f717f;
      }
    </style>
  </defs>
  <title>Artboard 2</title>
  <g>
    <path class="cls-1" d="M46.33,38.86c-.63,0-.86.34-1.54,1.43-.57.85-4.45,7-4.45,7a1.56,1.56,0,0,1-1.43.8,1.71,1.71,0,0,1-1.37-.68c0-.06-.11-.12-.11-.17s.06-.12.11-.17,5-7.82,5-7.82A2.93,2.93,0,0,1,45,37.66c1,0,1.59.57,1.59.92,0,.17,0,.28-.28.28m-11.58,9.3a1.68,1.68,0,0,1-1.43-.8s-3.88-6.16-4.39-7c-.68-1.15-.91-1.43-1.54-1.43-.23,0-.28-.11-.28-.29,0-.34.57-.91,1.59-.91a2.81,2.81,0,0,1,2.51,1.6s1.94,3.08,3.37,5.3c.06.12.11.12.17.12s.17-.06.17-.12c.74-1.14,4.11-6.44,4.51-7.13a3.38,3.38,0,0,1,2.91-1.77c1.31,0,1.82.69,1.82,1,0,.12-.06.23-.28.23a2.35,2.35,0,0,0-2,1.31c-.46.75-5.36,8.56-5.7,9.07a1.65,1.65,0,0,1-1.43.86M31.27,35.72a3.33,3.33,0,0,1,2.91,1.77c.45.69,1.88,3,1.88,3s.06.06.06.11,0,.06-.06.12-1.25,1.94-1.25,2-.06.12-.18.12-.11-.06-.17-.12-2.33-3.7-2.79-4.45a2.29,2.29,0,0,0-2-1.31c-.23,0-.28-.11-.28-.23a1.84,1.84,0,0,1,1.88-1m3.31-2a.39.39,0,0,0,.4-.29,1.87,1.87,0,0,1,1.77-1.08,1.81,1.81,0,0,1,1.76,1.08.39.39,0,0,0,.4.29c1,0,1.89.74,1.89,1.2a.35.35,0,0,1-.4.34c-.8.11-1.2.45-1.83,1.37-.68,1.08-1.65,2.56-1.71,2.62s-.11.12-.17.12-.12,0-.17-.12-1-1.54-1.71-2.62-1-1.26-1.83-1.37c-.23-.06-.4-.12-.4-.34a2.21,2.21,0,0,1,2-1.2m-12.38,20H51.46v-27H22.2Z"/>
    <polygon class="cls-1" points="58.48 31.28 62.64 31.28 66.29 43.48 70.23 31.22 73.54 31.22 77.53 43.48 81.12 31.28 85.17 31.28 79.18 49.41 75.82 49.41 71.83 37.61 67.89 49.41 64.53 49.41 58.48 31.28"/>
    <polygon class="cls-1" points="92.36 42.17 85.63 31.28 90.14 31.28 94.36 38.52 98.64 31.28 103.03 31.28 96.24 42.11 96.24 49.3 92.36 49.3 92.36 42.17"/>
    <polygon class="cls-1" points="105.31 31.28 108.85 31.28 117.12 42.34 117.12 31.28 120.94 31.28 120.94 49.3 117.63 49.3 109.13 37.84 109.13 49.3 105.31 49.3 105.31 31.28"/>
    <path class="cls-1" d="M131.89,45.71a5.08,5.08,0,0,0,5.31-5.36v-.06a5.12,5.12,0,0,0-5.31-5.42h-3V45.71Zm-6.84-14.43h6.84c5.53,0,9.36,3.87,9.36,8.95v.06c0,5.07-3.83,9-9.36,9h-6.84Z"/>
    <polygon class="cls-1" points="144.55 31.28 148.43 31.28 148.43 38.41 155.56 38.41 155.56 31.28 159.44 31.28 159.44 49.3 155.56 49.3 155.56 42.06 148.43 42.06 148.43 49.3 144.55 49.3 144.55 31.28"/>
    <path class="cls-1" d="M173.64,41.71l-2.33-5.81L169,41.71Zm-4-10.55h3.6l7.47,18.14h-4l-1.6-4H167.6l-1.6,4h-3.93Z"/>
    <polygon class="cls-1" points="183.28 31.28 187.45 31.28 192.07 38.86 196.69 31.28 200.85 31.28 200.85 49.3 197.03 49.3 197.03 37.49 192.07 45.19 191.96 45.19 187.05 37.61 187.05 49.3 183.28 49.3 183.28 31.28"/>
    <g>
      <path class="cls-1" d="M211.58,40.35h0A9.12,9.12,0,0,1,220.82,31a9.55,9.55,0,0,1,6.9,2.45l-2.45,3a6.52,6.52,0,0,0-4.62-1.83,5.4,5.4,0,0,0-5.08,5.59v.06c0,3.31,2.22,5.7,5.3,5.7a5.93,5.93,0,0,0,3.66-1.08V42.34h-3.88V38.92h7.64v7.81a11.14,11.14,0,0,1-7.53,2.86,8.88,8.88,0,0,1-9.18-9.24"/>
      <path class="cls-1" d="M239.76,40c1.88,0,3-1,3-2.56v-.06c0-1.71-1.14-2.57-3-2.57h-3.82V40Zm-7.82-8.72h8a6.86,6.86,0,0,1,5.14,1.82,5.76,5.76,0,0,1,1.48,4.11v.06a5.62,5.62,0,0,1-3.76,5.59l4.27,6.44h-4.5l-3.77-5.76h-3V49.3h-3.88v-18Z"/>
    </g>
    <path class="cls-1" d="M260.12,41.71l-2.34-5.81-2.34,5.81ZM256,31.16h3.6l7.53,18.14h-4.05l-1.6-4h-7.42l-1.59,4h-3.94Z"/>
    <polygon class="cls-1" points="269.76 31.28 273.3 31.28 281.57 42.34 281.57 31.28 285.39 31.28 285.39 49.3 282.08 49.3 273.52 37.84 273.52 49.3 269.76 49.3 269.76 31.28"/>
    <g>
      <path class="cls-1" d="M296.34,45.71a5.08,5.08,0,0,0,5.31-5.36v-.06a5.09,5.09,0,0,0-5.31-5.42h-3V45.71Zm-6.9-14.43h6.84c5.54,0,9.36,3.87,9.36,8.95v.06c0,5.07-3.82,9-9.36,9h-6.84Z"/>
      <path class="cls-1" d="M309.12,33.27c.23,0,.34-.11.34-.28s-.11-.29-.34-.29h-.4v.52h.4Zm-1-1h1c.52,0,.92.22.92.74a.68.68,0,0,1-.46.68l.51.74h-.68l-.4-.62h-.23v.62h-.63V32.25Zm2.62,1.14h0A1.76,1.76,0,0,0,309,31.56a1.79,1.79,0,0,0-1.76,1.83h0a1.77,1.77,0,1,0,3.53,0m-3.76,0h0a2,2,0,0,1,2-2.06,2,2,0,0,1,2,2.06h0a2,2,0,0,1-2,2,2,2,0,0,1-2-2"/>
    </g>
  </g>
</svg>
