<svg id="Layer_1" data-name="Layer 1" xmlns="http://www.w3.org/2000/svg" width="332" height="80" viewBox="0 0 332 80">
  <defs>
    <style>
      .cls-1 {
        fill: #54b948;
      }

      .cls-2 {
        fill: #fff;
      }
    </style>
  </defs>
  <title>Artboard 4</title>
  <g>
    <path class="cls-1" d="M106,18.92h4.66l4.1,13.72,4.44-13.78H123l4.44,13.78,4.09-13.72H136l-6.75,20.4H125.5L121,26.07l-4.47,13.25h-3.79Z"/>
    <path class="cls-1" d="M144.13,31.19l-7.6-12.27h5.09l4.72,8.13,4.8-8.13h5L148.48,31.1v8.08h-4.35Z"/>
    <path class="cls-1" d="M158.66,18.92h4L172,31.39V18.92h4.29V39.18h-3.7L163,26.3V39.18h-4.3Z"/>
    <path class="cls-1" d="M180.85,18.92h7.72c6.21,0,10.51,4.37,10.51,10.07v.06c0,5.7-4.3,10.13-10.51,10.13h-7.72Zm7.72,16.24a5.7,5.7,0,0,0,6-6v-.06a5.75,5.75,0,0,0-6-6.11h-3.36V35.16Z"/>
    <path class="cls-1" d="M202.81,18.92h4.36v8h8v-8h4.36V39.18h-4.36V31.05h-8v8.13h-4.36Z"/>
    <path class="cls-1" d="M230.94,18.77h4l8.47,20.41h-4.55l-1.8-4.55h-8.37l-1.81,4.55h-4.44Zm4.58,11.93-2.63-6.57-2.63,6.57Z"/>
    <path class="cls-1" d="M246.35,18.92H251l5.2,8.57,5.2-8.57h4.69V39.18h-4.32V26l-5.57,8.66h-.11L250.61,26V39.18h-4.26Z"/>
    <rect class="cls-1" x="65.5" y="13.89" width="32.91" height="30.35"/>
    <path class="cls-2" d="M91.16,26.2A3.22,3.22,0,0,0,88.34,28l-5.57,8.77a.41.41,0,0,0-.1.21.38.38,0,0,0,.1.2,1.91,1.91,0,0,0,1.54.78A1.86,1.86,0,0,0,85.93,37s4.38-6.94,4.95-7.87c.79-1.25,1.05-1.62,1.76-1.62.28,0,.34-.15.34-.3C93,26.81,92.33,26.2,91.16,26.2Z"/>
    <path class="cls-2" d="M82.15,28c0-.09,1.13-1.76,1.9-3a2.72,2.72,0,0,1,2-1.56c.25-.05.44-.16.44-.4,0-.5-1-1.33-2.11-1.33a.47.47,0,0,1-.47-.3,2.27,2.27,0,0,0-4,0,.46.46,0,0,1-.47.3c-1.16,0-2.11.83-2.11,1.33,0,.24.19.35.45.4a2.73,2.73,0,0,1,2,1.56l1.91,3c.08.13.13.14.19.14S82.06,28.11,82.15,28Z"/>
    <path class="cls-2" d="M73.72,25.06c0,.13.07.25.3.25a2.57,2.57,0,0,1,2.24,1.47l3.12,5a.19.19,0,0,0,.35,0l1.41-2.23a.27.27,0,0,0,0-.14.22.22,0,0,0,0-.13L79,25.94a3.77,3.77,0,0,0-3.26-2C74.26,24,73.72,24.75,73.72,25.06Z"/>
    <path class="cls-2" d="M87.63,26.78a2.58,2.58,0,0,1,2.24-1.47c.23,0,.29-.12.29-.25,0-.31-.53-1.09-2-1.09a3.77,3.77,0,0,0-3.26,2c-.48.75-4.28,6.73-5.09,8,0,0-.09.15-.19.15s-.15-.06-.21-.15c-1.63-2.55-3.81-6-3.81-6a3.23,3.23,0,0,0-2.82-1.76c-1.18,0-1.83.61-1.83,1,0,.15.06.3.35.3.7,0,1,.37,1.75,1.62L78,37a1.88,1.88,0,0,0,1.63.92A1.83,1.83,0,0,0,81.23,37Z"/>
    <path class="cls-1" d="M106.34,57.46v0a7.93,7.93,0,0,1,8-8.09,8.28,8.28,0,0,1,6,2.14l-2.12,2.62a5.53,5.53,0,0,0-4-1.59,4.65,4.65,0,0,0-4.38,4.87v.05a4.63,4.63,0,0,0,4.62,4.95,5.23,5.23,0,0,0,3.16-.94V59.2h-3.38v-3h6.63V63a9.79,9.79,0,0,1-6.52,2.48A7.73,7.73,0,0,1,106.34,57.46Z"/>
    <path class="cls-1" d="M129.24,49.48h3.1l6.54,15.75h-3.51l-1.4-3.5h-6.45l-1.4,3.5H122.7Zm3.53,9.21-2-5.07-2,5.07Z"/>
    <path class="cls-1" d="M141.13,49.6h7a6,6,0,0,1,4.45,1.58,5,5,0,0,1,1.3,3.58v0a4.86,4.86,0,0,1-3.27,4.85l3.73,5.58H150.4l-3.27-5h-2.64v5h-3.36Zm6.76,7.59c1.63,0,2.57-.89,2.57-2.21v0c0-1.48-1-2.24-2.64-2.24h-3.33v4.49Z"/>
    <path class="cls-1" d="M156.79,49.6h6c4.8,0,8.12,3.37,8.12,7.77v.05a7.73,7.73,0,0,1-8.12,7.81h-6Zm6,12.53a4.41,4.41,0,0,0,4.61-4.67v0a4.44,4.44,0,0,0-4.61-4.72h-2.59v9.43Z"/>
    <path class="cls-1" d="M173.74,49.6h11.51v3.06h-8.17v3.17h7.19v3.06h-7.19v3.28h8.29v3.06H173.74Z"/>
    <path class="cls-1" d="M188.24,49.6h3.1l7.16,9.62V49.6h3.31V65.23H199l-7.39-9.94v9.94h-3.32Z"/>
    <path class="cls-1" d="M203.67,50.68h0a2.3,2.3,0,1,1,4.59,0v0A2.33,2.33,0,0,1,206,53,2.3,2.3,0,0,1,203.67,50.68Zm4.32,0v0a2,2,0,0,0-2-2.06,2.06,2.06,0,0,0-2,2.08h0a2,2,0,1,0,4.06,0Zm-3-1.27h1.16c.59,0,1,.26,1,.83a.77.77,0,0,1-.51.77l.58.85h-.79l-.48-.73h-.29v.73H205Zm1.12,1.18c.24,0,.37-.12.37-.3s-.13-.29-.37-.29h-.43v.59Z"/>
  </g>
</svg>
