<svg id="Layer_1" data-name="Layer 1" xmlns="http://www.w3.org/2000/svg" width="332" height="80" viewBox="0 0 332 80">
  <defs>
    <style>
      .cls-1 {
        fill: #ffc845;
      }

      .cls-2 {
        fill: #ed8b00;
      }

      .cls-3 {
        fill: #154734;
      }
    </style>
  </defs>
  <title>wr_our_brands_logos_text_offers</title>
  <path class="cls-1" d="M68.75,6.59V28.21h.38l2.3-4.15L68.75,6.59Zm-11,1.86,7.48,20.41c.11,0,.27-.11.38-.11l.65-4.69L57.78,8.45Zm1.75,25.1h0a.72.72,0,0,1,.11-.27l-2.41-4L40.8,22.75h0ZM58.33,37a.55.55,0,0,1,.1-.38h0l-3.6-3L37,33.28h0L58.33,37ZM62.2,30.5h0L61.27,26,47.9,14.18h0L61.76,30.72A1.2,1.2,0,0,0,62.2,30.5ZM79.18,41h0l3.87,3.06L82.94,44l17.74.55h0L79.34,40.81C79.29,40.76,79.29,40.87,79.18,41ZM72.74,29,76.23,26l3.6-17.36h0L72.46,29h0c.17-.16.17-.16.28,0Zm11,9.88,16.81-5.62h0L79.18,37v.39Zm-7.75-8,4.25-1.75,9.34-15.06h0L75.68,30.77A.43.43,0,0,0,76,30.88Zm2.23,2.95,4.7-.11L96.75,22.64h0L78,33.39A1.5,1.5,0,0,0,78.19,33.83ZM68.75,49.44h-.38l-2.29,4.15,2.67,17.63h0V49.44ZM78,44.09h0a.64.64,0,0,1-.11.27h0l2.4,4L96.81,54.9h0ZM75.68,47l-.27.27h0l.93,4.53L99.43,75.31h0Zm-3.22,1.85h0c-.11,0-.27.11-.38.11h0l-.65,4.7,8.4,15.61h0ZM58.33,40.6v-.39L53.9,38.74,37,44.47h0L58.33,40.6Zm1.2,3.49c0-.11-.11-.27-.11-.38h0l-4.7.11L40.86,55h0L59.53,44.09Zm1.74,7.75L57.67,69.2h0L65,48.78h0c-.1,0-.27-.11-.38-.11Zm.66-4.8-.28-.28h0L57.4,48.51,48.06,63.58h0L61.93,47Z"/>
  <path class="cls-2" d="M65.53,28.75a9.73,9.73,0,0,1,3.33-.54h0V6.59Zm-3.6,2L48.06,14.07,59.8,33.17A9,9,0,0,1,61.93,30.77Zm7.2-2.56a8.47,8.47,0,0,1,3.22.65L79.83,8.45Zm-4,.65L57.78,8.45l4.53,22A11.23,11.23,0,0,1,65.15,28.86Zm35.48,15.61L79.39,37.38c0,.54.11.92.11,1.47a10.62,10.62,0,0,1-.11,1.86ZM59.53,33.55,40.86,22.75,58.33,36.61A12,12,0,0,1,59.53,33.55ZM79.29,37l21.34-3.71-22.44.55A10.91,10.91,0,0,1,79.29,37Zm-3.61-6.22,13.87-16.7L72.74,29A8.63,8.63,0,0,1,75.68,30.77ZM78,33.55l18.83-10.8L76,31A8.14,8.14,0,0,1,78,33.55ZM68.86,71.16,72.08,49a9.74,9.74,0,0,1-3.33.55Zm3.6-22.27L79.94,69.2l-4.69-22A7.19,7.19,0,0,1,72.46,48.89ZM75.68,47,99.43,75.31,77.81,44.47A13,13,0,0,1,75.68,47ZM78,44.09,96.81,54.9,79.18,41A7.48,7.48,0,0,1,78,44.09ZM57.78,69.2l10.7-19.76a8.32,8.32,0,0,1-3.22-.66Zm1.75-25.11L40.86,55l20.79-8.3A13,13,0,0,1,59.53,44.09Zm-1.2-3.49L37,44.47l22.44-.65A8.53,8.53,0,0,1,58.33,40.6ZM61.93,47,48.06,63.58l16.82-15A11.79,11.79,0,0,1,61.93,47ZM58.22,38.9a10.45,10.45,0,0,1,.11-1.85L37,33.28l21.24,7.1Z"/>
  <path class="cls-3" d="M191.62,49.82H195a3.39,3.39,0,0,1,2,.66,2,2,0,0,1,.54,1.2h0a2.07,2.07,0,0,1-1.09,1.74,1.79,1.79,0,0,1,1.48,1.86h0c0,1.31-1.1,2-2.79,2h-3.49ZM196.2,52c0-.55-.54-.93-1.31-.93H193v2h1.75c.7-.16,1.41-.44,1.41-1.09ZM195,54.08h-2.13v2H195c.93,0,1.48-.38,1.48-1.09h0c.11-.66-.44-.93-1.48-.93m20.69-4.26h1.47l1.75,5.46,1.86-5.46H222l1.85,5.46,1.75-5.46h1.31l-2.51,7.48h-1.26L221.26,52,219.4,57.3h-1.09Zm16.81,4.53-2.94-4.53h1.58l2.13,3.33,2.13-3.33h1.47l-3,4.53V57.3h-1.31A26.45,26.45,0,0,1,232.5,54.35Zm-29.09,0-2.95-4.53H202l2.13,3.33,2.13-3.33h1.48l-2.95,4.53V57.3h-1.31A26.45,26.45,0,0,1,203.41,54.35Zm36.68-4.53h1.2l4,5.19V49.82h1.31V57.3h-1.1L241.35,52V57.3H240l.05-7.48Zm11.08,0H254a3.69,3.69,0,0,1,4,3.71h0a3.69,3.69,0,0,1-4,3.71h-2.78Zm1.31,1.2V56.1H254a2.38,2.38,0,0,0,2.52-2.51h0A2.44,2.44,0,0,0,254,51.08L252.48,51Zm9-1.2h1.31v3.06h3.6V49.82h1.31V57.3h-1.31V54.08h-3.6V57.3h-1.31Zm12.83,0h1.2l3.22,7.48h-1.31l-.82-1.86h-3.49l-.82,1.86h-1.31Zm1.86,4.53-1.31-3-1.31,3Zm6-4.53h1.31l2.29,3.49L288,49.82h1.31V57.3H288V52l-2.4,3.49h0L283.21,52V57.3H281.9l.22-7.48Zm-88.32-26c-1.2,0-3.05.11-3.33.11,0,0-1.85-.11-3.49-.11-.38,0-.66,0-.66.28s.11.27.55.27a3.68,3.68,0,0,1,1.09.11c.93.27,1.2.65,1.31,1.75v10c0,3.06-.11,5.74-1.74,7.32a5.8,5.8,0,0,1-4.15,1.58,5.36,5.36,0,0,1-3.71-1.2c-1.48-1.2-2.3-3.06-2.3-7.31V26.13c0-1.09.28-1.58,1.09-1.75.39,0,.55-.1.82-.1s.55,0,.55-.28-.27-.27-.66-.27c-1.09,0-2.94.11-3.6.11-.93,0-2.78-.11-4.42-.11-.38,0-.65,0-.65.27s.1.28.54.28a4.45,4.45,0,0,1,1.2.1c.93.28,1.2.66,1.31,1.75v10.7c0,4.26,1.09,6.55,2.68,7.86,2.13,2,5.07,2,6.55,2a8.16,8.16,0,0,0,6.11-2.13c2.51-2.13,2.78-5.62,2.78-8.95v-9.5c0-1.09.28-1.58,1.1-1.75.38,0,.54-.1.81-.1s.55,0,.55-.28c.16-.22.05-.22-.33-.22m15.89,21.89a6.71,6.71,0,0,1-1.48-.11c-.92-.11-1.09-.65-1.2-1.47-.11-1.31-.11-3.6-.11-6.55V26.08c0-1.09.28-1.59,1.09-1.75.39,0,.55-.11.93-.11s.55,0,.55-.27c0-.11-.27-.27-.66-.27-1.09,0-2.94.1-3.6.1-.82,0-2.67-.1-3.87-.1-.55,0-.66,0-.66.27s.11.27.55.27a3.36,3.36,0,0,1,1.09.11c.65.11.93.66,1.09,1.58V37.38c0,2.94,0,5.18-.11,6.55-.11.81-.27,1.31-.82,1.47-.27,0-.65.11-1.09.11s-.55.11-.55.27.28.27.55.27c1.2,0,3.06-.1,3.71-.1.82,0,2.68.1,4.7.1.27,0,.54-.1.54-.27-.16.06-.43-.11-.65-.11m-76.64.17a2.11,2.11,0,0,1-.82-.11c-.38-.11-.93-.38-1.58-2-1.2-2.79-4.15-10.54-4.7-11.47-.1-.38-.27-.65-.54-.65-.11,0-.27.27-.55.82l-4.69,11.73c-.38.93-.66,1.59-1.58,1.75H118c-.16,0-.27,0-.27.11s.11.11.38.11h4.31c.27,0,.27,0,.27-.11s0-.11-.27-.11h-.27c-.55,0-.82-.27-.82-.54a5.11,5.11,0,0,1,.27-1.21l1.09-2.67a.11.11,0,0,1,.11-.11H127c.11,0,.11,0,.11.11l1.47,4c.11.28,0,.39-.1.39s-.28,0-.28.11.28.1.55.1h3.6c.66,0,.82,0,.82-.1.16,0,.05-.11-.11-.11m-6.28-5.46h-3.49c-.11,0-.11,0-.11-.11l1.75-4.7c0-.1,0-.1.11-.1l.11.1,1.63,4.81h0m-10.64,2.89c-.11,0-.11.11-.27.27a1.54,1.54,0,0,1-.55,1.1c-.54.54-1.2.54-2.13.54-1.47,0-2-.11-2.29-.38s-.38-1.58-.38-4V33.5c0-.65.11-.93.65-1.09h.66c.27,0,.38,0,.38-.11s-.11-.11-.38-.11h-5c-.28,0-.39,0-.39.11s.11.11.28.11h.65c.66.11.82.38.82,1.09v7.31a37.39,37.39,0,0,1-.11,4c-.11.55-.11.93-.54,1.09a5.5,5.5,0,0,1-.66.11c-.27,0-.27,0-.27.11s.11.11.38.11h2.4c1.48,0,2.79.11,5.46.11.93,0,1.09-.11,1.2-.55s.27-2,.27-2.13-.05-.38-.16-.38M240.36,23.78c-1.47,0-2.51.11-2.94.11-.66,0-2-.11-3.61-.11-.38,0-.82,0-.82.28,0,.11.11.27.55.27a8.18,8.18,0,0,1,1.58.11c.66.27.93.82,1.09,2.67l.28,13.32h-.11c-.55-.54-4.53-4.8-6.55-6.82-4.42-4.26-8.79-9.23-9.23-9.61-.54-.54-.82-.93-1.09-.93s-.38.39-.38,1.1l-.27,17.63c0,2.51-.11,3.49-.93,3.71a5.28,5.28,0,0,1-1.31.11c-.27,0-.55,0-.55.27s.28.27.66.27c1.58,0,3-.11,3.22-.11.54,0,1.75.11,3.71.11.38,0,.66,0,.66-.27,0-.11-.11-.27-.55-.27a3.15,3.15,0,0,1-1.58-.27c-.55-.28-.93-.93-1.1-3.33l-.27-12.56h.11c.55.55,3.88,4.26,7.1,7.48l8.78,8.79a1.79,1.79,0,0,0,1.1.65c.27,0,.38-.27.38-.93l.27-18.83c0-1.58.27-2.29,1.09-2.51a2.72,2.72,0,0,1,.93-.11c.38,0,.55-.11.55-.27a2.29,2.29,0,0,1-.77.05M289.6,42.23a.63.63,0,0,0-.66-.65h-.82v2h.39v-.82h.27l.54.82h.39l-.55-.82a.5.5,0,0,0,.44-.55m-1.2.28V42h.27c.27,0,.55,0,.55.27s-.28.28-.55.28Zm.38-1.64a1.75,1.75,0,1,0,1.75,1.75,1.8,1.8,0,0,0-1.75-1.75m0,3.22a1.48,1.48,0,1,1,1.47-1.47,1.47,1.47,0,0,1-1.47,1.47m.27,1.58a4.44,4.44,0,0,1-1.2-.11c-.65-.11-1.47-.54-2.67-3.22-1.86-4.53-6.66-16.7-7.32-18.28-.27-.66-.54-.93-.82-.93s-.54.27-.82,1.2L268.75,43c-.55,1.47-1.2,2.51-2.51,2.67h-.93c-.28,0-.38,0-.38.28s.1.27.54.27c1.58,0,3.22-.11,3.49-.11.93,0,2.13.11,3.23.11.27,0,.54,0,.54-.27,0-.11-.11-.28-.38-.28H272c-.93,0-1.2-.38-1.2-.93a6.18,6.18,0,0,1,.38-1.85l1.58-4.26a.29.29,0,0,1,.27-.27h6.66c.11,0,.28,0,.28.27l2.4,6.28c.11.38,0,.65-.27.65s-.39.11-.39.28.39.27.93.27h5.62c1.09,0,1.31,0,1.31-.27s-.22-.17-.49-.17m-10-8.68H273.6c-.1,0-.1-.11-.1-.27l2.67-7.31a.71.71,0,0,1,.11-.28c.11,0,.11.11.11.28l2.67,7.31c.11.16.11.27,0,.27m-14-9.44c0,.38.11.55.28.55s.27-.11.27-.55c0-.82.11-2.78.11-3.49,0-.38,0-.66-.27-.66a13.72,13.72,0,0,1-2.79.28H250.9a25.48,25.48,0,0,1-3-.11c-.82,0-1.09-.39-1.31-.39s-.27.11-.38.55c0,.27-.66,2.95-.66,3.49,0,.28,0,.55.28.55.11,0,.27-.11.27-.38s.27-.55.54-1.09,1.21-.82,2.95-.82l4.42-.11V37.48c0,2.68,0,5.08-.11,6.28-.1.82-.27,1.48-.81,1.59-.28,0-.66.1-1.1.1s-.54.11-.54.28.27.27.54.27c1.2,0,3.06-.11,3.72-.11.81,0,2.67.11,4.69.11.27,0,.55-.11.55-.27s-.11-.28-.55-.28a7.27,7.27,0,0,1-1.47-.1c-.93-.11-1.1-.82-1.2-1.59-.11-1.31-.11-3.6-.11-6.38V25.15l3.71.11c2.67,0,3.49.93,3.49,1.58ZM184.58,51.68a3,3,0,0,1-.55.11,21.92,21.92,0,0,1-6.93.65c-4.26-.38-8.41-2.13-15.61-6.55l-2.78-1.75S165,40.92,165,32.24c0-8.4-6-13.59-14.52-13.59-10.53,0-14.79,8-14.79,13.87,0,6.55,4.15,14.3,14.68,14.3a16.17,16.17,0,0,0,5.46-.93l1.2.93c5.63,3.87,10.54,6.82,15.89,7.2a28.5,28.5,0,0,0,11.46-1.58c.27-.11.38-.11.38-.38a.25.25,0,0,0-.16-.38m-44.05-20c0-8.41,4.26-11.35,8.95-11.35,4.91,0,10.43,4.14,10.43,12.93,0,10.54-5.46,11.9-8.3,11.9-5.9-.16-11.08-5-11.08-13.48"/>
</svg>
