<svg id="Layer_1" data-name="Layer 1" xmlns="http://www.w3.org/2000/svg" width="332" height="80" viewBox="0 0 332 80">
  <defs>
    <style>
      .cls-1 {
        fill: #007dc3;
      }

      .cls-2 {
        fill: #fff;
      }
    </style>
  </defs>
  <title>Artboard 3</title>
  <g>
    <path class="cls-1" d="M237.52,29.09h-3.8L224,51.24h4.46l2.2-5.2h9.9l2.18,5.2h4.58Zm1.41,13.14H232.2l3.36-7.81Z"/>
    <path class="cls-1" d="M186.82,29.26h-8.24v22h8.24c7.19,0,11.67-4.87,11.67-11,0-5.38-3.84-10.95-11.67-10.95m0,18.07h-4V33.14h4a6.85,6.85,0,0,1,7.26,7.14c0,4-2.79,7-7.26,7"/>
    <polygon class="cls-1" points="140.9 37.94 135.6 29.26 130.6 29.26 138.74 42.17 138.74 51.24 143 51.24 143 42.07 151.16 29.26 146.29 29.26 140.9 37.94"/>
    <polygon class="cls-1" points="122.48 51.38 128.95 29.25 124.5 29.25 120.43 44.31 115.75 29.19 111.66 29.19 106.89 44.3 102.84 29.25 98.28 29.25 104.84 51.38 108.6 51.38 113.56 35.67 118.61 51.38 122.48 51.38"/>
    <polygon class="cls-1" points="168.69 43.71 157.48 29.26 153.64 29.26 153.64 39.99 153.64 51.24 157.82 51.24 157.82 36.34 169.35 51.24 172.86 51.24 172.86 40.29 172.86 29.26 168.69 29.26 168.69 43.71"/>
    <polygon class="cls-1" points="220.95 51.24 220.95 39.99 220.95 29.26 216.73 29.26 216.73 38.2 206.9 38.2 206.9 29.26 202.66 29.26 202.66 39.69 202.66 51.24 206.9 51.24 206.9 42.16 216.73 42.16 216.73 51.24 220.95 51.24"/>
    <polygon class="cls-1" points="260.65 39.24 254.22 29.26 249.84 29.26 249.84 39.39 249.84 51.24 254.02 51.24 254.02 36.37 260.41 45.94 260.77 45.94 267.22 36.31 267.22 51.24 271.45 51.24 271.45 39.09 271.45 29.26 267.07 29.26 260.65 39.24"/>
    <path class="cls-1" d="M274.48,31.84h0a2.58,2.58,0,0,1,2.58-2.57,2.54,2.54,0,0,1,2.56,2.55v0a2.57,2.57,0,0,1-5.14,0Zm4.85,0v0a2.28,2.28,0,1,0-4.55,0h0a2.28,2.28,0,1,0,4.55,0ZM276,30.39h1.21a1.14,1.14,0,0,1,.85.3.82.82,0,0,1,.22.59v0a.84.84,0,0,1-.59.84l.67,1h-.7l-.58-.88h-.48v.88H276Zm1.2,1.33c.31,0,.47-.16.47-.39h0c0-.27-.18-.4-.48-.4h-.59v.8Z"/>
    <rect class="cls-1" x="52.92" y="23.85" width="35.55" height="32.78"/>
    <path class="cls-2" d="M80.54,37.14a3.47,3.47,0,0,0-3,1.91l-6,9.46a.48.48,0,0,0-.1.23.39.39,0,0,0,.1.22,2.09,2.09,0,0,0,1.67.84,2,2,0,0,0,1.74-1l5.36-8.49c.84-1.36,1.13-1.75,1.89-1.75.3,0,.37-.17.37-.33C82.51,37.8,81.81,37.14,80.54,37.14Z"/>
    <path class="cls-2" d="M70.81,39.06l2.06-3.19a2.91,2.91,0,0,1,2.21-1.69c.28,0,.48-.17.48-.44,0-.53-1-1.42-2.28-1.42a.52.52,0,0,1-.52-.33,2.44,2.44,0,0,0-4.34,0,.51.51,0,0,1-.51.33c-1.25,0-2.29.89-2.29,1.42,0,.27.21.39.49.44a3,3,0,0,1,2.21,1.69c.83,1.29,2,3.1,2.06,3.19s.15.16.21.16S70.71,39.21,70.81,39.06Z"/>
    <path class="cls-2" d="M61.8,35.91c0,.14.08.27.32.27a2.8,2.8,0,0,1,2.43,1.59c.55.9,3.33,5.36,3.36,5.41a.21.21,0,0,0,.18.12.2.2,0,0,0,.19-.12l1.53-2.41a.28.28,0,0,0,.06-.15.27.27,0,0,0-.05-.14l-2.31-3.62A4.06,4.06,0,0,0,64,34.73C62.39,34.73,61.8,35.57,61.8,35.91Z"/>
    <path class="cls-2" d="M76.82,37.77a2.79,2.79,0,0,1,2.42-1.59c.24,0,.32-.13.32-.27,0-.34-.58-1.18-2.19-1.18a4,4,0,0,0-3.51,2.13c-.53.81-4.63,7.27-5.5,8.66,0,.06-.1.16-.21.16a.26.26,0,0,1-.23-.16c-1.76-2.75-4.12-6.47-4.12-6.47a3.47,3.47,0,0,0-3-1.91c-1.28,0-2,.66-2,1.09,0,.16.06.33.37.33.76,0,1.05.39,1.89,1.75L66.4,48.8a2,2,0,0,0,1.76,1,2,2,0,0,0,1.75-1Z"/>
  </g>
</svg>
