<svg id="Layer_1" data-name="Layer 1" xmlns="http://www.w3.org/2000/svg" width="332" height="80" viewBox="0 0 332 80">
  <title>wr_logo_brand_dz_mar19</title>
  <g>
    <path d="M115.1294,65.66534a2.15813,2.15813,0,0,1,.43929,1.31789,1.77392,1.77392,0,0,1-.79073,1.58147,4.18526,4.18526,0,0,1-2.28435.52716h-3.778V60.92093H112.23a3.74735,3.74735,0,0,1,2.10863.52716,1.99777,1.99777,0,0,1,.4393,2.72364,2.23117,2.23117,0,0,1-.87859.70287A2.97863,2.97863,0,0,1,115.1294,65.66534Zm-5.53515-3.95368v2.98722H112.23a2.34976,2.34976,0,0,0,1.49362-.35144,1.50094,1.50094,0,0,0,0-2.28434,2.51389,2.51389,0,0,0-1.49362-.35144Zm4.56869,6.32588a1.30529,1.30529,0,0,0,.52716-1.14217c0-1.05432-.70288-1.49361-2.19649-1.49361h-2.89936v3.07508h2.89936A3.1253,3.1253,0,0,0,114.16294,68.03754Z"/>
    <path d="M122.77317,66.36821v2.8115h-.8786v-2.8115l-3.2508-5.35942h.8786l2.8115,4.56868,2.8115-4.56869h.8786Z"/>
    <g>
      <path d="M148.07668,61.00879,145.353,69.17972h-.87859l-2.37221-6.9409-2.3722,6.9409h-.87859l-2.72364-8.17093h.87859l2.37221,7.02875,2.46006-7.02875h.79074l2.3722,7.02875,2.3722-7.02875Z"/>
      <path d="M155.89617,66.36821v2.8115h-.87859v-2.8115l-3.2508-5.35942h.8786l2.8115,4.56868,2.81149-4.56869h.8786Z"/>
    </g>
    <path d="M170.56869,61.00879v8.17093h-.70287l-5.27157-6.58946v6.58946h-.87859V61.00879h.70287l5.27157,6.58945V61.00879Z"/>
    <path d="M176.45528,61.00879h3.33866a4.86422,4.86422,0,0,1,2.28435.52715,3.319,3.319,0,0,1,1.4936,1.40575,4.48082,4.48082,0,0,1,0,4.21726,3.29315,3.29315,0,0,1-1.4936,1.40575,4.86422,4.86422,0,0,1-2.28435.52715h-3.33866Zm3.2508,7.38019a4.084,4.084,0,0,0,1.845-.4393,3.10279,3.10279,0,0,0,1.23-1.14217,3.71466,3.71466,0,0,0,.43929-1.75719,3.99925,3.99925,0,0,0-.43929-1.75719,2.591,2.591,0,0,0-1.23-1.14217,4.084,4.084,0,0,0-1.845-.4393h-2.37221V68.389Z"/>
    <path d="M196.13579,61.00879v8.17093h-.8786v-3.778h-5.09585v3.778h-.87859V61.00879h.87859V64.611h5.09585V61.00879Z"/>
    <path d="M207.11822,66.98323h-4.56869l-.96646,2.19649h-.87859l3.69009-8.17093h.87859l3.6901,8.17093h-.8786Zm-.26358-.70288-1.93291-4.393-1.9329,4.393Z"/>
    <path d="M222.14218,61.00879v8.17093h-.79073v-6.5016l-3.16294,5.44728h-.4393l-3.16294-5.44729v6.5016h-.79073V61.00878h.70288l3.51437,6.0623,3.51438-6.0623Z"/>
    <g>
      <path d="M91.40735,37.98961H83.5V18.92412h7.29233A9.59916,9.59916,0,0,1,100.369,28.5008a9.28807,9.28807,0,0,1-8.96166,9.48881m-.26358-2.98722c3.2508,0,5.97444-3.07508,5.97444-6.58945a6.47184,6.47184,0,0,0-6.32588-6.58946H86.83866V35.00239Z"/>
      <path d="M121.80671,33.77236h-9.04952l-1.84505,4.21725h-3.51438L115.393,21.03275l-1.05431-2.10863h3.77795l9.04952,19.0655h-3.51437Zm-7.81949-2.72364h6.67732l-3.33866-7.468Z"/>
      <polygon points="151.591 35.178 139.818 35.178 151.942 18.924 135.513 18.924 135.513 21.736 146.056 21.736 133.931 37.99 151.591 37.99 151.591 35.178"/>
      <polygon points="200.089 35.266 200.089 37.99 186.647 37.99 186.647 18.924 189.986 18.924 189.986 35.266 200.089 35.266"/>
      <polygon points="223.109 35.178 223.109 37.99 208.7 37.99 208.7 18.924 222.494 18.924 222.494 21.736 211.95 21.736 211.95 27.359 220.824 27.359 220.824 30.082 211.95 30.082 211.95 35.178 223.109 35.178"/>
      <path d="M240.59266,32.71805H235.7604v5.27156h-3.33867V18.92412h8.25879c5.44728,0,7.29233,3.2508,7.29233,6.67732,0,3.33865-1.40575,5.44728-4.04154,6.41373L248.5,37.98961h-4.04154Zm-4.83226-2.63578h3.778c3.2508,0,4.92014-1.58147,4.92014-4.21726,0-2.10862-1.14218-4.12939-4.30511-4.12939h-4.393v8.34665Z"/>
      <rect x="135.51278" y="8.82028" width="16.42971" height="2.54792"/>
      <rect x="160.28914" y="45.54553" width="16.42972" height="2.54792"/>
      <polygon points="176.807 35.178 164.946 35.178 177.07 18.924 160.641 18.924 160.641 21.736 171.184 21.736 159.147 37.99 176.807 37.99 176.807 35.178"/>
    </g>
  </g>
</svg>
