<?xml version="1.0" encoding="utf-8"?>
<!-- Generator: Adobe Illustrator 16.0.0, SVG Export Plug-In . SVG Version: 6.00 Build 0)  -->
<!DOCTYPE svg PUBLIC "-//W3C//DTD SVG 1.1//EN" "http://www.w3.org/Graphics/SVG/1.1/DTD/svg11.dtd">
<svg version="1.1" id="圖層_1" xmlns="http://www.w3.org/2000/svg" xmlns:xlink="http://www.w3.org/1999/xlink" x="0px" y="0px"
	 width="28px" height="28px" viewBox="0 0 28 28" enable-background="new 0 0 28 28" xml:space="pBk_Reserve">
<path fill="#A0A0A0" d="M12.354,5.146c-0.195-0.195-0.512-0.195-0.707,0s-0.195,0.512,0,0.707L13.293,7.5l-1.646,1.646
	c-0.195,0.195-0.195,0.512,0,0.707s0.512,0.195,0.707,0L14,8.207l1.646,1.646c0.192,0.195,0.512,0.195,0.707,0
	c0.192-0.195,0.192-0.512,0-0.707L14.707,7.5l1.646-1.646c0.192-0.195,0.192-0.512,0-0.707c-0.195-0.195-0.515-0.195-0.707,0
	L14,6.793L12.354,5.146z"/>
<path fill="#FFFFFF" d="M23,19.725v-6.8c0-1.104-0.896-2-2-2H7c-1.104,0-2,0.896-2,2v6.8c0,1.105,0.896,2,2,2h14
	C22.104,21.725,23,20.83,23,19.725z M5.9,12.725h16.2v1.8H5.9V12.725z M15.8,16.325H5.9v-0.9h9.9V16.325z M16.7,15.425h2.7v0.9h-2.7
	V15.425z M18.5,19.025c0-0.994,0.807-1.801,1.8-1.801c0.994,0,1.8,0.807,1.8,1.801s-0.806,1.8-1.8,1.8
	C19.307,20.825,18.5,20.02,18.5,19.025z"/>
<circle fill="#FFFFFF" cx="20.3" cy="19.025" r="1.8"/>
<rect x="16.7" y="15.425" fill="#FFFFFF" width="2.7" height="0.9"/>
<path fill="#EA9E91" d="M15.646,5.146c0.192-0.195,0.512-0.195,0.707,0c0.192,0.195,0.192,0.512,0,0.707L14.707,7.5l1.646,1.646
	c0.192,0.195,0.192,0.512,0,0.707c-0.195,0.195-0.515,0.195-0.707,0L14,8.207l-1.646,1.646c-0.195,0.195-0.512,0.195-0.707,0
	s-0.195-0.512,0-0.707L13.293,7.5l-1.646-1.646c-0.195-0.195-0.195-0.512,0-0.707s0.512-0.195,0.707,0L14,6.793L15.646,5.146z
	 M7,21.725c-1.104,0-2-0.895-2-2v-6.8c0-1.104,0.896-2,2-2h14c1.104,0,2,0.896,2,2v6.8c0,1.105-0.896,2-2,2H7z"/>
<rect x="5.9" y="15.425" fill="#FFFFFF" width="9.899" height="0.9"/>
<rect x="5.9" y="12.725" fill="#FFFFFF" width="16.2" height="1.8"/>
<g>
	<path fill="#EA9E91" d="M14,1c5.674,0,10.646,3.626,12.383,9.026c0.015,0.055,0.03,0.1,0.042,0.132
		c0.013,0.046,0.023,0.093,0.034,0.141c0.017,0.071,0.033,0.142,0.054,0.218C26.836,11.681,27,12.852,27,14
		c0,1.147-0.164,2.319-0.485,3.476c-0.021,0.076-0.04,0.153-0.059,0.229c-0.013,0.055-0.024,0.109-0.028,0.126
		c-0.008,0.02-0.027,0.073-0.033,0.094C24.677,23.353,19.695,27,14,27c-5.667,0-10.639-3.624-12.372-9.014
		c-0.013-0.042-0.028-0.082-0.044-0.119c-0.018-0.059-0.031-0.118-0.045-0.178c-0.016-0.067-0.032-0.135-0.052-0.207
		C1.164,16.319,1,15.147,1,14c0-1.148,0.164-2.319,0.485-3.476c0.021-0.076,0.04-0.152,0.058-0.229
		c0.013-0.054,0.025-0.109,0.042-0.162c0-0.002,0.017-0.045,0.018-0.047C1.619,10.043,1.635,10,1.652,9.95C3.407,4.597,8.37,1,14,1
		 M14,0C7.792,0,2.536,4.044,0.702,9.638C0.68,9.705,0.65,9.769,0.63,9.837c-0.042,0.135-0.067,0.276-0.106,0.413
		C0.191,11.445,0,12.699,0,14c0,1.301,0.191,2.555,0.523,3.75c0.037,0.137,0.063,0.277,0.105,0.413
		c0.014,0.043,0.032,0.083,0.046,0.126C2.486,23.922,7.766,28,14,28c6.259,0,11.555-4.107,13.348-9.773
		c0.006-0.021,0.016-0.041,0.022-0.063c0.042-0.136,0.067-0.276,0.106-0.413C27.809,16.555,28,15.301,28,14
		c0-1.301-0.191-2.555-0.523-3.75c-0.037-0.137-0.063-0.278-0.104-0.413c-0.01-0.026-0.021-0.051-0.025-0.077
		C25.546,4.102,20.254,0,14,0L14,0z"/>
</g>
<g>
	<rect x="16.7" y="15.425" fill="#FFFFFF" width="2.7" height="0.9"/>
	<circle fill="#FFFFFF" cx="20.3" cy="19.025" r="1.8"/>
	<circle fill="#FFFFFF" cx="20.3" cy="19.025" r="1.8"/>
	<rect x="16.7" y="15.425" fill="#FFFFFF" width="2.7" height="0.9"/>
</g>
</svg>
