<?xml version="1.0" encoding="utf-8"?>
<!-- Generator: Adobe Illustrator 16.0.0, SVG Export Plug-In . SVG Version: 6.00 Build 0)  -->
<!DOCTYPE svg PUBLIC "-//W3C//DTD SVG 1.1//EN" "http://www.w3.org/Graphics/SVG/1.1/DTD/svg11.dtd">
<svg version="1.1" id="圖層_1" xmlns="http://www.w3.org/2000/svg" xmlns:xlink="http://www.w3.org/1999/xlink" x="0px" y="0px"
	 width="28px" height="28px" viewBox="0 0 28 28" enable-background="new 0 0 28 28" xml:space="pBk_Reserve">
<g>
	<path fill="#FFFFFF" d="M0.523,17.75C0.191,16.555,0,15.301,0,14C0,15.301,0.191,16.555,0.523,17.75z"/>
	<path fill="#FFFFFF" d="M0.676,18.289c-0.014-0.043-0.033-0.083-0.046-0.126C0.643,18.206,0.662,18.246,0.676,18.289z"/>
	<path fill="#FFFFFF" d="M27.37,18.163c-0.007,0.021-0.017,0.042-0.022,0.063C27.354,18.205,27.363,18.186,27.37,18.163z"/>
	<path fill="#A0A0A0" d="M14.83,11.054h4.979c0.459,0,0.83-0.372,0.83-0.83s-0.371-0.83-0.83-0.83H14.83
		c-0.458,0-0.83,0.372-0.83,0.83C14,10.683,14.372,11.054,14.83,11.054z"/>
	<path fill="#FFFFFF" d="M28,14c0,1.301-0.191,2.555-0.523,3.75C27.809,16.555,28,15.301,28,14z"/>
	<path fill="#FFFFFF" d="M0,14c0-1.301,0.191-2.555,0.523-3.75C0.191,11.445,0,12.699,0,14z"/>
	<path fill="#A0A0A0" d="M19.811,4.415h-3.318c-0.459,0-0.83,0.372-0.83,0.83s0.371,0.83,0.83,0.83h3.316
		c0.459,0,0.83-0.372,0.83-0.83C20.641,4.787,20.268,4.415,19.811,4.415z"/>
	<path fill="#A0A0A0" d="M19.811,6.905h-3.318c-0.459,0-0.83,0.372-0.83,0.83s0.371,0.83,0.83,0.83h3.316
		c0.459,0,0.83-0.372,0.83-0.83C20.641,7.276,20.268,6.905,19.811,6.905z"/>
	<path fill="#FFFFFF" d="M27.477,10.25C27.809,11.445,28,12.699,28,14C28,12.699,27.809,11.445,27.477,10.25z"/>
	<path fill="#FFFFFF" d="M0.63,9.837c0.02-0.068,0.05-0.132,0.072-0.199C0.68,9.705,0.65,9.769,0.63,9.837z"/>
	<path fill="#FFFFFF" d="M27.343,9.76c0.009,0.026,0.021,0.051,0.027,0.077C27.361,9.811,27.352,9.786,27.343,9.76z"/>
	<path fill="#A0A0A0" d="M15.646,23.504c0.828-0.416,2.504-1.66,2.504-1.66l-2.504-4.979l-2.479,2.488
		c-0.969-0.414-2.505-1.244-3.32-2.902c-0.276-0.83-0.415-3.735,0-6.225h2.489L14,4.415C14,4.415,11.911,4,9.851,4
		S6.946,4.415,6.116,9.81c-0.447,2.905,0.429,7.717,2.089,10.374c0.691,1.383,2.559,3.734,6.21,3.734
		C14.415,23.918,14.816,23.918,15.646,23.504z"/>
	<path fill="#A0A0A0" d="M19.811,6.075h-3.318c-0.459,0-0.83-0.372-0.83-0.83s0.371-0.83,0.83-0.83h3.316
		c0.459,0,0.83,0.372,0.83,0.83C20.641,5.703,20.268,6.075,19.811,6.075z M20.641,7.735c0,0.458-0.373,0.83-0.83,0.83h-3.318
		c-0.459,0-0.83-0.372-0.83-0.83s0.371-0.83,0.83-0.83h3.316C20.268,6.905,20.641,7.276,20.641,7.735z M14.83,9.395h4.979
		c0.459,0,0.83,0.372,0.83,0.83s-0.371,0.83-0.83,0.83H14.83c-0.458,0-0.83-0.372-0.83-0.83C14,9.766,14.372,9.395,14.83,9.395z
		 M8.205,20.184c-1.66-2.656-2.536-7.469-2.089-10.374C6.946,4.415,7.79,4,9.851,4S14,4.415,14,4.415l-1.66,5.81H9.851
		c-0.415,2.49-0.276,5.395,0,6.225c0.815,1.659,2.352,2.489,3.32,2.903l2.476-2.49l2.504,4.98c0,0-1.674,1.243-2.504,1.659
		c-0.83,0.414-1.229,0.414-1.229,0.414C10.764,23.918,8.896,21.566,8.205,20.184z"/>
</g>
<g>
	<path fill="#A0A0A0" d="M14,1c5.674,0,10.645,3.625,12.383,9.026c0.015,0.056,0.03,0.102,0.042,0.133
		c0.013,0.046,0.023,0.094,0.034,0.141c0.017,0.071,0.033,0.142,0.054,0.218C26.836,11.681,27,12.853,27,14
		s-0.164,2.319-0.485,3.476c-0.021,0.076-0.04,0.154-0.059,0.231c-0.013,0.055-0.025,0.109-0.026,0.118
		c-0.009,0.021-0.028,0.078-0.035,0.1C24.677,23.353,19.695,27,14,27c-5.667,0-10.639-3.624-12.372-9.014
		c-0.014-0.043-0.029-0.084-0.043-0.116c-0.018-0.059-0.032-0.119-0.046-0.179c-0.016-0.068-0.032-0.136-0.052-0.209
		C1.164,16.319,1,15.147,1,14s0.164-2.319,0.485-3.475c0.021-0.076,0.04-0.152,0.059-0.229c0.013-0.054,0.025-0.108,0.041-0.161
		c0.001-0.003,0.018-0.048,0.019-0.052c0.016-0.042,0.032-0.083,0.049-0.133C3.408,4.597,8.37,1,14,1 M14,0
		C7.792,0,2.536,4.045,0.702,9.639C0.68,9.705,0.65,9.77,0.63,9.838c-0.042,0.135-0.067,0.275-0.106,0.412
		C0.191,11.445,0,12.699,0,14s0.191,2.555,0.523,3.75c0.037,0.137,0.063,0.277,0.105,0.414c0.014,0.043,0.032,0.082,0.046,0.125
		C2.486,23.922,7.766,28,14,28c6.259,0,11.555-4.107,13.348-9.773c0.006-0.021,0.016-0.041,0.022-0.063
		c0.042-0.137,0.067-0.277,0.106-0.414C27.809,16.555,28,15.301,28,14s-0.191-2.555-0.523-3.75
		c-0.037-0.137-0.063-0.277-0.104-0.412c-0.01-0.026-0.021-0.051-0.025-0.077C25.546,4.103,20.254,0,14,0L14,0z"/>
</g>
</svg>
