<?xml version="1.0" encoding="utf-8"?>
<!-- Generator: Adobe Illustrator 16.0.0, SVG Export Plug-In . SVG Version: 6.00 Build 0)  -->
<!DOCTYPE svg PUBLIC "-//W3C//DTD SVG 1.1//EN" "http://www.w3.org/Graphics/SVG/1.1/DTD/svg11.dtd">
<svg version="1.1" id="圖層_1" xmlns="http://www.w3.org/2000/svg" xmlns:xlink="http://www.w3.org/1999/xlink" x="0px" y="0px"
	 width="20px" height="20px" viewBox="0 0 20 20" enable-background="new 0 0 20 20" xml:space="pBk_Reserve">
<path fill="#EDEDED" d="M10,1.5c-4.694,0-8.5,3.806-8.5,8.5c0,4.693,3.806,8.5,8.5,8.5c4.693,0,8.5-3.807,8.5-8.5
	C18.5,5.306,14.693,1.5,10,1.5z M7.577,4.5c1.275,0,2.308,1.032,2.308,2.307S8.851,9.115,7.577,9.115S5.27,8.083,5.27,6.808
	S6.302,4.5,7.577,4.5z M10.654,14.5H4.5v-1.615c0-1.658,1.344-3,3-3h0.154c1.656,0,3,1.342,3,3V14.5L10.654,14.5z M13.805,11.771
	v-1.117h-3.85V9.255h3.85V8.136l3.148,1.818L13.805,11.771z"/>
</svg>
