<?xml version="1.0" encoding="utf-8"?>
<!-- Generator: Adobe Illustrator 16.0.0, SVG Export Plug-In . SVG Version: 6.00 Build 0)  -->
<!DOCTYPE svg PUBLIC "-//W3C//DTD SVG 1.1//EN" "http://www.w3.org/Graphics/SVG/1.1/DTD/svg11.dtd">
<svg version="1.1" id="圖層_1" xmlns="http://www.w3.org/2000/svg" xmlns:xlink="http://www.w3.org/1999/xlink" x="0px" y="0px"
	 width="28px" height="28px" viewBox="0 0 28 28" enable-background="new 0 0 28 28" xml:space="pBk_Reserve">
<g>
	<polygon fill="#FFFFFF" points="8.837,7.037 9.927,7.037 9.045,7.677 9.382,8.713 8.5,8.073 7.618,8.713 7.955,7.677 7.073,7.037 
		8.163,7.037 8.5,6 6,6 6,22 22,22 22,6 8.5,6 	"/>
	<rect x="7.333" y="10.667" fill="#FFFFFF" width="13.334" height="0.667"/>
	<rect x="7.333" y="12" fill="#FFFFFF" width="13.334" height="0.667"/>
	<polygon fill="#FFFFFF" points="14,21.334 14,14.667 21.333,14.667 	"/>
	<rect x="7.333" y="9.333" fill="#FFFFFF" width="13.334" height="0.667"/>
	<rect x="7.333" y="9.333" fill="#FFFFFF" width="13.334" height="0.667"/>
	<path fill="#A0A0A0" d="M22,22H6V6h2.5H22V22z"/>
	<polygon fill="#FFFFFF" points="14,21.334 21.333,14.667 14,14.667 	"/>
	<polygon fill="#FFFFFF" points="7.073,7.037 7.955,7.677 7.618,8.713 8.5,8.073 9.382,8.713 9.045,7.677 9.927,7.037 8.837,7.037 
		8.5,6 8.163,7.037 	"/>
	<rect x="7.333" y="12" fill="#FFFFFF" width="13.334" height="0.667"/>
	<rect x="7.333" y="10.667" fill="#FFFFFF" width="13.334" height="0.667"/>
</g>
<g>
	<path fill="#A0A0A0" d="M14,1c5.673,0,10.645,3.625,12.383,9.025c0.014,0.056,0.03,0.102,0.042,0.133
		c0.013,0.046,0.023,0.094,0.035,0.142c0.016,0.07,0.032,0.14,0.053,0.218C26.836,11.68,27,12.852,27,14
		c0,0.884-0.089,1.766-0.264,2.622C25.505,22.636,20.148,27,14,27C7.851,27,2.495,22.636,1.264,16.622C1.089,15.766,1,14.884,1,14
		c0-1.148,0.164-2.32,0.485-3.477c0.021-0.075,0.04-0.151,0.058-0.227c0.013-0.054,0.025-0.109,0.042-0.162l0.016-0.043l0.002-0.005
		c0.017-0.044,0.033-0.087,0.05-0.137C3.408,4.597,8.37,1,14,1 M14,0C7.793,0,2.537,4.043,0.702,9.638
		C0.68,9.705,0.65,9.769,0.63,9.837c-0.042,0.135-0.067,0.275-0.106,0.413C0.191,11.444,0,12.698,0,14
		c0,0.967,0.098,1.91,0.284,2.822C1.59,23.201,7.234,28,14,28s12.41-4.799,13.716-11.178C27.902,15.91,28,14.967,28,14
		c0-1.302-0.191-2.556-0.523-3.75c-0.037-0.138-0.063-0.278-0.104-0.413c-0.01-0.026-0.021-0.051-0.025-0.077
		C25.545,4.101,20.253,0,14,0L14,0z"/>
</g>
<rect x="7.333" y="9.333" fill="#FFFFFF" width="13.334" height="0.667"/>
<rect x="7.333" y="9.333" fill="#FFFFFF" width="13.334" height="0.667"/>
</svg>
