<?xml version="1.0" encoding="utf-8"?>
<!-- Generator: Adobe Illustrator 16.0.0, SVG Export Plug-In . SVG Version: 6.00 Build 0)  -->
<!DOCTYPE svg PUBLIC "-//W3C//DTD SVG 1.1//EN" "http://www.w3.org/Graphics/SVG/1.1/DTD/svg11.dtd">
<svg version="1.1" id="圖層_1" xmlns="http://www.w3.org/2000/svg" xmlns:xlink="http://www.w3.org/1999/xlink" x="0px" y="0px"
	 width="20px" height="20px" viewBox="0 0 20 20" enable-background="new 0 0 20 20" xml:space="pBk_Reserve">
<g>
	<path fill="#DC4C33" d="M17.444,16.204V6.73l-5.583-4.905H4.417c-1.024,0-1.852,0.736-1.852,1.635L2.556,16.54
		c0,0.898,0.828,1.635,1.852,1.635h11.175c0.419,0,0.791-0.123,1.107-0.328l-4.122-3.621c-0.745,0.426-1.619,0.679-2.568,0.679
		c-2.568,0-4.653-1.831-4.653-4.087C5.347,8.561,7.432,6.73,10,6.73s4.653,1.831,4.653,4.087c0,0.833-0.289,1.602-0.773,2.248
		L17.444,16.204z M7.208,10.817c0,1.357,1.247,2.452,2.792,2.452c1.545,0,2.792-1.095,2.792-2.452c0-1.357-1.247-2.453-2.792-2.453
		C8.456,8.365,7.208,9.46,7.208,10.817z"/>
</g>
</svg>
