<?xml version="1.0" encoding="utf-8"?>
<!-- Generator: Adobe Illustrator 16.0.0, SVG Export Plug-In . SVG Version: 6.00 Build 0)  -->
<!DOCTYPE svg PUBLIC "-//W3C//DTD SVG 1.1//EN" "http://www.w3.org/Graphics/SVG/1.1/DTD/svg11.dtd">
<svg version="1.1" id="圖層_1" xmlns="http://www.w3.org/2000/svg" xmlns:xlink="http://www.w3.org/1999/xlink" x="0px" y="0px"
	 width="20px" height="20px" viewBox="0 0 20 20" enable-background="new 0 0 20 20" xml:space="pBk_Reserve">
<path fill="#EA9E91" d="M6.398,10.646C5.956,7.378,7.91,4.336,10.91,3.293c-0.485-0.024-0.981-0.005-1.483,0.063
	c-4.044,0.547-6.913,4.016-6.408,7.748c0.504,3.733,4.191,6.316,8.235,5.771c0.501-0.066,0.984-0.182,1.445-0.332
	C9.53,16.331,6.84,13.917,6.398,10.646z M15.789,6.315h-2.105V8.42H11.58v2.105h2.104v2.104h2.105v-2.104h2.105V8.421h-2.105V6.315z
	 M0,5c0-2.762,2.238-5,5-5h10c2.762,0,5,2.238,5,5v10c0,2.762-2.238,5-5,5H5c-2.762,0-5-2.238-5-5V5z"/>
</svg>
