<?xml version="1.0" encoding="utf-8"?>
<!-- Generator: Adobe Illustrator 16.0.0, SVG Export Plug-In . SVG Version: 6.00 Build 0)  -->
<!DOCTYPE svg PUBLIC "-//W3C//DTD SVG 1.1//EN" "http://www.w3.org/Graphics/SVG/1.1/DTD/svg11.dtd">
<svg version="1.1" id="圖層_1" xmlns="http://www.w3.org/2000/svg" xmlns:xlink="http://www.w3.org/1999/xlink" x="0px" y="0px"
	 width="22px" height="22px" viewBox="0 0 22 22" enable-background="new 0 0 22 22" xml:space="pBk_Reserve">
<path fill="#A0A0A0" d="M15.374,13.725h-0.921l-0.325-0.326c1.142-1.379,1.829-3.167,1.829-5.108c0-4.335-3.389-7.85-7.571-7.85
	S0.814,3.954,0.814,8.29s3.39,7.851,7.572,7.851c1.875,0,3.6-0.713,4.926-1.896l0.315,0.337v0.954l5.823,6.025l1.734-1.797
	L15.374,13.725z M8.386,13.725c-2.901,0-5.243-2.428-5.243-5.435c0-3.006,2.342-5.434,5.243-5.434c2.899,0,5.24,2.428,5.24,5.434
	C13.626,11.297,11.285,13.725,8.386,13.725z"/>
</svg>
