<?xml version="1.0" encoding="utf-8"?>
<!-- Generator: Adobe Illustrator 16.0.0, SVG Export Plug-In . SVG Version: 6.00 Build 0)  -->
<!DOCTYPE svg PUBLIC "-//W3C//DTD SVG 1.1//EN" "http://www.w3.org/Graphics/SVG/1.1/DTD/svg11.dtd">
<svg version="1.1" id="圖層_1" xmlns="http://www.w3.org/2000/svg" xmlns:xlink="http://www.w3.org/1999/xlink" x="0px" y="0px"
	 width="20px" height="20px" viewBox="0 0 20 20" enable-background="new 0 0 20 20" xml:space="pBk_Reserve">
<g>
	<path fill="#EA9E91" d="M0,5c0-2.761,2.046-5,4.571-5h10.857C17.953,0,20,2.239,20,5v10c0,2.762-2.047,5-4.57,5H4.571
		C2.046,20,0,17.762,0,15V5z"/>
	<g>
		<ellipse fill="#FFFFFF" cx="6.044" cy="6.743" rx="3.58" ry="3.416"/>
		<path fill="#FFFFFF" d="M1.033,15.625c0-2.588,2.198-4.686,4.909-4.686c2.71,0,4.908,2.098,4.908,4.686H1.033z"/>
		<path fill="#FFFFFF" d="M14.703,10.52c0.104,0.097,0.154,0.262,0.154,0.498c0,0.229-0.053,0.396-0.154,0.498
			c-0.104,0.104-0.229,0.152-0.377,0.152c-0.145,0-0.268-0.051-0.369-0.152c-0.107-0.104-0.162-0.27-0.162-0.498
			c0-0.236,0.055-0.401,0.162-0.498c0.104-0.097,0.227-0.145,0.369-0.145C14.475,10.375,14.6,10.423,14.703,10.52z M14.564,9.609
			h-0.486l-0.215-4.911h0.916L14.564,9.609z M14.82,3.313c-0.221-0.417-0.771-0.417-0.989,0l-4.068,7.708
			c-0.221,0.416,0.055,0.938,0.495,0.938h8.137c0.44,0,0.715-0.521,0.496-0.938L14.82,3.313z"/>
	</g>
</g>
</svg>
