<?xml version="1.0" encoding="utf-8"?>
<!-- Generator: Adobe Illustrator 16.0.0, SVG Export Plug-In . SVG Version: 6.00 Build 0)  -->
<!DOCTYPE svg PUBLIC "-//W3C//DTD SVG 1.1//EN" "http://www.w3.org/Graphics/SVG/1.1/DTD/svg11.dtd">
<svg version="1.1" id="圖層_1" xmlns="http://www.w3.org/2000/svg" xmlns:xlink="http://www.w3.org/1999/xlink" x="0px" y="0px"
	 width="20px" height="20px" viewBox="0 0 20 20" enable-background="new 0 0 20 20" xml:space="pBk_Reserve">
<path fill="#FF8C78" d="M2.451,2.514v14.972H3.96v-2.139h1.51v2.139h1.51v-2.139h1.51v2.139h0.001v-2.141H10h1.509v2.141h1.511
	v-2.139h1.51h1.512v2.139h1.509V2.514H2.451z M10,14.277H3.96v-1.068H10V14.277z M10,12.139H3.96v-1.07H10V12.139z M10,10H3.96
	V8.932H10V10z M11.508,6.792H3.96V4.654h7.548V6.792z M15.229,6.2c-0.139-0.095-0.375-0.18-0.705-0.258
	c-0.459-0.097-0.797-0.223-1.008-0.38S13.2,5.205,13.2,4.963c0-0.246,0.104-0.447,0.309-0.605c0.208-0.158,0.493-0.253,0.854-0.282
	V3.583h0.482v0.496c0.363,0.035,0.646,0.141,0.848,0.318c0.201,0.177,0.304,0.419,0.304,0.727H15.4c0-0.211-0.071-0.379-0.217-0.503
	c-0.146-0.126-0.342-0.188-0.588-0.188c-0.259,0-0.453,0.047-0.592,0.139C13.868,4.665,13.8,4.793,13.8,4.958
	c0,0.154,0.071,0.276,0.216,0.366c0.146,0.091,0.381,0.173,0.711,0.249c0.33,0.074,0.586,0.157,0.771,0.245
	c0.187,0.09,0.321,0.193,0.409,0.312c0.088,0.118,0.133,0.257,0.133,0.417c0,0.253-0.111,0.457-0.331,0.611
	c-0.218,0.156-0.526,0.247-0.922,0.276v0.43h-0.479v-0.43c-0.399-0.025-0.717-0.124-0.945-0.297
	c-0.229-0.175-0.342-0.411-0.342-0.708h0.602c0,0.208,0.078,0.368,0.234,0.482c0.158,0.111,0.383,0.168,0.672,0.168
	c0.283,0,0.508-0.047,0.668-0.141c0.162-0.096,0.244-0.225,0.244-0.388C15.439,6.41,15.369,6.295,15.229,6.2z M13.02,11.068h3.021
	v1.07H13.02V11.068z M16.04,14.277H13.02v-1.068h3.021L16.04,14.277L16.04,14.277z M16.04,10H13.02V8.932h3.021L16.04,10L16.04,10z"
	/>
</svg>
