<?xml version="1.0" encoding="utf-8"?>
<!-- Generator: Adobe Illustrator 16.0.0, SVG Export Plug-In . SVG Version: 6.00 Build 0)  -->
<!DOCTYPE svg PUBLIC "-//W3C//DTD SVG 1.1//EN" "http://www.w3.org/Graphics/SVG/1.1/DTD/svg11.dtd">
<svg version="1.1" id="圖層_1" xmlns="http://www.w3.org/2000/svg" xmlns:xlink="http://www.w3.org/1999/xlink" x="0px" y="0px"
	 width="28px" height="28px" viewBox="0 0 28 28" enable-background="new 0 0 28 28" xml:space="pBk_Reserve">
<g>
	<path fill="#A0A0A0" d="M14,1c7.168,0,13,5.832,13,13s-5.832,13-13,13C6.832,27,1,21.168,1,14S6.832,1,14,1 M14,0
		C6.268,0,0,6.268,0,14c0,7.732,6.268,14,14,14c7.732,0,14-6.268,14-14C28,6.268,21.732,0,14,0L14,0z"/>
</g>
<path fill="#A0A0A0" d="M13.974,22.313c0.123,0,0.236-0.008,0.35-0.035c0.568-0.119,1.033-0.508,1.26-1.029
	c0.088-0.21,0.131-0.438,0.131-0.686h-3.5C12.224,21.525,13.002,22.313,13.974,22.313z M19.225,12.688
	c0-2.686-1.436-4.935-3.938-5.53V6.563c0-0.726-0.586-1.313-1.313-1.313c-0.726,0-1.313,0.586-1.313,1.313v0.595
	c-2.511,0.595-3.938,2.835-3.938,5.53v4.375l-1.75,1.75v0.875h14v-0.875l-1.75-1.75v-4.375H19.225z M20.947,12.25h1.75
	c-0.131-2.8-1.514-5.268-3.605-6.869L17.85,6.632C19.617,7.901,20.816,9.931,20.947,12.25z M10.106,6.632L8.855,5.381
	C6.755,6.982,5.373,9.45,5.25,12.25H7C7.131,9.931,8.321,7.901,10.106,6.632z"/>
</svg>
