<?xml version="1.0" encoding="utf-8"?>
<!-- Generator: Adobe Illustrator 16.0.0, SVG Export Plug-In . SVG Version: 6.00 Build 0)  -->
<!DOCTYPE svg PUBLIC "-//W3C//DTD SVG 1.1//EN" "http://www.w3.org/Graphics/SVG/1.1/DTD/svg11.dtd">
<svg version="1.1" id="圖層_1" xmlns="http://www.w3.org/2000/svg" xmlns:xlink="http://www.w3.org/1999/xlink" x="0px" y="0px"
	 width="20px" height="20px" viewBox="0 0 20 20" enable-background="new 0 0 20 20" xml:space="pBk_Reserve">
<path fill="#FF8C78" d="M1.578,3.875v12.25h16.844V3.875H1.578z M5.789,5.406c1.057,0,1.914,0.857,1.914,1.914
	c0,1.057-0.857,1.914-1.914,1.914S3.875,8.377,3.875,7.32C3.875,6.262,4.732,5.406,5.789,5.406z M8.468,13.828H3.109V12.68
	c0-1.479,1.2-2.68,2.68-2.68s2.68,1.199,2.679,2.68V13.828z M16.125,13.829h-5.359v-0.767h5.359V13.829z M16.125,11.531h-5.359
	v-0.766h5.359V11.531z M16.125,9.235h-5.359V8.469h5.359V9.235z M16.125,6.938h-5.359V6.172h5.359V6.938z"/>
</svg>
