<?xml version="1.0" encoding="utf-8"?>
<!-- Generator: Adobe Illustrator 16.0.0, SVG Export Plug-In . SVG Version: 6.00 Build 0)  -->
<!DOCTYPE svg PUBLIC "-//W3C//DTD SVG 1.1//EN" "http://www.w3.org/Graphics/SVG/1.1/DTD/svg11.dtd">
<svg version="1.1" id="圖層_1" xmlns="http://www.w3.org/2000/svg" xmlns:xlink="http://www.w3.org/1999/xlink" x="0px" y="0px"
	 width="20px" height="20px" viewBox="0 0 20 20" enable-background="new 0 0 20 20" xml:space="pBk_Reserve">
<g>
	<rect x="11.25" y="4.5" fill="none" width="3.75" height="2"/>
	<rect x="5" y="4.5" fill="#FFFFFF" width="3.75" height="2"/>
	<path fill="#FF8C78" d="M16.5,2.5h-13c-0.553,0-1,0.447-1,1v7c0-1.105,0.896-2,2-2h11c1.104,0,2,0.895,2,2v-7
		C17.5,2.947,17.053,2.5,16.5,2.5z M8.75,6.5H5v-2h3.75V6.5z M15,6.5h-3.75v-2H15V6.5z"/>
	<path fill="#FF8C78" d="M15.5,9.5h-11c-1.104,0-2,0.895-2,2v6h15v-6C17.5,10.395,16.604,9.5,15.5,9.5z"/>
</g>
</svg>
