<?xml version="1.0" encoding="utf-8"?>
<!-- Generator: Adobe Illustrator 16.0.0, SVG Export Plug-In . SVG Version: 6.00 Build 0)  -->
<!DOCTYPE svg PUBLIC "-//W3C//DTD SVG 1.1//EN" "http://www.w3.org/Graphics/SVG/1.1/DTD/svg11.dtd">
<svg version="1.1" id="圖層_1" xmlns="http://www.w3.org/2000/svg" xmlns:xlink="http://www.w3.org/1999/xlink" x="0px" y="0px"
	 width="22px" height="22px" viewBox="1 1 22 22" enable-background="new 1 1 22 22" xml:space="pBk_Reserve">
<path fill="#A0A0A0" d="M19.062,4.938C17.247,3.125,14.757,2,11.993,2C6.466,2,2,6.475,2,12c0,5.525,4.466,10,9.993,10
	c4.666,0,8.556-3.188,9.67-7.5h-2.602c-1.027,2.913-3.804,5-7.065,5c-4.14,0-7.504-3.361-7.504-7.5c0-4.138,3.364-7.5,7.504-7.5
	c2.074,0,3.926,0.862,5.278,2.226l-4.027,4.025H22V2L19.062,4.938z"/>
</svg>
