<?xml version="1.0" encoding="utf-8"?>
<!-- Generator: Adobe Illustrator 16.0.0, SVG Export Plug-In . SVG Version: 6.00 Build 0)  -->
<!DOCTYPE svg PUBLIC "-//W3C//DTD SVG 1.1//EN" "http://www.w3.org/Graphics/SVG/1.1/DTD/svg11.dtd">
<svg version="1.1" id="圖層_1" xmlns="http://www.w3.org/2000/svg" xmlns:xlink="http://www.w3.org/1999/xlink" x="0px" y="0px"
	 width="28px" height="28px" viewBox="-2 -2 28 28" enable-background="new -2 -2 28 28" xml:space="pBk_Reserve">
<path fill="#EA9E91" d="M12,22.081c-3.5,0-6.594-1.794-8.4-4.51c0.042-2.784,5.601-4.307,8.4-4.307c2.787,0,8.358,1.531,8.4,4.307
	C18.595,20.287,15.5,22.081,12,22.081z M12,2.2c2.324,0,4.199,1.876,4.199,4.2c0,2.324-1.87,4.199-4.199,4.199
	c-2.329,0-4.2-1.875-4.2-4.199C7.8,4.076,9.676,2.2,12,2.2z"/>
<g>
	<path fill="#EA9E91" d="M12-0.833c7.075,0,12.833,5.758,12.833,12.833c0,7.075-5.758,12.833-12.833,12.833
		C4.924,24.833-0.833,19.075-0.833,12C-0.833,4.924,4.924-0.833,12-0.833 M12-2C4.272-2-2,4.272-2,12c0,7.729,6.272,14,14,14
		c7.729,0,14-6.271,14-14C26,4.272,19.729-2,12-2L12-2z"/>
</g>
</svg>
