<?xml version="1.0" encoding="utf-8"?>
<!-- Generator: Adobe Illustrator 16.0.0, SVG Export Plug-In . SVG Version: 6.00 Build 0)  -->
<!DOCTYPE svg PUBLIC "-//W3C//DTD SVG 1.1//EN" "http://www.w3.org/Graphics/SVG/1.1/DTD/svg11.dtd">
<svg version="1.1" id="圖層_1" xmlns="http://www.w3.org/2000/svg" xmlns:xlink="http://www.w3.org/1999/xlink" x="0px" y="0px"
	 width="18px" height="18px" viewBox="3 0 18 18" enable-background="new 3 0 18 18" xml:space="pBk_Reserve">
<polygon fill="#B44C3A" points="14.333,3.552 14.333,5.252 16.885,5.252 16.885,7.804 18.585,7.804 18.585,5.252 21.137,5.252 
	21.137,3.552 18.585,3.552 18.585,1.001 16.885,1.001 16.885,3.552 "/>
<path fill="#B44C3A" d="M13.376,8.862l-2.803-4.449c-0.122-0.189-0.327-0.285-0.532-0.285S9.631,4.224,9.51,4.421L6.707,8.862H3.64
	C3.288,8.862,3,9.168,3,9.541c0,0.061,0.006,0.121,0.025,0.182l1.626,6.287c0.147,0.569,0.64,0.99,1.229,0.99h8.322
	c0.589,0,1.082-0.421,1.236-0.99l1.626-6.287l0.019-0.182c0-0.373-0.288-0.678-0.64-0.678H13.376z M8.122,8.862l1.919-2.983
	l1.921,2.983H8.122z M10.042,14.286c-0.705,0-1.281-0.611-1.281-1.355c0-0.746,0.576-1.356,1.281-1.356s1.28,0.611,1.28,1.356
	C11.322,13.675,10.746,14.286,10.042,14.286z"/>
</svg>
