<?xml version="1.0" encoding="utf-8"?>
<!-- Generator: Adobe Illustrator 16.0.0, SVG Export Plug-In . SVG Version: 6.00 Build 0)  -->
<!DOCTYPE svg PUBLIC "-//W3C//DTD SVG 1.1//EN" "http://www.w3.org/Graphics/SVG/1.1/DTD/svg11.dtd">
<svg version="1.1" id="圖層_1" xmlns="http://www.w3.org/2000/svg" xmlns:xlink="http://www.w3.org/1999/xlink" x="0px" y="0px"
	 width="40px" height="5px" viewBox="0 0 40 5" enable-background="new 0 0 40 5" xml:space="pBk_Reserve">
<g>
	<g>
		<polygon fill="#F08527" points="18.891,4.092 17.053,2.466 18.891,0.841 18.326,0.342 15.918,2.466 18.326,4.591 		"/>
		<polygon fill="#F08527" points="2.974,4.159 1.136,2.533 2.974,0.908 2.408,0.409 0,2.533 2.408,4.658 		"/>
		<polygon fill="#F08527" points="6.656,4.159 4.818,2.533 6.656,0.908 6.091,0.409 3.682,2.533 6.091,4.658 		"/>
	</g>
	<g>
		<polygon fill="#F08527" points="21.107,0.908 22.946,2.533 21.107,4.158 21.674,4.658 24.082,2.533 21.674,0.409 		"/>
		<polygon fill="#F08527" points="37.025,0.841 38.864,2.466 37.025,4.092 37.591,4.592 40,2.466 37.591,0.342 		"/>
		<polygon fill="#F08527" points="33.343,0.841 35.182,2.466 33.343,4.092 33.909,4.592 36.317,2.466 33.909,0.342 		"/>
	</g>
</g>
</svg>
