<?xml version="1.0" encoding="utf-8"?>
<!-- Generator: Adobe Illustrator 16.0.0, SVG Export Plug-In . SVG Version: 6.00 Build 0)  -->
<!DOCTYPE svg PUBLIC "-//W3C//DTD SVG 1.1//EN" "http://www.w3.org/Graphics/SVG/1.1/DTD/svg11.dtd">
<svg version="1.1" id="圖層_1" xmlns="http://www.w3.org/2000/svg" xmlns:xlink="http://www.w3.org/1999/xlink" x="0px" y="0px"
	 width="20px" height="20px" viewBox="0 0 20 20" enable-background="new 0 0 20 20" xml:space="pBk_Reserve">
<path fill="#EA9E91" d="M16.84,8.941c0.326,0.16,0.461,0.554,0.303,0.88l-1.447,2.955l-2.362-1.155l-0.868,1.771
	c-0.158,0.328-0.554,0.463-0.88,0.303c-0.326-0.159-0.462-0.555-0.302-0.881l1.445-2.955l2.363,1.158l0.868-1.771
	C16.119,8.917,16.514,8.782,16.84,8.941z M5,8.686h2.632v3.757l1.892-1.125l1.669,2.805c0.563,0.949,0.252,2.177-0.696,2.74
	L9.41,17.51c-0.949,0.564-2.177,0.254-2.741-0.695L5,14.009l0.101-0.06H5V8.686z M5.162,4.632H5c0,0,0.063-0.008,0.173-0.024
	C5.484,3.909,6.186,3.422,7,3.422h2.156C9.804,3.052,10.264,2.583,10.264,2v1.422v1.21v2.054c0,1.104-0.896,2-2,2H5V5.422
	C5,5.142,5.058,4.874,5.162,4.632z M5,0C2.238,0,0,2.239,0,5v10c0,2.762,2.238,5,5,5h10c2.762,0,5-2.238,5-5V5c0-2.761-2.238-5-5-5
	H5z"/>
</svg>
