<?xml version="1.0" encoding="utf-8"?>
<!-- Generator: Adobe Illustrator 16.0.0, SVG Export Plug-In . SVG Version: 6.00 Build 0)  -->
<!DOCTYPE svg PUBLIC "-//W3C//DTD SVG 1.1//EN" "http://www.w3.org/Graphics/SVG/1.1/DTD/svg11.dtd">
<svg version="1.1" id="圖層_1" xmlns="http://www.w3.org/2000/svg" xmlns:xlink="http://www.w3.org/1999/xlink" x="0px" y="0px"
	 width="28px" height="28px" viewBox="0 0 28 28" enable-background="new 0 0 28 28" xml:space="pBk_Reserve">
<g>
	<polygon fill="#A0A0A0" points="19.104,7.24 19.104,6.386 18.207,6.813 17.396,6.386 17.396,7.239 17.396,9.376 19.104,9.376 	"/>
	<path fill="#A0A0A0" d="M17.152,9.802L14.59,7.239H9c-0.552,0-1,0.448-1,1v13.376c0,0.553,0.448,1,1,1h9.716c0.552,0,1-0.447,1-1
		v-9.25L17.152,9.802z M17.506,15.646l-3.559,3.559c-0.655,0.654-1.743,0.564-2.281-0.189l-1.144-1.602
		c-0.161-0.225-0.108-0.537,0.116-0.697c0.224-0.16,0.537-0.107,0.697,0.116l1.145,1.603c0.179,0.252,0.542,0.28,0.76,0.063
		l3.559-3.56c0.195-0.195,0.512-0.195,0.707,0C17.701,15.131,17.701,15.451,17.506,15.646z"/>
</g>
<g>
	<path fill="#A0A0A0" d="M14,1c7.168,0,13,5.832,13,13s-5.832,13-13,13C6.832,27,1,21.168,1,14S6.832,1,14,1 M14,0
		C6.268,0,0,6.268,0,14s6.268,14,14,14s14-6.268,14-14S21.732,0,14,0L14,0z"/>
</g>
</svg>
