<?xml version="1.0" encoding="utf-8"?>
<!-- Generator: Adobe Illustrator 16.0.0, SVG Export Plug-In . SVG Version: 6.00 Build 0)  -->
<!DOCTYPE svg PUBLIC "-//W3C//DTD SVG 1.1//EN" "http://www.w3.org/Graphics/SVG/1.1/DTD/svg11.dtd">
<svg version="1.1" id="圖層_1" xmlns="http://www.w3.org/2000/svg" xmlns:xlink="http://www.w3.org/1999/xlink" x="0px" y="0px"
	 width="28px" height="28px" viewBox="0 0 28 28" enable-background="new 0 0 28 28" xml:space="pBk_Reserve">
<g>
	<circle fill="#EA9E91" cx="10.5" cy="6.5" r="2.5"/>
	<path fill="#EA9E91" d="M19,17v-2h-2.5l0.5-0.5L13,10H8v9h1v5h3v-5h1v-6.875l3,3.375V17h-1v7h5v-7H19z M18,17h-1v-1h1V17z"/>
</g>
<g>
	<path fill="#EA9E91" d="M14,1c7.168,0,13,5.832,13,13s-5.832,13-13,13C6.832,27,1,21.168,1,14S6.832,1,14,1 M14,0
		C6.268,0,0,6.269,0,14c0,7.732,6.268,14,14,14s14-6.268,14-14C28,6.269,21.732,0,14,0L14,0z"/>
</g>
</svg>
