<?xml version="1.0" encoding="utf-8"?>
<!-- Generator: Adobe Illustrator 16.0.0, SVG Export Plug-In . SVG Version: 6.00 Build 0)  -->
<!DOCTYPE svg PUBLIC "-//W3C//DTD SVG 1.1//EN" "http://www.w3.org/Graphics/SVG/1.1/DTD/svg11.dtd">
<svg version="1.1" id="圖層_1" xmlns="http://www.w3.org/2000/svg" xmlns:xlink="http://www.w3.org/1999/xlink" x="0px" y="0px"
	 width="20px" height="20px" viewBox="0 0 20 20" enable-background="new 0 0 20 20" xml:space="pBk_Reserve">
<path fill="#EA9E91" d="M10.187,8.465c0-1.875,1.531-3.395,3.418-3.395c3.008,0,4.549,3.579,2.471,5.739l-5.889,6.121V8.465z
	 M4.296,10.809C2.218,8.649,3.759,5.07,6.768,5.07c1.887,0,3.417,1.52,3.417,3.395v8.465L4.296,10.809z M4.545,0
	C2.035,0,0,2.238,0,5v10c0,2.762,2.035,5,4.545,5h10.91C17.965,20,20,17.762,20,15V5c0-2.762-2.035-5-4.545-5H4.545z"/>
</svg>
