<?xml version="1.0" encoding="utf-8"?>
<!-- Generator: Adobe Illustrator 16.0.0, SVG Export Plug-In . SVG Version: 6.00 Build 0)  -->
<!DOCTYPE svg PUBLIC "-//W3C//DTD SVG 1.1//EN" "http://www.w3.org/Graphics/SVG/1.1/DTD/svg11.dtd">
<svg version="1.1" id="圖層_1" xmlns="http://www.w3.org/2000/svg" xmlns:xlink="http://www.w3.org/1999/xlink" x="0px" y="0px"
	 width="28px" height="28px" viewBox="-2 0 28 28" enable-background="new -2 0 28 28" xml:space="pBk_Reserve">
<path fill="#A0A0A0" d="M12,23.94c-3.5,0-6.594-1.794-8.4-4.51c0.042-2.784,5.601-4.307,8.4-4.307c2.787,0,8.358,1.531,8.4,4.307
	C18.594,22.146,15.5,23.94,12,23.94z M12,4.06c2.324,0,4.2,1.876,4.2,4.2c0,2.323-1.872,4.199-4.2,4.199
	c-2.329,0-4.2-1.876-4.2-4.199C7.8,5.936,9.676,4.06,12,4.06z"/>
<g>
	<path fill="#A0A0A0" d="M12,1.167c7.075,0,12.833,5.758,12.833,12.833c0,7.075-5.758,12.833-12.833,12.833
		C4.924,26.833-0.833,21.075-0.833,14C-0.833,6.924,4.924,1.167,12,1.167 M12,0C4.272,0-2,6.272-2,14c0,7.729,6.272,14,14,14
		c7.729,0,14-6.271,14-14C26,6.272,19.729,0,12,0L12,0z"/>
</g>
</svg>
