<?xml version="1.0" encoding="utf-8"?>
<!-- Generator: Adobe Illustrator 16.0.0, SVG Export Plug-In . SVG Version: 6.00 Build 0)  -->
<!DOCTYPE svg PUBLIC "-//W3C//DTD SVG 1.1//EN" "http://www.w3.org/Graphics/SVG/1.1/DTD/svg11.dtd">
<svg version="1.1" id="圖層_1" xmlns="http://www.w3.org/2000/svg" xmlns:xlink="http://www.w3.org/1999/xlink" x="0px" y="0px"
	 width="20px" height="20px" viewBox="0 0 20 20" enable-background="new 0 0 20 20" xml:space="pBk_Reserve">
<path fill="#EA9E91" d="M10.499,11L10.499,11L10.499,11C10.5,11,10.5,11,10.499,11z M0.617,3.576C0.735,3.527,0.864,3.5,1,3.5l0,0
	C0.87,3.5,0.739,3.525,0.617,3.576z M0,4.5c0-0.256,0.098-0.512,0.293-0.707c0.096-0.096,0.206-0.168,0.324-0.217
	C0.255,3.727,0,4.083,0,4.5L0,4.5z M0,4.5c0,0.256,0.098,0.512,0.293,0.707L1,4.5C0.293,5.207,0.293,5.207,0.293,5.208l0,0
	l0.002,0.001l0.004,0.004L0.316,5.23L0.38,5.294c0.058,0.057,0.14,0.139,0.246,0.242C0.837,5.744,1.141,6.04,1.512,6.395
	C2.252,7.104,3.263,8.051,4.338,9c1.072,0.946,2.228,1.909,3.253,2.643c0.511,0.365,1.012,0.688,1.468,0.924
	C9.479,12.783,9.996,13,10.5,13c0.516,0,1.021-0.225,1.425-0.447c0.435-0.242,0.899-0.57,1.366-0.939
	c0.938-0.737,1.968-1.708,2.916-2.654c0.952-0.952,1.838-1.901,2.484-2.611c0.324-0.355,0.59-0.652,0.771-0.86
	c0.094-0.104,0.165-0.186,0.214-0.242l0.058-0.064l0.016-0.018l0.004-0.004l0.001-0.002h0.001c0,0,0,0-0.756-0.655l0.756,0.655
	c0.162-0.19,0.243-0.422,0.244-0.652V15.5c0,0.553-0.447,1-1,1H1c-0.553,0-1-0.447-1-1V4.5z M19.557,3.669
	c0.033,0.023,0.066,0.048,0.101,0.075c0.006,0.006,0.012,0.011,0.018,0.017c0.101,0.09,0.183,0.2,0.237,0.324
	C19.966,4.207,19.996,4.34,20,4.473c0,0.009,0,0.019,0,0.027v0.006c0-0.011,0-0.022,0-0.034c-0.004-0.138-0.036-0.27-0.09-0.388
	c-0.055-0.12-0.135-0.23-0.237-0.324C19.637,3.728,19.598,3.697,19.557,3.669z M19.124,3.508C19.081,3.502,19.038,3.5,18.995,3.5H19
	C19.042,3.5,19.083,3.503,19.124,3.508z M18.995,3.5c-0.278,0.002-0.556,0.119-0.751,0.345l0,0l0,0l-0.001,0.001L18.24,3.85
	l-0.014,0.016l-0.055,0.061c-0.047,0.054-0.115,0.133-0.206,0.233c-0.179,0.202-0.438,0.492-0.754,0.839
	c-0.634,0.696-1.498,1.622-2.421,2.544c-0.93,0.927-1.896,1.833-2.741,2.5c-0.424,0.334-0.794,0.591-1.098,0.76
	c-0.286,0.159-0.427,0.189-0.451,0.195C10.501,11,10.5,11,10.499,11c0,0,0,0-0.001,0c-0.018-0.004-0.175-0.031-0.521-0.211
	c-0.337-0.174-0.751-0.437-1.224-0.774C7.81,9.341,6.715,8.429,5.662,7.5c-1.05-0.925-2.039-1.853-2.768-2.55
	C2.531,4.602,2.233,4.312,2.026,4.108c-0.102-0.101-0.183-0.18-0.237-0.234L1.727,3.813L1.712,3.798L1.708,3.794L1.707,3.793l0,0
	C1.512,3.598,1.256,3.5,1,3.5H18.995z"/>
</svg>
