<?xml version="1.0" encoding="utf-8"?>
<!-- Generator: Adobe Illustrator 16.0.0, SVG Export Plug-In . SVG Version: 6.00 Build 0)  -->
<!DOCTYPE svg PUBLIC "-//W3C//DTD SVG 1.1//EN" "http://www.w3.org/Graphics/SVG/1.1/DTD/svg11.dtd">
<svg version="1.1" id="圖層_1" xmlns="http://www.w3.org/2000/svg" xmlns:xlink="http://www.w3.org/1999/xlink" x="0px" y="0px"
	 width="20px" height="20px" viewBox="0 0 20 20" enable-background="new 0 0 20 20" xml:space="pBk_Reserve">
<g>
	<path fill="#EDEDED" d="M10,8.928c1.133,0,2.123-0.589,2.695-1.474c-0.336-0.294-0.553-0.722-0.553-1.204
		c0-0.642,0.379-1.192,0.924-1.449C12.671,3.474,11.456,2.5,10,2.5c-1.775,0-3.214,1.439-3.214,3.214
		C6.786,7.489,8.225,8.928,10,8.928z"/>
	<path fill="#EDEDED" d="M9.687,11.831L7.856,10H6.785c-1.774,0-3.214,1.439-3.214,3.214v3.216H10l-1.072-3.216L9.687,11.831z"/>
	<path fill="#EDEDED" d="M13.214,10h-1.071l-1.831,1.831l0.758,1.383L10,16.43h6.43v-3.216C16.43,11.439,14.988,10,13.214,10z"/>
	<path fill="#EDEDED" d="M12.695,7.454c0.283,0.248,0.648,0.403,1.055,0.403c0.889,0,1.607-0.719,1.607-1.607
		s-0.721-1.607-1.607-1.607c-0.245,0-0.477,0.059-0.684,0.158c0.086,0.291,0.146,0.594,0.146,0.913
		C13.214,6.356,13.021,6.952,12.695,7.454z"/>
	<polygon fill="#EDEDED" points="8.636,8.929 7.857,10 12.143,10 11.363,8.929 	"/>
	<rect x="2.5" y="16.43" fill="#EDEDED" width="1.071" height="1.07"/>
	<rect x="16.43" y="16.43" fill="#EDEDED" width="1.07" height="1.07"/>
</g>
</svg>
