<?xml version="1.0" encoding="utf-8"?>
<!-- Generator: Adobe Illustrator 16.0.0, SVG Export Plug-In . SVG Version: 6.00 Build 0)  -->
<!DOCTYPE svg PUBLIC "-//W3C//DTD SVG 1.1//EN" "http://www.w3.org/Graphics/SVG/1.1/DTD/svg11.dtd">
<svg version="1.1" id="圖層_1" xmlns="http://www.w3.org/2000/svg" xmlns:xlink="http://www.w3.org/1999/xlink" x="0px" y="0px"
	 width="20px" height="20px" viewBox="0 0 20 20" enable-background="new 0 0 20 20" xml:space="pBk_Reserve">
<g>
	<g>
		<circle fill="#EDEDED" cx="8" cy="7.5" r="0.5"/>
		<circle fill="#EDEDED" cx="12" cy="7.5" r="0.5"/>
		<circle fill="#EDEDED" cx="10" cy="7.5" r="0.5"/>
	</g>
	<path fill="#EDEDED" d="M12.5,9h-5C7.224,9,7,9.224,7,9.5v3C7,12.775,7.224,13,7.5,13h5c0.275,0,0.5-0.225,0.5-0.5v-3
		C13,9.224,12.775,9,12.5,9z"/>
	<path fill="#EDEDED" d="M19,8h-1.559c-0.436,0-0.813-0.291-0.979-0.691c-0.167-0.401-0.104-0.869,0.203-1.176l1.575-1.575
		c0.391-0.391,0.391-1.024,0-1.414l-1.414-1.415c-0.393-0.391-1.021-0.391-1.414,0l-1.6,1.601c-0.297,0.297-0.75,0.36-1.139,0.199
		C12.283,3.367,12,3,12,2.579V1c0-0.552-0.447-1-1-1H9C8.448,0,8,0.448,8,1v1.569c0,0.428-0.287,0.799-0.682,0.963
		C6.922,3.696,6.462,3.634,6.16,3.331L4.535,1.707c-0.39-0.391-1.023-0.391-1.414,0L1.707,3.121c-0.391,0.391-0.391,1.024,0,1.415
		L3.331,6.16c0.303,0.303,0.365,0.763,0.201,1.158C3.368,7.713,2.997,8,2.569,8H1C0.448,8,0,8.448,0,9v2c0,0.553,0.448,1,1,1h1.579
		c0.422,0,0.789,0.283,0.95,0.674c0.161,0.389,0.099,0.842-0.199,1.139l-1.623,1.623c-0.391,0.393-0.391,1.023,0,1.414l1.415,1.414
		c0.39,0.391,1.023,0.391,1.414,0l1.597-1.598c0.307-0.307,0.775-0.369,1.176-0.203C7.709,16.631,8,17.008,8,17.441V19
		c0,0.553,0.448,1,1,1h2c0.553,0,1-0.447,1-1v-1.568c0-0.428,0.287-0.801,0.682-0.965c0.396-0.164,0.855-0.102,1.158,0.201
		l1.729,1.729c0.393,0.393,1.024,0.393,1.416,0l1.414-1.414c0.392-0.391,0.392-1.021,0-1.414L16.67,13.84
		c-0.303-0.303-0.363-0.762-0.201-1.158C16.632,12.287,17.004,12,17.432,12H19c0.553,0,1-0.447,1-1V9C20,8.448,19.553,8,19,8z
		 M10,15c-2.761,0-5-2.238-5-5c0-2.761,2.239-5,5-5c2.762,0,5,2.239,5,5C15,12.762,12.762,15,10,15z"/>
</g>
</svg>
