<?xml version="1.0" encoding="utf-8"?>
<!-- Generator: Adobe Illustrator 16.0.0, SVG Export Plug-In . SVG Version: 6.00 Build 0)  -->
<!DOCTYPE svg PUBLIC "-//W3C//DTD SVG 1.1//EN" "http://www.w3.org/Graphics/SVG/1.1/DTD/svg11.dtd">
<svg version="1.1" id="圖層_1" xmlns="http://www.w3.org/2000/svg" xmlns:xlink="http://www.w3.org/1999/xlink" x="0px" y="0px"
	 width="20px" height="20px" viewBox="0 0 20 20" enable-background="new 0 0 20 20" xml:space="pBk_Reserve">
<g>
	<path fill="#FF8C78" d="M13.214,10h-1.071l-1.831,1.831l0.758,1.383L10,16.43l-1.072-3.216l0.759-1.383L7.856,10H6.785
		c-1.774,0-3.214,1.439-3.214,3.214V17.5H16.43v-4.286C16.43,11.439,14.988,10,13.214,10z M15.357,13.214h-3.215v-1.071h3.215
		V13.214z"/>
	<g>
		<path fill="#FF8C78" d="M12.143,6.25c0-0.642,0.379-1.192,0.924-1.449C12.671,3.474,11.456,2.5,10,2.5
			c-1.775,0-3.214,1.439-3.214,3.214S8.225,8.928,10,8.928c1.133,0,2.123-0.589,2.695-1.474C12.359,7.16,12.143,6.732,12.143,6.25z"
			/>
		<path fill="#FF8C78" d="M13.75,4.643c-0.245,0-0.477,0.059-0.684,0.158c0.086,0.291,0.146,0.594,0.146,0.913
			c0,0.643-0.193,1.238-0.52,1.74c0.283,0.248,0.649,0.403,1.056,0.403c0.888,0,1.606-0.719,1.606-1.607S14.639,4.643,13.75,4.643z"
			/>
	</g>
	<polygon fill="#FF8C78" points="8.636,8.929 7.857,10 12.143,10 11.363,8.929 	"/>
	<rect x="2.5" y="16.43" fill="#FF8C78" width="15" height="1.07"/>
</g>
</svg>
