<?xml version="1.0" encoding="utf-8"?>
<!-- Generator: Adobe Illustrator 16.0.0, SVG Export Plug-In . SVG Version: 6.00 Build 0)  -->
<!DOCTYPE svg PUBLIC "-//W3C//DTD SVG 1.1//EN" "http://www.w3.org/Graphics/SVG/1.1/DTD/svg11.dtd">
<svg version="1.1" id="圖層_1" xmlns="http://www.w3.org/2000/svg" xmlns:xlink="http://www.w3.org/1999/xlink" x="0px" y="0px"
	 width="96px" height="45px" viewBox="0 0 96 45" enable-background="new 0 0 96 45" xml:space="pBk_Reserve">
<g>
	<g>
		
			<line fill="none" stroke="#231815" stroke-width="0.1721" stroke-miterlimit="10" x1="14.628" y1="19.42" x2="14.624" y2="19.417"/>
		
			<line fill="none" stroke="#231815" stroke-width="0.1721" stroke-miterlimit="10" x1="14.628" y1="19.42" x2="14.624" y2="19.417"/>
		
			<line fill="none" stroke="#231815" stroke-width="0.1721" stroke-miterlimit="10" x1="17.896" y1="12.397" x2="17.894" y2="12.393"/>
		<linearGradient id="SVGID_1_" gradientUnits="userSpaceOnUse" x1="2.5889" y1="6.9546" x2="21.7114" y2="6.9546">
			<stop  offset="0" style="stop-color:#E84725"/>
			<stop  offset="0.4824" style="stop-color:#D5502A"/>
			<stop  offset="1" style="stop-color:#912E17"/>
		</linearGradient>
		<path fill="url(#SVGID_1_)" d="M16.828,11.014c-0.114-1.085,0.567-1.681,0.567-1.681c1.859-1.746,4.163-1.268,4.163-1.268
			c0.615-0.327-0.801-0.822-1.159-0.906c-0.264-0.062-1.072-0.154-1.072-0.154c-1.454-0.148-2.939,1.429-2.939,1.429
			c-1.007,0.634-0.997-0.492-0.997-0.492c0.323-1.306,0.134-1.612,0.052-1.98c-0.079-0.369-0.172-0.596,0.196-1.254
			c0.367-0.654,1.591-1.144,1.591-1.144c1.187-0.534,0-0.819,0-0.819c-1.143-0.307-1.798,0.244-1.798,0.244
			c-1.674,1.026-2.409,3.031-2.409,3.031l0,0c0,0-0.121-0.41-0.612-0.902c-0.488-0.489-0.45-2.108-0.55-2.515
			c-0.104-0.41,0.529-1.412,0.529-1.412c0.348-0.654,0-0.799,0-0.799c-1.063-0.104-1.437,0.968-1.437,0.968
			c-0.203,0.686-0.481,1.243-0.481,1.243c-1.228,2.842-0.88,4.481-0.88,4.481C8.57,7.123,7.55,5.2,7.55,5.2
			C6.284,2.827,5.312,3.03,5.312,3.03c-1.42-0.161-1.255,0.451-1.255,0.451c1.286,0.451,1.255,1.106,1.255,1.106
			C5.607,6.14,6.979,7.532,6.979,7.532c1.716,1.392,0.829,2.549,0.829,2.549C6.838,11.156,5.793,9.11,5.793,9.11
			C4.325,7.001,2.589,8.186,2.589,8.186s1.468,0.617,1.96,1.661c0,0,0.374,2.059,2.319,3.324l0.583,0.353v-0.003
			c1.416-1.973,3.516-3.44,6.069-3.44C14.73,10.081,15.865,10.422,16.828,11.014z"/>
		<linearGradient id="SVGID_2_" gradientUnits="userSpaceOnUse" x1="11.0742" y1="14.6191" x2="20.9336" y2="14.6191">
			<stop  offset="0" style="stop-color:#E84725"/>
			<stop  offset="0.4824" style="stop-color:#D5502A"/>
			<stop  offset="1" style="stop-color:#912E17"/>
		</linearGradient>
		<path fill="url(#SVGID_2_)" d="M20.934,15.059l-3.967,0.313c-0.78-0.496-1.705-0.781-2.699-0.781
			c-1.189,0-2.307,0.389-3.193,1.112C11.972,14.932,16.293,11.639,20.934,15.059z"/>
		<linearGradient id="SVGID_3_" gradientUnits="userSpaceOnUse" x1="5.7529" y1="16.6748" x2="20.9336" y2="16.6748">
			<stop  offset="0" style="stop-color:#EF8425"/>
			<stop  offset="0.4824" style="stop-color:#D7682B"/>
			<stop  offset="1" style="stop-color:#DB4D34"/>
		</linearGradient>
		<path fill="url(#SVGID_3_)" d="M20.934,15.059c-4.641-3.42-8.962-0.127-9.859,0.645c-0.059,0.048-0.117,0.097-0.172,0.151
			c-1.09,0.975-1.787,2.483-1.773,4.419l-0.007,1.788l-3.369-2.646c0.079-0.833,0.199-1.757,0.409-2.37
			c0.285-0.837,0.525-1.343,0.907-1.952c1.431-2.294,4.273-3.807,7.168-3.807c1.306,0,2.567,0.399,3.657,0.951
			C19.188,12.889,20.226,13.864,20.934,15.059z"/>
		<linearGradient id="SVGID_4_" gradientUnits="userSpaceOnUse" x1="1.4209" y1="22.3574" x2="22.0127" y2="22.3574">
			<stop  offset="0" style="stop-color:#E84725"/>
			<stop  offset="0.4824" style="stop-color:#D5502A"/>
			<stop  offset="1" style="stop-color:#912E17"/>
		</linearGradient>
		<path fill="url(#SVGID_4_)" d="M22.013,19.117c0,0.101,0,0.2-0.003,0.3c-0.048,1.495-0.189,3.045-1.072,4.849
			c-6.91,8.143-16.976,4.916-19.517,3.912c1.44,0.541,5.26,1.717,9.481,0.779c0.447-0.096,0.9-0.217,1.354-0.369
			c0.667-0.217,1.337-0.496,2.008-0.84c0,0,0.491-0.292,1.169-0.86c0.322-0.272,0.69-0.61,1.062-1.01
			c1.155-1.229,2.393-3.044,2.744-5.414c0-0.008,0.003-0.011,0.003-0.018c0.018-0.107,0.034-0.214,0.041-0.324v-0.014
			c0.018-0.155,0.024-0.31,0.024-0.469c0-1.794-0.936-3.372-2.341-4.268l3.967-0.313C21.632,16.231,22.013,17.616,22.013,19.117z"/>
		<linearGradient id="SVGID_5_" gradientUnits="userSpaceOnUse" x1="0.459" y1="29.1582" x2="20.9375" y2="29.1582">
			<stop  offset="0" style="stop-color:#EF8425"/>
			<stop  offset="0.4824" style="stop-color:#D7682B"/>
			<stop  offset="1" style="stop-color:#DB4D34"/>
		</linearGradient>
		<path fill="url(#SVGID_5_)" d="M20.938,24.266c-0.189,0.386-0.409,0.786-0.674,1.199v0.003
			c-5.329,7.505-13.129,8.583-17.165,8.583c-1.626,0-2.64-0.176-2.64-0.176l0.364-5.945c0.003,0,0.007,0.004,0.014,0.004
			c0.011,0.008,0.027,0.018,0.055,0.027c0.014,0.008,0.034,0.014,0.056,0.025c0.021,0.01,0.044,0.016,0.072,0.029
			c0.048,0.021,0.106,0.045,0.172,0.072c0.003,0,0.007,0,0.014,0.004c0.034,0.014,0.068,0.027,0.103,0.041
			c0.034,0.016,0.072,0.031,0.113,0.045C3.962,29.182,14.027,32.408,20.938,24.266z"/>
		<linearGradient id="SVGID_6_" gradientUnits="userSpaceOnUse" x1="14.2686" y1="36.0205" x2="26.4609" y2="36.0205">
			<stop  offset="0" style="stop-color:#EF8425"/>
			<stop  offset="0.4824" style="stop-color:#D7682B"/>
			<stop  offset="1" style="stop-color:#DB4D34"/>
		</linearGradient>
		<path fill="url(#SVGID_6_)" d="M14.269,33.912l7.745,9.654c0,0,2.538-0.389,3.12-0.941c0.9-0.855,1.327-2.824,1.327-2.824
			l-5.228-5.889c0,0-1.615-1.863-0.869-5.438C20.364,28.475,18.342,31.82,14.269,33.912z"/>
		<linearGradient id="SVGID_7_" gradientUnits="userSpaceOnUse" x1="5.1406" y1="39.4678" x2="11.5938" y2="39.4678">
			<stop  offset="0" style="stop-color:#EF8425"/>
			<stop  offset="0.4824" style="stop-color:#D7682B"/>
			<stop  offset="1" style="stop-color:#DB4D34"/>
		</linearGradient>
		<path fill="url(#SVGID_7_)" d="M5.835,35.303c0,0,0.423,0.973-0.083,4.166l-0.611,3.938c0,0,1.215,1.137,3.227,1.207
			c1.062,0.037,2.287-0.557,3.227-1.207c0,0-1.448-7.529-0.572-9.086C11.021,34.32,9.203,35.238,5.835,35.303z"/>
		<linearGradient id="SVGID_8_" gradientUnits="userSpaceOnUse" x1="10.9014" y1="22.7363" x2="16.4941" y2="22.7363">
			<stop  offset="0" style="stop-color:#EF8425"/>
			<stop  offset="0.4824" style="stop-color:#D7682B"/>
			<stop  offset="1" style="stop-color:#DB4D34"/>
		</linearGradient>
		<path fill="url(#SVGID_8_)" d="M16.494,21.251v2.559c-0.371,0.399-0.739,0.737-1.063,1.009v-2.235h0.863l-0.722-0.819
			l-1.605-1.671l-1.712,1.712v4.715c-0.454,0.151-0.908,0.271-1.354,0.368v-5.638c0-1.475,1.196-2.669,2.667-2.669h0.262
			C15.302,18.583,16.494,19.777,16.494,21.251z"/>
		<linearGradient id="SVGID_9_" gradientUnits="userSpaceOnUse" x1="5.4326" y1="37.9189" x2="11.0215" y2="37.9189">
			<stop  offset="0" style="stop-color:#E84725"/>
			<stop  offset="0.4824" style="stop-color:#D5502A"/>
			<stop  offset="1" style="stop-color:#912E17"/>
		</linearGradient>
		<path fill="url(#SVGID_9_)" d="M10.974,34.346c-0.306,0.141-2.09,0.898-5.139,0.957c0,0,0.423,0.971-0.083,4.164l-0.206,1.338
			l-0.113,0.713c1.873-1.951,4.132-4.455,5.366-6.381c0.044-0.344,0.116-0.627,0.223-0.816
			C11.021,34.32,11.005,34.328,10.974,34.346z"/>
		<linearGradient id="SVGID_10_" gradientUnits="userSpaceOnUse" x1="14.2041" y1="30.0625" x2="22.5393" y2="34.5365">
			<stop  offset="0" style="stop-color:#E84725"/>
			<stop  offset="0.4824" style="stop-color:#D5502A"/>
			<stop  offset="1" style="stop-color:#912E17"/>
		</linearGradient>
		<path fill="url(#SVGID_10_)" d="M26.349,39.652c-6.198-1.209-9.361-2.939-10.97-4.381l-1.11-1.385
			c4.073-2.092,6.095-5.436,6.095-5.436c-0.746,3.572,0.87,5.436,0.87,5.436L26.349,39.652z"/>
		<g>
			<path fill="#111820" d="M43.181,40.6h-2.816l-5.174-6.488h-2.477V40.6h-2.17v-16.32h4.209c0.935,0,1.719,0.052,2.351,0.153
				c0.633,0.103,1.233,0.341,1.803,0.713c0.57,0.365,1.021,0.837,1.354,1.413c0.332,0.578,0.499,1.293,0.499,2.148
				c0,1.197-0.303,2.199-0.91,3.002c-0.606,0.805-1.432,1.4-2.477,1.787L43.181,40.6z M38.489,28.871
				c0-0.475-0.083-0.896-0.251-1.266c-0.169-0.368-0.428-0.67-0.778-0.903c-0.308-0.204-0.666-0.349-1.074-0.434
				c-0.409-0.083-0.917-0.125-1.523-0.125h-0.937c-0.67,0-1.212,0.542-1.212,1.212v3.953c0,0.549,0.445,0.994,0.994,0.994h0.913
				c0.621,0,1.18-0.055,1.677-0.166c0.496-0.109,0.92-0.336,1.271-0.678c0.314-0.309,0.546-0.674,0.696-1.098
				S38.489,29.441,38.489,28.871z"/>
			<path fill="#111820" d="M52.213,39.295c-0.168,0.125-0.391,0.297-0.674,0.52c-0.279,0.223-0.553,0.4-0.814,0.531
				c-0.367,0.191-0.719,0.336-1.059,0.439c-0.34,0.102-0.818,0.152-1.433,0.152c-0.504,0-0.982-0.094-1.436-0.283
				c-0.453-0.191-0.852-0.457-1.194-0.801c-0.328-0.336-0.592-0.75-0.789-1.244s-0.297-1.014-0.297-1.563
				c0-0.848,0.18-1.568,0.538-2.164s0.924-1.068,1.698-1.42c0.688-0.313,1.498-0.531,2.436-0.65c0.934-0.121,1.943-0.211,3.023-0.27
				v-0.395c0-0.482-0.072-0.871-0.217-1.166c-0.148-0.297-0.352-0.525-0.615-0.686c-0.262-0.168-0.584-0.279-0.965-0.336
				c-0.379-0.053-0.77-0.082-1.172-0.082c-0.477,0-1.035,0.072-1.679,0.215s-1.286,0.35-1.929,0.619h-0.121v-2.094
				c0.381-0.109,0.924-0.23,1.633-0.361c0.709-0.133,1.41-0.197,2.107-0.197c0.838,0,1.547,0.064,2.125,0.197
				c0.578,0.131,1.098,0.369,1.557,0.711c0.445,0.338,0.779,0.771,0.998,1.305c0.219,0.535,0.328,1.186,0.328,1.951V40.6h-2.051
				V39.295z M52.213,36.729V35.35c0-0.627-0.539-1.113-1.16-1.053c-0.219,0.021-0.451,0.045-0.697,0.07
				c-0.748,0.078-1.354,0.186-1.814,0.324c-0.548,0.168-1.001,0.426-1.359,0.773c-0.358,0.346-0.536,0.83-0.536,1.451
				c0,0.701,0.197,1.232,0.592,1.59c0.394,0.357,0.972,0.537,1.732,0.537c0.651,0,1.239-0.141,1.765-0.422
				c0.252-0.135,0.496-0.285,0.732-0.447C51.938,37.846,52.213,37.301,52.213,36.729z"/>
			<g>
				<rect x="57.201" y="28.357" fill="#111820" width="2.061" height="12.242"/>
			</g>
			<path fill="#DB4D34" d="M71.801,40.6H69.27l-2.197-3.422c-0.365-0.566-1.191-0.572-1.563-0.01L63.24,40.6h-2.334l4.252-6.072
				l-4.207-6.17h2.529L65.826,32c0.285,0.441,0.93,0.445,1.219,0.008l2.41-3.65h2.346l-4.23,6.027L71.801,40.6z"/>
			<path fill="#DB4D34" d="M82.936,40.6h-2.059V39.24c-0.637,0.555-1.24,0.977-1.809,1.266c-0.57,0.287-1.205,0.432-1.908,0.432
				c-0.533,0-1.035-0.086-1.508-0.262c-0.471-0.176-0.881-0.453-1.232-0.832c-0.352-0.381-0.623-0.859-0.816-1.438
				c-0.193-0.576-0.291-1.277-0.291-2.104v-7.945h2.061v6.969c0,0.65,0.023,1.189,0.072,1.617c0.047,0.428,0.154,0.803,0.322,1.123
				c0.168,0.314,0.396,0.545,0.686,0.691s0.703,0.219,1.244,0.219c0.504,0,1.041-0.143,1.611-0.428
				c0.037-0.018,0.072-0.037,0.109-0.055c0.914-0.477,1.459-1.453,1.459-2.482v-7.654h2.059V40.6z"/>
			<path fill="#DB4D34" d="M95.541,40.6H93.48v-6.973c0-0.561-0.027-1.086-0.082-1.572c-0.055-0.484-0.16-0.875-0.313-1.166
				c-0.168-0.307-0.402-0.537-0.701-0.686c-0.299-0.15-0.709-0.225-1.229-0.225c-0.51,0-1.039,0.137-1.584,0.41
				c-0.006,0.004-0.01,0.006-0.016,0.008c-0.996,0.506-1.578,1.576-1.578,2.691V40.6h-2.061V28.357h2.061v1.357
				c0.615-0.549,1.221-0.969,1.822-1.26c0.549-0.268,1.52-0.461,2.131-0.434c1.094,0.049,1.957,0.445,2.59,1.184
				c0.68,0.793,1.02,1.941,1.02,3.447V40.6z"/>
		</g>
		<linearGradient id="SVGID_11_" gradientUnits="userSpaceOnUse" x1="56.1484" y1="25.332" x2="60.0625" y2="25.332">
			<stop  offset="0" style="stop-color:#EF8425"/>
			<stop  offset="0.4824" style="stop-color:#D7682B"/>
			<stop  offset="1" style="stop-color:#DB4D34"/>
		</linearGradient>
		<circle fill="url(#SVGID_11_)" cx="58.105" cy="25.331" r="1.957"/>
	</g>
</g>
</svg>
