<?xml version="1.0" encoding="utf-8"?>
<!-- Generator: Adobe Illustrator 25.0.1, SVG Export Plug-In . SVG Version: 6.00 Build 0)  -->
<svg version="1.1" id="圖層_1" xmlns="http://www.w3.org/2000/svg" xmlns:xlink="http://www.w3.org/1999/xlink" x="0px" y="0px"
	 viewBox="0 0 152 65.2" style="enable-background:new 0 0 152 65.2;" xml:space="preserve">
<style type="text/css">
	.st0{fill:#FFFFFF;}
	.st1{opacity:0.5;}
	.st2{fill:#E06C58;}
</style>
<g>
	<path class="st0" d="M17.3,5.1h9.6c0.6,0,1.1,0.1,1.5,0.4c0.3,0.2,0.5,0.6,0.5,1.1c0,0.1,0,0.3,0,0.5c0,0.2-0.1,0.4-0.1,0.6
		l-8.3,35.4h12.1c1,0,1.7-0.2,2.2-0.5c0.5-0.3,0.8-0.9,1.1-1.7h1.1l-1.1,5.8c-0.2,1.3-0.7,2.2-1.3,2.7c-0.7,0.5-1.7,0.8-3.1,0.8
		H12.3c-0.7,0-1.2-0.2-1.6-0.6c-0.4-0.4-0.6-0.9-0.6-1.4c0-0.1,0-0.3,0-0.5c0-0.2,0.1-0.5,0.2-0.8L19.1,9c0.1-0.2,0.1-0.4,0.1-0.5
		c0-0.1,0-0.2,0-0.3c0-0.5-0.2-0.9-0.6-1.3c-0.4-0.4-0.9-0.6-1.6-0.7L17.3,5.1z"/>
	<path class="st0" d="M39.9,41.6c0-0.6,0.1-1.4,0.3-2.6s0.4-2.6,0.8-4.4c0.8-3.6,1.6-6.8,2.4-9.5c0.9-2.7,1.7-4.6,2.4-5.6
		c1.5-2.1,3.3-3.6,5.2-4.5c1.9-0.9,4.5-1.3,7.9-1.3c4.4,0,7.9,0.8,10.3,2.3c2.4,1.5,3.7,3.7,3.7,6.4c0,1.2-0.1,2.6-0.3,4
		c-0.2,1.5-0.7,3.5-1.3,6.2l0,0.1c-1.2,5-2.2,8.5-3.2,10.5c-1.3,2.7-3,4.6-5.1,5.7c-2.1,1.1-5.3,1.7-9.6,1.7c-4.2,0-7.5-0.8-9.9-2.4
		C41.1,46.6,39.9,44.4,39.9,41.6z M63.6,25.1c0-1.5-0.4-2.6-1.3-3.4c-0.8-0.8-2-1.2-3.6-1.2c-1.6,0-2.9,0.4-3.9,1.3
		c-1,0.9-1.8,2.4-2.5,4.5c-0.9,2.8-1.6,5.4-2.1,7.9c-0.5,2.5-0.8,4.2-0.8,5c0,1.5,0.4,2.7,1.3,3.5c0.9,0.8,2.1,1.3,3.7,1.3
		c1.5,0,2.8-0.4,3.7-1.3c1-0.9,1.8-2.4,2.5-4.5c0.9-2.8,1.6-5.4,2.1-7.9C63.3,27.8,63.6,26.1,63.6,25.1z"/>
	<path class="st0" d="M93.6,14.1h9.9c1.6,0,2.8,0.2,3.6,0.7c0.8,0.5,1.1,1.3,1.1,2.4c0,0.4,0,0.9-0.1,1.3c-0.1,0.5-0.2,0.9-0.3,1.4
		l-6.9,29.7c-0.5,2.1-1.1,3.8-1.9,5.2c-0.8,1.3-1.7,2.4-2.8,3.2c-1,0.7-2.6,1.2-4.7,1.5c-2.1,0.3-5.5,0.5-10.3,0.5
		c-3.4,0-5.7-0.3-6.9-0.9c-1.2-0.6-1.9-1.7-1.9-3.2c0-0.6,0.1-1.3,0.3-2.2c0.2-0.9,0.5-2,0.8-3.2h1.1c0.2,1,0.8,1.7,1.8,2.1
		c1,0.4,2.9,0.6,5.6,0.6c3.9,0,6.4-0.3,7.5-0.9c1.1-0.6,1.9-1.6,2.3-3.1l1.4-4.9l-2.7,2.8c-0.5,0.6-1.1,0.9-1.8,1.2
		c-0.7,0.2-1.9,0.3-3.7,0.3h-0.7c-3.5,0-5.9-0.6-7.3-1.7s-2.1-3-2.1-5.7c0-1.1,0.1-2.4,0.4-4c0.2-1.5,0.6-3.4,1.1-5.5
		c0.5-2,1-3.8,1.5-5.5c0.5-1.7,1-3.1,1.5-4.4c1.1-2.6,2.7-4.6,5-5.9C87,14.8,89.9,14.1,93.6,14.1z M99.1,20.7c-0.1,0-0.2,0-0.3,0
		c-1.3-0.1-2.2-0.1-2.7-0.1c-2.4,0-4.2,0.3-5.5,0.9s-2.2,1.6-2.7,2.9c-0.4,0.9-0.8,2-1.2,3.4c-0.4,1.4-0.8,2.9-1.2,4.5
		c-0.3,1.4-0.6,2.6-0.7,3.6c-0.2,1-0.3,1.8-0.3,2.3c0,1.2,0.4,2.1,1.2,2.7c0.8,0.6,2.1,0.9,3.7,0.9c1.7,0,3-0.5,3.9-1.4
		c0.9-0.9,1.6-2.5,2.2-4.8L99.1,20.7z"/>
	<path class="st0" d="M110,41.6c0-0.6,0.1-1.4,0.3-2.6c0.2-1.2,0.4-2.6,0.8-4.4c0.8-3.6,1.6-6.8,2.4-9.5c0.9-2.7,1.7-4.6,2.4-5.6
		c1.5-2.1,3.3-3.6,5.2-4.5s4.5-1.3,7.9-1.3c4.4,0,7.9,0.8,10.3,2.3c2.4,1.5,3.7,3.7,3.7,6.4c0,1.2-0.1,2.6-0.3,4
		c-0.2,1.5-0.6,3.5-1.3,6.2l0,0.1c-1.2,5-2.2,8.5-3.2,10.5c-1.3,2.7-3,4.6-5.1,5.7c-2.1,1.1-5.3,1.7-9.6,1.7c-4.2,0-7.5-0.8-9.9-2.4
		C111.2,46.6,110,44.4,110,41.6z M133.7,25.1c0-1.5-0.4-2.6-1.3-3.4c-0.8-0.8-2-1.2-3.6-1.2c-1.6,0-2.9,0.4-3.9,1.3
		s-1.8,2.4-2.5,4.5c-0.9,2.8-1.6,5.4-2.1,7.9c-0.5,2.5-0.8,4.2-0.8,5c0,1.5,0.4,2.7,1.3,3.5c0.9,0.8,2.1,1.3,3.7,1.3
		c1.5,0,2.8-0.4,3.7-1.3c1-0.9,1.8-2.4,2.5-4.5c0.9-2.8,1.6-5.4,2.1-7.9C133.4,27.8,133.7,26.1,133.7,25.1z"/>
</g>
<g class="st1">
	<path class="st2" d="M17.3,5.1h9.6c0.6,0,1.1,0.1,1.5,0.4c0.3,0.2,0.5,0.6,0.5,1.1c0,0.1,0,0.3,0,0.5c0,0.2-0.1,0.4-0.1,0.6
		l-8.3,35.4h12.1c1,0,1.7-0.2,2.2-0.5c0.5-0.3,0.8-0.9,1.1-1.7h1.1l-1.1,5.8c-0.2,1.3-0.7,2.2-1.3,2.7c-0.7,0.5-1.7,0.8-3.1,0.8
		H12.3c-0.7,0-1.2-0.2-1.6-0.6c-0.4-0.4-0.6-0.9-0.6-1.4c0-0.1,0-0.3,0-0.5c0-0.2,0.1-0.5,0.2-0.8L19.1,9c0.1-0.2,0.1-0.4,0.1-0.5
		c0-0.1,0-0.2,0-0.3c0-0.5-0.2-0.9-0.6-1.3c-0.4-0.4-0.9-0.6-1.6-0.7L17.3,5.1z"/>
	<path class="st2" d="M39.9,41.6c0-0.6,0.1-1.4,0.3-2.6s0.4-2.6,0.8-4.4c0.8-3.6,1.6-6.8,2.4-9.5c0.9-2.7,1.7-4.6,2.4-5.6
		c1.5-2.1,3.3-3.6,5.2-4.5c1.9-0.9,4.5-1.3,7.9-1.3c4.4,0,7.9,0.8,10.3,2.3c2.4,1.5,3.7,3.7,3.7,6.4c0,1.2-0.1,2.6-0.3,4
		c-0.2,1.5-0.7,3.5-1.3,6.2l0,0.1c-1.2,5-2.2,8.5-3.2,10.5c-1.3,2.7-3,4.6-5.1,5.7c-2.1,1.1-5.3,1.7-9.6,1.7c-4.2,0-7.5-0.8-9.9-2.4
		C41.1,46.6,39.9,44.4,39.9,41.6z M63.6,25.1c0-1.5-0.4-2.6-1.3-3.4c-0.8-0.8-2-1.2-3.6-1.2c-1.6,0-2.9,0.4-3.9,1.3
		c-1,0.9-1.8,2.4-2.5,4.5c-0.9,2.8-1.6,5.4-2.1,7.9c-0.5,2.5-0.8,4.2-0.8,5c0,1.5,0.4,2.7,1.3,3.5c0.9,0.8,2.1,1.3,3.7,1.3
		c1.5,0,2.8-0.4,3.7-1.3c1-0.9,1.8-2.4,2.5-4.5c0.9-2.8,1.6-5.4,2.1-7.9C63.3,27.8,63.6,26.1,63.6,25.1z"/>
	<path class="st2" d="M93.6,14.1h9.9c1.6,0,2.8,0.2,3.6,0.7c0.8,0.5,1.1,1.3,1.1,2.4c0,0.4,0,0.9-0.1,1.3c-0.1,0.5-0.2,0.9-0.3,1.4
		l-6.9,29.7c-0.5,2.1-1.1,3.8-1.9,5.2c-0.8,1.3-1.7,2.4-2.8,3.2c-1,0.7-2.6,1.2-4.7,1.5c-2.1,0.3-5.5,0.5-10.3,0.5
		c-3.4,0-5.7-0.3-6.9-0.9c-1.2-0.6-1.9-1.7-1.9-3.2c0-0.6,0.1-1.3,0.3-2.2c0.2-0.9,0.5-2,0.8-3.2h1.1c0.2,1,0.8,1.7,1.8,2.1
		c1,0.4,2.9,0.6,5.6,0.6c3.9,0,6.4-0.3,7.5-0.9c1.1-0.6,1.9-1.6,2.3-3.1l1.4-4.9l-2.7,2.8c-0.5,0.6-1.1,0.9-1.8,1.2
		c-0.7,0.2-1.9,0.3-3.7,0.3h-0.7c-3.5,0-5.9-0.6-7.3-1.7s-2.1-3-2.1-5.7c0-1.1,0.1-2.4,0.4-4c0.2-1.5,0.6-3.4,1.1-5.5
		c0.5-2,1-3.8,1.5-5.5c0.5-1.7,1-3.1,1.5-4.4c1.1-2.6,2.7-4.6,5-5.9C87,14.8,89.9,14.1,93.6,14.1z M99.1,20.7c-0.1,0-0.2,0-0.3,0
		c-1.3-0.1-2.2-0.1-2.7-0.1c-2.4,0-4.2,0.3-5.5,0.9s-2.2,1.6-2.7,2.9c-0.4,0.9-0.8,2-1.2,3.4c-0.4,1.4-0.8,2.9-1.2,4.5
		c-0.3,1.4-0.6,2.6-0.7,3.6c-0.2,1-0.3,1.8-0.3,2.3c0,1.2,0.4,2.1,1.2,2.7c0.8,0.6,2.1,0.9,3.7,0.9c1.7,0,3-0.5,3.9-1.4
		c0.9-0.9,1.6-2.5,2.2-4.8L99.1,20.7z"/>
	<path class="st2" d="M110,41.6c0-0.6,0.1-1.4,0.3-2.6c0.2-1.2,0.4-2.6,0.8-4.4c0.8-3.6,1.6-6.8,2.4-9.5c0.9-2.7,1.7-4.6,2.4-5.6
		c1.5-2.1,3.3-3.6,5.2-4.5s4.5-1.3,7.9-1.3c4.4,0,7.9,0.8,10.3,2.3c2.4,1.5,3.7,3.7,3.7,6.4c0,1.2-0.1,2.6-0.3,4
		c-0.2,1.5-0.6,3.5-1.3,6.2l0,0.1c-1.2,5-2.2,8.5-3.2,10.5c-1.3,2.7-3,4.6-5.1,5.7c-2.1,1.1-5.3,1.7-9.6,1.7c-4.2,0-7.5-0.8-9.9-2.4
		C111.2,46.6,110,44.4,110,41.6z M133.7,25.1c0-1.5-0.4-2.6-1.3-3.4c-0.8-0.8-2-1.2-3.6-1.2c-1.6,0-2.9,0.4-3.9,1.3
		s-1.8,2.4-2.5,4.5c-0.9,2.8-1.6,5.4-2.1,7.9c-0.5,2.5-0.8,4.2-0.8,5c0,1.5,0.4,2.7,1.3,3.5c0.9,0.8,2.1,1.3,3.7,1.3
		c1.5,0,2.8-0.4,3.7-1.3c1-0.9,1.8-2.4,2.5-4.5c0.9-2.8,1.6-5.4,2.1-7.9C133.4,27.8,133.7,26.1,133.7,25.1z"/>
</g>
</svg>
