<?xml version="1.0" encoding="utf-8"?>
<!-- Generator: Adobe Illustrator 16.0.0, SVG Export Plug-In . SVG Version: 6.00 Build 0)  -->
<!DOCTYPE svg PUBLIC "-//W3C//DTD SVG 1.1//EN" "http://www.w3.org/Graphics/SVG/1.1/DTD/svg11.dtd">
<svg version="1.1" id="圖層_1" xmlns="http://www.w3.org/2000/svg" xmlns:xlink="http://www.w3.org/1999/xlink" x="0px" y="0px"
	 width="377px" height="65.197px" viewBox="0 43.5 377 65.197" enable-background="new 0 43.5 377 65.197" xml:space="preserve">
<g>
	<path fill="#DB4D34" d="M17.321,48.616h9.604c0.65,0,1.139,0.122,1.464,0.365c0.325,0.244,0.488,0.6,0.488,1.064
		c0,0.147-0.015,0.316-0.046,0.508c-0.03,0.189-0.076,0.381-0.137,0.572L20.43,86.551h12.074c0.977,0,1.702-0.159,2.181-0.477
		c0.478-0.317,0.849-0.879,1.112-1.687h1.128l-1.066,5.782c-0.225,1.271-0.671,2.176-1.342,2.716
		c-0.671,0.54-1.697,0.813-3.08,0.813H12.259c-0.671,0-1.205-0.188-1.601-0.559c-0.396-0.367-0.594-0.851-0.594-1.443
		c0-0.127,0.015-0.284,0.046-0.479c0.029-0.188,0.086-0.455,0.167-0.794l8.78-37.903c0.062-0.232,0.098-0.392,0.107-0.477
		c0.01-0.084,0.015-0.169,0.015-0.254c0-0.509-0.192-0.938-0.578-1.287c-0.388-0.351-0.915-0.577-1.586-0.684L17.321,48.616z"/>
	<path fill="#DB4D34" d="M39.945,85.122c0-0.572,0.086-1.44,0.259-2.605c0.173-1.165,0.432-2.647,0.777-4.448
		c0.752-3.643,1.56-6.809,2.424-9.5c0.864-2.688,1.662-4.554,2.394-5.592c1.545-2.118,3.269-3.611,5.168-4.479
		c1.9-0.868,4.548-1.304,7.943-1.304c4.431,0,7.872,0.769,10.321,2.304c2.448,1.535,3.674,3.681,3.674,6.434
		c0,1.229-0.112,2.573-0.335,4.035c-0.225,1.461-0.651,3.538-1.281,6.229l-0.029,0.063c-1.158,4.999-2.216,8.494-3.171,10.484
		c-1.279,2.711-2.982,4.623-5.106,5.731c-2.125,1.112-5.332,1.668-9.62,1.668c-4.229,0-7.521-0.799-9.879-2.396
		C41.124,90.148,39.945,87.939,39.945,85.122z M63.607,68.568c0-1.461-0.422-2.594-1.267-3.398
		c-0.844-0.806-2.048-1.208-3.612-1.208c-1.606,0-2.896,0.439-3.872,1.318c-0.977,0.879-1.811,2.389-2.5,4.527
		c-0.874,2.753-1.581,5.386-2.119,7.896c-0.538,2.512-0.809,4.18-0.809,5.006c0,1.505,0.447,2.68,1.343,3.525
		c0.895,0.849,2.134,1.271,3.72,1.271c1.524,0,2.765-0.445,3.72-1.335c0.955-0.892,1.778-2.394,2.47-4.513
		c0.874-2.795,1.58-5.422,2.119-7.879C63.337,71.322,63.607,69.586,63.607,68.568z"/>
	<path fill="#DB4D34" d="M93.64,57.64h9.94c1.646,0,2.845,0.244,3.598,0.729c0.752,0.488,1.128,1.271,1.128,2.352
		c0,0.424-0.03,0.864-0.092,1.319c-0.061,0.455-0.151,0.927-0.273,1.413l-6.86,29.675c-0.508,2.098-1.139,3.817-1.891,5.163
		c-0.752,1.345-1.688,2.42-2.806,3.225c-1.017,0.721-2.582,1.234-4.694,1.541c-2.115,0.307-5.54,0.461-10.276,0.461
		c-3.354,0-5.651-0.302-6.891-0.904c-1.24-0.604-1.86-1.668-1.86-3.191c0-0.596,0.097-1.34,0.29-2.24
		c0.193-0.898,0.473-1.953,0.838-3.16h1.067c0.203,0.995,0.813,1.688,1.829,2.08c1.016,0.395,2.876,0.59,5.579,0.59
		c3.883,0,6.384-0.291,7.501-0.873c1.118-0.582,1.891-1.615,2.317-3.101l1.433-4.924l-2.683,2.794
		c-0.508,0.551-1.113,0.938-1.813,1.159c-0.702,0.223-1.947,0.334-3.735,0.334h-0.702c-3.497,0-5.931-0.552-7.303-1.652
		s-2.059-2.985-2.059-5.655c0-1.121,0.117-2.438,0.352-3.955c0.232-1.515,0.615-3.36,1.144-5.543
		c0.488-1.992,0.986-3.833,1.494-5.53c0.508-1.693,1.006-3.146,1.494-4.353c1.077-2.647,2.744-4.601,5-5.862
		C86.963,58.27,89.941,57.64,93.64,57.64z M99.129,64.152c-0.081,0-0.192,0-0.335,0c-1.261-0.084-2.165-0.127-2.714-0.127
		c-2.378,0-4.213,0.297-5.504,0.89s-2.18,1.557-2.668,2.892c-0.366,0.89-0.752,2.028-1.159,3.415
		c-0.407,1.388-0.792,2.896-1.158,4.527c-0.326,1.397-0.575,2.61-0.747,3.638c-0.173,1.028-0.259,1.807-0.259,2.336
		c0,1.207,0.417,2.118,1.25,2.732c0.833,0.613,2.063,0.921,3.689,0.921c1.708,0,3.008-0.455,3.902-1.366
		c0.896-0.91,1.616-2.499,2.165-4.766L99.129,64.152z"/>
	<path fill="#DB4D34" d="M110.014,85.122c0-0.572,0.086-1.44,0.26-2.605c0.173-1.165,0.432-2.647,0.776-4.448
		c0.752-3.643,1.561-6.809,2.424-9.5c0.864-2.688,1.662-4.554,2.395-5.592c1.545-2.118,3.268-3.611,5.168-4.479
		c1.9-0.868,4.548-1.304,7.943-1.304c4.431,0,7.872,0.769,10.32,2.304c2.449,1.535,3.674,3.681,3.674,6.434
		c0,1.229-0.111,2.573-0.335,4.035c-0.224,1.461-0.65,3.538-1.28,6.229l-0.03,0.063c-1.159,4.999-2.216,8.494-3.171,10.484
		c-1.28,2.711-2.983,4.623-5.107,5.731c-2.125,1.112-5.332,1.668-9.62,1.668c-4.228,0-7.521-0.799-9.879-2.396
		C111.193,90.148,110.014,87.939,110.014,85.122z M133.675,68.568c0-1.461-0.422-2.594-1.266-3.398
		c-0.844-0.806-2.048-1.208-3.613-1.208c-1.605,0-2.896,0.439-3.872,1.318s-1.81,2.389-2.5,4.527
		c-0.874,2.753-1.581,5.386-2.119,7.896c-0.538,2.512-0.808,4.18-0.808,5.006c0,1.505,0.447,2.68,1.342,3.525
		c0.896,0.849,2.134,1.271,3.721,1.271c1.524,0,2.765-0.445,3.72-1.335c0.955-0.892,1.777-2.394,2.47-4.513
		c0.874-2.795,1.58-5.422,2.119-7.879C133.405,71.322,133.675,69.586,133.675,68.568z"/>
	<path fill="#DB4D34" d="M180.571,48.616h12.806l-0.945,4.64c-0.184,0.889-0.518,1.552-1.006,1.984
		c-0.484,0.436-1.146,0.651-1.98,0.651h-7.195c-1.565,0-2.815,0.53-3.75,1.589c-0.935,1.06-1.402,2.457-1.402,4.194
		c0,0.657,0.219,1.239,0.656,1.747s1.194,1.038,2.271,1.589l6.495,3.241c1.769,0.868,3.063,1.997,3.888,3.383
		c0.822,1.388,1.234,3.13,1.234,5.227c0,5.359-1.271,9.506-3.814,12.438c-2.542,2.935-6.149,4.399-10.824,4.399h-9.117
		c-2.337,0-3.896-0.188-4.68-0.558c-0.782-0.368-1.174-1.03-1.174-1.983c0-0.19,0.03-0.508,0.091-0.953
		c0.021-0.105,0.031-0.18,0.031-0.223l1.311-5.849h1.099c0.082,0.953,0.351,1.626,0.808,2.021c0.457,0.393,1.255,0.588,2.395,0.588
		h7.317c2.296,0,4.162-0.746,5.595-2.24c1.434-1.493,2.15-3.415,2.15-5.768c0-0.891-0.224-1.638-0.671-2.238
		c-0.447-0.604-1.179-1.139-2.195-1.604l-7.501-3.432c-1.463-0.699-2.525-1.63-3.186-2.796c-0.661-1.165-0.991-2.712-0.991-4.639
		c0-4.787,1.092-8.552,3.278-11.295C173.746,49.987,176.749,48.616,180.571,48.616z"/>
	<path fill="#DB4D34" d="M204.049,57.672l15.486-0.032c2.439,0,4.279,0.519,5.521,1.557c1.24,1.038,1.859,2.563,1.859,4.575
		c0,0.424-0.029,0.869-0.094,1.334c-0.063,0.466-0.191,1.123-0.396,1.97l-4.816,21.161c-0.041,0.189-0.092,0.437-0.15,0.729
		c-0.186,0.763-0.273,1.324-0.273,1.685c0,0.508,0.156,0.912,0.473,1.207c0.314,0.297,0.799,0.498,1.449,0.604l-0.307,1.239h-7.865
		c-1.059,0-1.82-0.176-2.287-0.524c-0.469-0.349-0.701-0.916-0.701-1.699c0-0.274,0.035-0.625,0.105-1.049s0.197-1.017,0.383-1.778
		c-0.244,0.338-0.58,0.814-1.008,1.432c-1.383,2.013-2.299,3.154-2.742,3.432c-0.367,0.211-0.986,0.359-1.861,0.444
		c-0.873,0.085-2.146,0.127-3.813,0.127c-2.824,0-4.938-0.698-6.342-2.099c-1.4-1.396-2.104-3.496-2.104-6.291
		c0-4.744,1.07-8.588,3.217-11.534c2.145-2.943,4.943-4.416,8.4-4.416h7.926c1.24,0,2.125-0.265,2.652-0.794
		c0.527-0.528,0.793-1.387,0.793-2.572c0-0.764-0.191-1.313-0.578-1.652c-0.389-0.338-1.027-0.508-1.924-0.508h-8.564
		c-1.1,0-1.871-0.196-2.318-0.588c-0.445-0.393-0.67-1.085-0.67-2.081c0-0.614,0.045-1.244,0.137-1.891
		C203.73,59.014,203.865,58.35,204.049,57.672z M209.934,75.494c-2.033,0-3.625,0.695-4.771,2.082
		c-1.15,1.388-1.725,3.287-1.725,5.703c0,1.418,0.377,2.394,1.129,2.922c0.752,0.529,2.227,0.795,4.422,0.795
		c0.771,0,1.469-0.021,2.088-0.063c0.621-0.042,1.193-0.104,1.723-0.19l2.688-11.244h-5.551L209.934,75.494L209.934,75.494z"/>
	<path fill="#DB4D34" d="M262.531,62.151c1.016-1.673,2.307-2.896,3.871-3.67c1.564-0.772,3.518-1.16,5.854-1.16
		c2.768,0,4.896,0.515,6.391,1.541c1.494,1.028,2.238,2.494,2.238,4.4c0,0.508-0.033,1.038-0.104,1.588
		c-0.07,0.551-0.178,1.112-0.318,1.684l-5.52,22.813c-0.021,0.127-0.053,0.297-0.094,0.509c-0.104,0.467-0.15,0.772-0.15,0.922
		c0,0.528,0.188,0.941,0.563,1.238s0.898,0.444,1.57,0.444l-0.336,1.239h-8.354c-0.73,0-1.303-0.183-1.707-0.541
		c-0.406-0.359-0.609-0.879-0.609-1.559c0-0.273,0.012-0.49,0.031-0.648c0.02-0.159,0.051-0.323,0.092-0.492l5.063-21.225
		c0.184-0.805,0.311-1.409,0.381-1.811c0.07-0.402,0.117-0.709,0.139-0.921c0-0.806-0.32-1.451-0.961-1.938
		c-0.643-0.487-1.488-0.73-2.545-0.73c-1.912,0-3.434,0.466-4.561,1.397c-1.129,0.933-1.945,2.395-2.455,4.384l-4.85,19.699
		c-0.02,0.127-0.061,0.317-0.121,0.571c-0.08,0.424-0.121,0.722-0.121,0.89c0,0.529,0.178,0.942,0.533,1.239
		c0.354,0.297,0.838,0.444,1.447,0.444l-0.244,1.238h-8.23c-0.771,0-1.361-0.182-1.77-0.539c-0.406-0.36-0.609-0.879-0.609-1.56
		c0-0.17,0.018-0.35,0.045-0.54c0.031-0.189,0.076-0.4,0.141-0.636l5-21.191c0.143-0.593,0.248-1.101,0.318-1.524
		s0.105-0.783,0.105-1.08c0-0.868-0.33-1.552-0.99-2.05c-0.66-0.496-1.561-0.746-2.697-0.746c-1.789,0-3.254,0.497-4.393,1.492
		c-1.139,0.996-1.939,2.489-2.408,4.48l-4.543,19.507c-0.082,0.36-0.139,0.657-0.168,0.893c-0.029,0.23-0.047,0.424-0.047,0.572
		c0,0.526,0.186,0.939,0.551,1.236s0.873,0.444,1.523,0.444l-0.244,1.237h-8.689c-0.67,0-1.191-0.193-1.568-0.588
		c-0.375-0.393-0.564-0.938-0.564-1.637c0-0.105,0.018-0.238,0.047-0.396c0.029-0.157,0.066-0.344,0.107-0.557l6.494-28.626
		c0-0.063,0.01-0.127,0.027-0.19c0.063-0.317,0.094-0.541,0.094-0.667c0-0.593-0.189-1.074-0.564-1.444s-0.896-0.609-1.57-0.715
		l0.244-1.239h9.303c0.566,0,1.006,0.153,1.313,0.46c0.305,0.308,0.457,0.747,0.457,1.318c0,0.17-0.006,0.308-0.018,0.413
		c-0.012,0.106-0.023,0.201-0.045,0.286l-0.52,2.479c1.422-1.99,2.9-3.378,4.438-4.162c1.533-0.784,3.635-1.176,6.297-1.176
		c2.541,0,4.451,0.392,5.73,1.176C261.525,59.216,262.287,60.457,262.531,62.151z"/>
	<path fill="#DB4D34" d="M299.059,93.699h-8.508l-1.129,4.894c-0.08,0.317-0.143,0.608-0.184,0.874s-0.063,0.514-0.063,0.746
		c0,0.613,0.197,1.111,0.596,1.494c0.396,0.381,0.947,0.613,1.66,0.697l-0.184,1.177h-8.504c-0.773,0-1.373-0.196-1.801-0.589
		c-0.428-0.394-0.641-0.947-0.641-1.668c0-0.084,0.012-0.195,0.029-0.332c0.021-0.139,0.063-0.346,0.123-0.62l8.779-38.349
		c0.063-0.296,0.104-0.556,0.139-0.777c0.029-0.223,0.045-0.419,0.045-0.589c0-0.465-0.143-0.836-0.428-1.111
		c-0.283-0.275-0.74-0.498-1.371-0.667l0.305-1.239h8.568c0.688,0,1.193,0.138,1.51,0.413c0.314,0.274,0.475,0.71,0.475,1.303
		c0,0.19-0.012,0.365-0.031,0.524c-0.021,0.159-0.051,0.322-0.09,0.493l-0.367,1.524c1.26-1.736,2.516-2.944,3.766-3.622
		s2.912-1.017,4.986-1.017c3.354,0,5.752,0.583,7.195,1.748c1.439,1.165,2.164,3.082,2.164,5.75c0,1.08-0.133,2.436-0.396,4.066
		c-0.266,1.632-0.711,3.803-1.342,6.514c-0.65,2.712-1.227,4.931-1.723,6.655c-0.5,1.728-0.992,3.162-1.48,4.307
		c-1.035,2.499-2.551,4.357-4.543,5.575C304.629,93.092,302.107,93.699,299.059,93.699z M296.498,86.996
		c1.666,0,3.08-0.338,4.236-1.02c1.158-0.678,1.992-1.641,2.5-2.891c0.469-1.123,1.068-3.223,1.801-6.291
		c0.203-0.807,0.354-1.419,0.457-1.846l0.092-0.379c0.73-3.028,1.1-4.977,1.1-5.846c0-1.377-0.395-2.431-1.176-3.162
		c-0.781-0.729-1.914-1.096-3.398-1.096c-1.646,0-2.938,0.435-3.871,1.303c-0.938,0.869-1.637,2.309-2.104,4.321l-3.994,16.899
		h4.359v0.006H296.498z"/>
	<path fill="#DB4D34" d="M324.609,48.616h8.781c0.834,0,1.438,0.139,1.813,0.413c0.377,0.276,0.564,0.699,0.564,1.271
		c0,0.339-0.021,0.667-0.064,0.984c-0.039,0.318-0.102,0.615-0.184,0.891l-8.75,37.49c-0.041,0.148-0.07,0.292-0.092,0.429
		c-0.021,0.14-0.031,0.345-0.031,0.62c0,0.551,0.164,0.964,0.488,1.238c0.324,0.275,0.822,0.445,1.492,0.509l-0.213,1.239h-8.813
		c-0.672,0-1.188-0.19-1.541-0.572c-0.354-0.381-0.531-0.932-0.531-1.65c0-0.189,0.014-0.414,0.045-0.669
		c0.029-0.254,0.076-0.519,0.137-0.794l8.447-36.601c0.021-0.127,0.063-0.318,0.121-0.572c0.082-0.381,0.121-0.646,0.121-0.794
		c0-0.635-0.162-1.128-0.486-1.479c-0.324-0.349-0.854-0.587-1.586-0.715L324.609,48.616z"/>
	<path fill="#DB4D34" d="M360.926,76.574h-15.396c-0.389,1.548-0.662,2.791-0.824,3.731c-0.162,0.942-0.244,1.681-0.244,2.208
		c0,1.633,0.51,2.775,1.523,3.434c1.018,0.658,2.816,0.982,5.396,0.982c3.559,0,6.049-0.248,7.473-0.746
		c1.422-0.496,2.326-1.351,2.713-2.558h1.188c-0.324,2.159-0.695,3.899-1.111,5.229c-0.416,1.32-0.898,2.271-1.447,2.842
		c-0.834,0.891-1.83,1.521-2.988,1.892c-1.156,0.371-3.223,0.556-6.188,0.556h-0.701c-5.854,0-9.803-0.697-11.846-2.097
		c-2.043-1.397-3.063-3.907-3.063-7.529c0-1.354,0.258-3.347,0.775-5.974c0.52-2.626,1.314-5.974,2.395-10.04
		c0.365-1.376,0.822-2.647,1.373-3.813c0.549-1.165,1.156-2.171,1.828-3.018c1.262-1.546,2.854-2.669,4.771-3.368
		c1.922-0.699,4.467-1.048,7.639-1.048c4.514,0,7.766,0.72,9.758,2.161c1.99,1.44,2.986,3.76,2.986,6.958
		c0,1.186-0.127,2.42-0.381,3.7c-0.254,1.282-0.584,2.41-0.99,3.385c-0.527,1.207-1.123,2.028-1.783,2.462
		C363.115,76.359,362.166,76.574,360.926,76.574z M357.814,71.301c0.285-0.806,0.48-1.466,0.596-1.986
		c0.109-0.519,0.168-0.979,0.168-1.382c0-1.398-0.381-2.431-1.145-3.098s-1.926-1.001-3.492-1.001c-1.828,0-3.281,0.566-4.359,1.699
		c-1.076,1.134-1.971,3.057-2.684,5.768H357.814z"/>
</g>
</svg>
