<?xml version="1.0" encoding="utf-8"?>
<!-- Generator: Adobe Illustrator 16.0.0, SVG Export Plug-In . SVG Version: 6.00 Build 0)  -->
<!DOCTYPE svg PUBLIC "-//W3C//DTD SVG 1.1//EN" "http://www.w3.org/Graphics/SVG/1.1/DTD/svg11.dtd">
<svg version="1.1" xmlns="http://www.w3.org/2000/svg" xmlns:xlink="http://www.w3.org/1999/xlink" x="0px" y="0px" width="50px"
	 height="50px" viewBox="0 0 50 50" enable-background="new 0 0 50 50" xml:space="pBk_Reserve">
<g id="圖層_1">
	<g>
		
			<path fill="none" stroke="#231815" stroke-width="1.5" stroke-linecap="round" stroke-linejoin="round" stroke-miterlimit="10" d="
			M4185.318,4272.494h-31.637c-1.758,0-3.188,1.43-3.188,3.186v31.625c0,1.68,1.309,3.061,2.959,3.177v0.881
			c0,0.628,0.51,1.138,1.139,1.138h3.225c0.628,0,1.138-0.51,1.138-1.138v-0.872h20.751v0.872c0,0.628,0.509,1.138,1.138,1.138
			h3.224c0.629,0,1.139-0.51,1.139-1.138v-0.872h0.113c1.758,0,3.188-1.429,3.188-3.186v-31.625
			C4188.505,4273.924,4187.076,4272.494,4185.318,4272.494z"/>
		
			<path fill="none" stroke="#231815" stroke-width="1.5" stroke-linecap="round" stroke-linejoin="round" stroke-miterlimit="10" d="
			M4185.205,4304.177c0,1.662-1.354,3.014-3.016,3.014h-25.721c-1.662,0-3.016-1.352-3.016-3.014v-25.597
			c0-1.662,1.354-3.014,3.016-3.014h25.721c1.662,0,3.016,1.352,3.016,3.014V4304.177z"/>
		
			<path fill="none" stroke="#231815" stroke-width="1.5" stroke-linecap="round" stroke-linejoin="round" stroke-miterlimit="10" d="
			M4162.909,4296.327c-2.698,0-4.894-2.194-4.894-4.892s2.195-4.892,4.894-4.892s4.894,2.194,4.894,4.892
			S4165.607,4296.327,4162.909,4296.327z"/>
		<path fill="#231815" d="M4171.931,4296.347h-0.554c-0.628,0-1.138-0.511-1.138-1.138c0-0.629,0.51-1.139,1.138-1.139h0.554
			c0.629,0,1.138,0.51,1.138,1.139C4173.068,4295.836,4172.56,4296.347,4171.931,4296.347z"/>
		<path fill="#231815" d="M4171.931,4292.63h-0.554c-0.628,0-1.138-0.509-1.138-1.138c0-0.628,0.51-1.137,1.138-1.137h0.554
			c0.629,0,1.138,0.509,1.138,1.137C4173.068,4292.121,4172.56,4292.63,4171.931,4292.63z"/>
		<path fill="#231815" d="M4171.931,4288.914h-0.554c-0.628,0-1.138-0.51-1.138-1.138s0.51-1.138,1.138-1.138h0.554
			c0.629,0,1.138,0.51,1.138,1.138S4172.56,4288.914,4171.931,4288.914z"/>
		<path fill="#231815" d="M4175.8,4296.347h-0.553c-0.628,0-1.138-0.511-1.138-1.138c0-0.629,0.51-1.139,1.138-1.139h0.553
			c0.628,0,1.139,0.51,1.139,1.139C4176.938,4295.836,4176.428,4296.347,4175.8,4296.347z"/>
		<path fill="#231815" d="M4175.8,4292.63h-0.553c-0.628,0-1.138-0.509-1.138-1.138c0-0.628,0.51-1.137,1.138-1.137h0.553
			c0.628,0,1.139,0.509,1.139,1.137C4176.938,4292.121,4176.428,4292.63,4175.8,4292.63z"/>
		<path fill="#231815" d="M4175.8,4288.914h-0.553c-0.628,0-1.138-0.51-1.138-1.138s0.51-1.138,1.138-1.138h0.553
			c0.628,0,1.139,0.51,1.139,1.138S4176.428,4288.914,4175.8,4288.914z"/>
		<path fill="#231815" d="M4179.668,4296.347h-0.553c-0.627,0-1.137-0.511-1.137-1.138c0-0.629,0.51-1.139,1.137-1.139h0.553
			c0.63,0,1.139,0.51,1.139,1.139C4180.807,4295.836,4180.298,4296.347,4179.668,4296.347z"/>
		<path fill="#231815" d="M4179.668,4292.63h-0.553c-0.627,0-1.137-0.509-1.137-1.138c0-0.628,0.51-1.137,1.137-1.137h0.553
			c0.63,0,1.139,0.509,1.139,1.137C4180.807,4292.121,4180.298,4292.63,4179.668,4292.63z"/>
		<path fill="#231815" d="M4179.668,4288.914h-0.553c-0.627,0-1.137-0.51-1.137-1.138s0.51-1.138,1.137-1.138h0.553
			c0.63,0,1.139,0.51,1.139,1.138S4180.298,4288.914,4179.668,4288.914z"/>
		<path fill-rule="evenodd" clip-rule="evenodd" fill="#231815" d="M4161.28,4290.497h2.968c0.465,0,0.842,0.376,0.842,0.841
			c0,0.463-0.377,0.84-0.842,0.84h-2.968c-0.466,0-0.842-0.377-0.842-0.84C4160.438,4290.873,4160.814,4290.497,4161.28,4290.497z"
			/>
	</g>
	<g>
		
			<path fill-rule="evenodd" clip-rule="evenodd" fill="none" stroke="#000000" stroke-width="2" stroke-linecap="round" stroke-linejoin="round" stroke-miterlimit="10" d="
			M42.85,15.502h1.002c0.841,0,1.523,0.698,1.523,1.56v11.505c0,0.862-0.682,1.56-1.523,1.56H6.148c-0.841,0-1.523-0.698-1.523-1.56
			V17.062c0-0.862,0.682-1.56,1.523-1.56h20.786"/>
		
			<line fill="none" stroke="#000000" stroke-width="2" stroke-linecap="round" stroke-linejoin="round" stroke-miterlimit="10" x1="7.667" y1="26.851" x2="42.333" y2="26.851"/>
		<g>
			<circle cx="7.949" cy="18.668" r="1"/>
			<circle cx="10.849" cy="18.668" r="1"/>
			<circle cx="13.747" cy="18.668" r="1"/>
		</g>
		<g>
			<g>
				
					<line fill="none" stroke="#000000" stroke-width="1.5" stroke-linecap="round" stroke-linejoin="round" stroke-miterlimit="10" x1="34.932" y1="8.508" x2="34.932" y2="21.899"/>
				<g>
					
						<line fill="none" stroke="#000000" stroke-width="1.5" stroke-linecap="round" stroke-linejoin="round" stroke-miterlimit="10" x1="32.988" y1="10.049" x2="34.943" y2="11.146"/>
					
						<line fill="none" stroke="#000000" stroke-width="1.5" stroke-linecap="round" stroke-linejoin="round" stroke-miterlimit="10" x1="36.893" y1="10.049" x2="34.938" y2="11.146"/>
				</g>
				<g>
					
						<line fill="none" stroke="#000000" stroke-width="1.5" stroke-linecap="round" stroke-linejoin="round" stroke-miterlimit="10" x1="32.988" y1="20.412" x2="34.943" y2="19.316"/>
					
						<line fill="none" stroke="#000000" stroke-width="1.5" stroke-linecap="round" stroke-linejoin="round" stroke-miterlimit="10" x1="36.893" y1="20.412" x2="34.938" y2="19.316"/>
				</g>
			</g>
			<g>
				
					<line fill="none" stroke="#000000" stroke-width="1.5" stroke-linecap="round" stroke-linejoin="round" stroke-miterlimit="10" x1="29.115" y1="18.586" x2="40.692" y2="11.856"/>
				<g>
					
						<line fill="none" stroke="#000000" stroke-width="1.5" stroke-linecap="round" stroke-linejoin="round" stroke-miterlimit="10" x1="31.424" y1="19.493" x2="31.389" y2="17.251"/>
					
						<line fill="none" stroke="#000000" stroke-width="1.5" stroke-linecap="round" stroke-linejoin="round" stroke-miterlimit="10" x1="29.461" y1="16.117" x2="31.392" y2="17.257"/>
				</g>
				<g>
					
						<line fill="none" stroke="#000000" stroke-width="1.5" stroke-linecap="round" stroke-linejoin="round" stroke-miterlimit="10" x1="40.383" y1="14.284" x2="38.453" y2="13.145"/>
					
						<line fill="none" stroke="#000000" stroke-width="1.5" stroke-linecap="round" stroke-linejoin="round" stroke-miterlimit="10" x1="38.42" y1="10.908" x2="38.456" y2="13.15"/>
				</g>
			</g>
			<g>
				
					<line fill="none" stroke="#000000" stroke-width="1.5" stroke-linecap="round" stroke-linejoin="round" stroke-miterlimit="10" x1="40.787" y1="18.634" x2="29.209" y2="11.904"/>
				<g>
					
						<line fill="none" stroke="#000000" stroke-width="1.5" stroke-linecap="round" stroke-linejoin="round" stroke-miterlimit="10" x1="38.479" y1="19.54" x2="38.514" y2="17.299"/>
					
						<line fill="none" stroke="#000000" stroke-width="1.5" stroke-linecap="round" stroke-linejoin="round" stroke-miterlimit="10" x1="40.44" y1="16.164" x2="38.51" y2="17.304"/>
				</g>
				<g>
					
						<line fill="none" stroke="#000000" stroke-width="1.5" stroke-linecap="round" stroke-linejoin="round" stroke-miterlimit="10" x1="29.519" y1="14.332" x2="31.449" y2="13.192"/>
					
						<line fill="none" stroke="#000000" stroke-width="1.5" stroke-linecap="round" stroke-linejoin="round" stroke-miterlimit="10" x1="31.481" y1="10.955" x2="31.447" y2="13.198"/>
				</g>
			</g>
		</g>
		<path fill="none" stroke="#000000" stroke-width="2" stroke-linecap="round" stroke-linejoin="round" stroke-miterlimit="10" d="
			M11.726,34.375c0,0,1.125,3.5-4.875,8.25"/>
		<path fill="none" stroke="#000000" stroke-width="2" stroke-linecap="round" stroke-linejoin="round" stroke-miterlimit="10" d="
			M37.958,34.375c0,0-1.125,3.5,4.875,8.25"/>
		<path fill="none" stroke="#000000" stroke-width="2" stroke-linecap="round" stroke-linejoin="round" stroke-miterlimit="10" d="
			M20.649,34.975c0,0,0.875,3.833-3.625,7.333"/>
		<path fill="none" stroke="#000000" stroke-width="2" stroke-linecap="round" stroke-linejoin="round" stroke-miterlimit="10" d="
			M28.401,34.975c0,0-0.875,3.833,3.625,7.333"/>
		<rect x="2.5" y="2.5" fill-rule="evenodd" clip-rule="evenodd" fill="none" width="45" height="45"/>
	</g>
</g>
<g id="框" display="none">
	
		<rect x="2.5" y="2.5" display="inline" fill-rule="evenodd" clip-rule="evenodd" fill="none" stroke="#000000" stroke-width="0.1" stroke-miterlimit="10" width="45" height="45"/>
</g>
</svg>
