<?xml version="1.0" encoding="utf-8"?>
<!-- Generator: Adobe Illustrator 16.0.0, SVG Export Plug-In . SVG Version: 6.00 Build 0)  -->
<!DOCTYPE svg PUBLIC "-//W3C//DTD SVG 1.1//EN" "http://www.w3.org/Graphics/SVG/1.1/DTD/svg11.dtd">
<svg version="1.1" xmlns="http://www.w3.org/2000/svg" xmlns:xlink="http://www.w3.org/1999/xlink" x="0px" y="0px" width="50px"
	 height="50px" viewBox="0 0 50 50" enable-background="new 0 0 50 50" xml:space="pBk_Reserve">
<g id="圖層_1">
	<g>
		
			<path fill="none" stroke="#231815" stroke-width="1.5" stroke-linecap="round" stroke-linejoin="round" stroke-miterlimit="10" d="
			M4185.318,4272.494h-31.637c-1.758,0-3.188,1.43-3.188,3.186v31.625c0,1.68,1.309,3.061,2.959,3.177v0.881
			c0,0.628,0.51,1.138,1.139,1.138h3.225c0.628,0,1.138-0.51,1.138-1.138v-0.872h20.751v0.872c0,0.628,0.509,1.138,1.138,1.138
			h3.224c0.629,0,1.139-0.51,1.139-1.138v-0.872h0.113c1.758,0,3.188-1.429,3.188-3.186v-31.625
			C4188.505,4273.924,4187.076,4272.494,4185.318,4272.494z"/>
		
			<path fill="none" stroke="#231815" stroke-width="1.5" stroke-linecap="round" stroke-linejoin="round" stroke-miterlimit="10" d="
			M4185.205,4304.177c0,1.662-1.354,3.014-3.016,3.014h-25.721c-1.662,0-3.016-1.352-3.016-3.014v-25.597
			c0-1.662,1.354-3.014,3.016-3.014h25.721c1.662,0,3.016,1.352,3.016,3.014V4304.177z"/>
		
			<path fill="none" stroke="#231815" stroke-width="1.5" stroke-linecap="round" stroke-linejoin="round" stroke-miterlimit="10" d="
			M4162.909,4296.327c-2.698,0-4.894-2.194-4.894-4.892s2.195-4.892,4.894-4.892s4.894,2.194,4.894,4.892
			S4165.607,4296.327,4162.909,4296.327z"/>
		<path fill="#231815" d="M4171.931,4296.347h-0.554c-0.628,0-1.138-0.511-1.138-1.138c0-0.629,0.51-1.139,1.138-1.139h0.554
			c0.629,0,1.138,0.51,1.138,1.139C4173.068,4295.836,4172.56,4296.347,4171.931,4296.347z"/>
		<path fill="#231815" d="M4171.931,4292.63h-0.554c-0.628,0-1.138-0.509-1.138-1.138c0-0.628,0.51-1.137,1.138-1.137h0.554
			c0.629,0,1.138,0.509,1.138,1.137C4173.068,4292.121,4172.56,4292.63,4171.931,4292.63z"/>
		<path fill="#231815" d="M4171.931,4288.914h-0.554c-0.628,0-1.138-0.51-1.138-1.138s0.51-1.138,1.138-1.138h0.554
			c0.629,0,1.138,0.51,1.138,1.138S4172.56,4288.914,4171.931,4288.914z"/>
		<path fill="#231815" d="M4175.8,4296.347h-0.553c-0.628,0-1.138-0.511-1.138-1.138c0-0.629,0.51-1.139,1.138-1.139h0.553
			c0.628,0,1.139,0.51,1.139,1.139C4176.938,4295.836,4176.428,4296.347,4175.8,4296.347z"/>
		<path fill="#231815" d="M4175.8,4292.63h-0.553c-0.628,0-1.138-0.509-1.138-1.138c0-0.628,0.51-1.137,1.138-1.137h0.553
			c0.628,0,1.139,0.509,1.139,1.137C4176.938,4292.121,4176.428,4292.63,4175.8,4292.63z"/>
		<path fill="#231815" d="M4175.8,4288.914h-0.553c-0.628,0-1.138-0.51-1.138-1.138s0.51-1.138,1.138-1.138h0.553
			c0.628,0,1.139,0.51,1.139,1.138S4176.428,4288.914,4175.8,4288.914z"/>
		<path fill="#231815" d="M4179.668,4296.347h-0.553c-0.627,0-1.137-0.511-1.137-1.138c0-0.629,0.51-1.139,1.137-1.139h0.553
			c0.63,0,1.139,0.51,1.139,1.139C4180.807,4295.836,4180.298,4296.347,4179.668,4296.347z"/>
		<path fill="#231815" d="M4179.668,4292.63h-0.553c-0.627,0-1.137-0.509-1.137-1.138c0-0.628,0.51-1.137,1.137-1.137h0.553
			c0.63,0,1.139,0.509,1.139,1.137C4180.807,4292.121,4180.298,4292.63,4179.668,4292.63z"/>
		<path fill="#231815" d="M4179.668,4288.914h-0.553c-0.627,0-1.137-0.51-1.137-1.138s0.51-1.138,1.137-1.138h0.553
			c0.63,0,1.139,0.51,1.139,1.138S4180.298,4288.914,4179.668,4288.914z"/>
		<path fill-rule="evenodd" clip-rule="evenodd" fill="#231815" d="M4161.28,4290.497h2.968c0.465,0,0.842,0.376,0.842,0.841
			c0,0.463-0.377,0.84-0.842,0.84h-2.968c-0.466,0-0.842-0.377-0.842-0.84C4160.438,4290.873,4160.814,4290.497,4161.28,4290.497z"
			/>
	</g>
	<g>
		
			<path fill-rule="evenodd" clip-rule="evenodd" fill="none" stroke="#000000" stroke-width="2" stroke-linecap="round" stroke-linejoin="round" stroke-miterlimit="10" d="
			M42.25,15.202h1.602c0.842,0,1.523,0.698,1.523,1.56v11.505c0,0.862-0.682,1.56-1.523,1.56H6.148c-0.841,0-1.523-0.698-1.523-1.56
			V16.762c0-0.862,0.682-1.56,1.523-1.56h21.685"/>
		
			<line fill="none" stroke="#000000" stroke-width="2" stroke-linecap="round" stroke-linejoin="round" stroke-miterlimit="10" x1="7.667" y1="26.551" x2="42.333" y2="26.551"/>
		<g>
			<circle cx="7.949" cy="18.369" r="1"/>
			<circle cx="10.849" cy="18.369" r="1"/>
			<circle cx="13.748" cy="18.369" r="1"/>
		</g>
		<g>
			<path fill="none" stroke="#000000" stroke-width="2" stroke-linecap="round" stroke-linejoin="round" stroke-miterlimit="10" d="
				M11.521,33.067c0,0-3.969,2.241-1.18,4.548c2.789,2.308-1.693,4.888-1.693,4.888"/>
			<path fill="none" stroke="#000000" stroke-width="2" stroke-linecap="round" stroke-linejoin="round" stroke-miterlimit="10" d="
				M19.972,33.899c0,0-3.319,2.24,0.139,4.548c3.459,2.308-0.277,4.888-0.277,4.888"/>
			<path fill="none" stroke="#000000" stroke-width="2" stroke-linecap="round" stroke-linejoin="round" stroke-miterlimit="10" d="
				M29.047,33.899c0,0-3.319,2.24,0.139,4.548s-0.276,4.888-0.276,4.888"/>
			<path fill="none" stroke="#000000" stroke-width="2" stroke-linecap="round" stroke-linejoin="round" stroke-miterlimit="10" d="
				M37.712,33.067c0,0-2.67,2.24,1.457,4.548c4.125,2.308,1.139,4.887,1.139,4.887"/>
		</g>
		<g>
			
				<circle fill="none" stroke="#000000" stroke-width="1.5" stroke-linecap="round" stroke-linejoin="round" stroke-miterlimit="10" cx="35.025" cy="12.788" r="4.25"/>
			<g>
				<g>
					
						<line fill="none" stroke="#000000" stroke-width="1.5" stroke-linecap="round" stroke-linejoin="round" stroke-miterlimit="10" x1="35.025" y1="17.037" x2="35.025" y2="19.329"/>
					
						<line fill="none" stroke="#000000" stroke-width="1.5" stroke-linecap="round" stroke-linejoin="round" stroke-miterlimit="10" x1="35.025" y1="6.246" x2="35.025" y2="8.538"/>
				</g>
				<g>
					
						<line fill="none" stroke="#000000" stroke-width="1.5" stroke-linecap="round" stroke-linejoin="round" stroke-miterlimit="10" x1="30.775" y1="12.788" x2="28.484" y2="12.788"/>
					
						<line fill="none" stroke="#000000" stroke-width="1.5" stroke-linecap="round" stroke-linejoin="round" stroke-miterlimit="10" x1="41.566" y1="12.788" x2="39.275" y2="12.788"/>
				</g>
			</g>
			<g>
				<g>
					
						<line fill="none" stroke="#000000" stroke-width="1.5" stroke-linecap="round" stroke-linejoin="round" stroke-miterlimit="10" x1="38.03" y1="15.792" x2="39.65" y2="17.413"/>
					
						<line fill="none" stroke="#000000" stroke-width="1.5" stroke-linecap="round" stroke-linejoin="round" stroke-miterlimit="10" x1="30.4" y1="8.162" x2="32.02" y2="9.783"/>
				</g>
				<g>
					
						<line fill="none" stroke="#000000" stroke-width="1.5" stroke-linecap="round" stroke-linejoin="round" stroke-miterlimit="10" x1="32.02" y1="15.792" x2="30.4" y2="17.413"/>
					
						<line fill="none" stroke="#000000" stroke-width="1.5" stroke-linecap="round" stroke-linejoin="round" stroke-miterlimit="10" x1="39.65" y1="8.162" x2="38.03" y2="9.783"/>
				</g>
			</g>
		</g>
		<rect x="2.5" y="2.5" fill-rule="evenodd" clip-rule="evenodd" fill="none" width="45" height="45"/>
	</g>
</g>
<g id="框" display="none">
	
		<rect x="2.5" y="2.5" display="inline" fill-rule="evenodd" clip-rule="evenodd" fill="none" stroke="#000000" stroke-width="0.1" stroke-miterlimit="10" width="45" height="45"/>
</g>
</svg>
