<?xml version="1.0" encoding="utf-8"?>
<!-- Generator: Adobe Illustrator 16.0.0, SVG Export Plug-In . SVG Version: 6.00 Build 0)  -->
<!DOCTYPE svg PUBLIC "-//W3C//DTD SVG 1.1//EN" "http://www.w3.org/Graphics/SVG/1.1/DTD/svg11.dtd">
<svg version="1.1" xmlns="http://www.w3.org/2000/svg" xmlns:xlink="http://www.w3.org/1999/xlink" x="0px" y="0px" width="50px"
	 height="50px" viewBox="0 0 50 50" enable-background="new 0 0 50 50" xml:space="pBk_Reserve">
<g id="圖層_1">
	<g>
		
			<path fill="none" stroke="#231815" stroke-width="1.5" stroke-linecap="round" stroke-linejoin="round" stroke-miterlimit="10" d="
			M4185.318,4272.494h-31.637c-1.758,0-3.188,1.43-3.188,3.186v31.625c0,1.68,1.309,3.061,2.959,3.177v0.881
			c0,0.628,0.51,1.138,1.139,1.138h3.225c0.628,0,1.138-0.51,1.138-1.138v-0.872h20.751v0.872c0,0.628,0.509,1.138,1.138,1.138
			h3.224c0.629,0,1.139-0.51,1.139-1.138v-0.872h0.113c1.758,0,3.188-1.429,3.188-3.186v-31.625
			C4188.505,4273.924,4187.076,4272.494,4185.318,4272.494z"/>
		
			<path fill="none" stroke="#231815" stroke-width="1.5" stroke-linecap="round" stroke-linejoin="round" stroke-miterlimit="10" d="
			M4185.205,4304.177c0,1.662-1.354,3.014-3.016,3.014h-25.721c-1.662,0-3.016-1.352-3.016-3.014v-25.597
			c0-1.662,1.354-3.014,3.016-3.014h25.721c1.662,0,3.016,1.352,3.016,3.014V4304.177z"/>
		
			<path fill="none" stroke="#231815" stroke-width="1.5" stroke-linecap="round" stroke-linejoin="round" stroke-miterlimit="10" d="
			M4162.909,4296.327c-2.698,0-4.894-2.194-4.894-4.892s2.195-4.892,4.894-4.892s4.894,2.194,4.894,4.892
			S4165.607,4296.327,4162.909,4296.327z"/>
		<path fill="#231815" d="M4171.931,4296.347h-0.554c-0.628,0-1.138-0.511-1.138-1.138c0-0.629,0.51-1.139,1.138-1.139h0.554
			c0.629,0,1.138,0.51,1.138,1.139C4173.068,4295.836,4172.56,4296.347,4171.931,4296.347z"/>
		<path fill="#231815" d="M4171.931,4292.63h-0.554c-0.628,0-1.138-0.509-1.138-1.138c0-0.628,0.51-1.137,1.138-1.137h0.554
			c0.629,0,1.138,0.509,1.138,1.137C4173.068,4292.121,4172.56,4292.63,4171.931,4292.63z"/>
		<path fill="#231815" d="M4171.931,4288.914h-0.554c-0.628,0-1.138-0.51-1.138-1.138s0.51-1.138,1.138-1.138h0.554
			c0.629,0,1.138,0.51,1.138,1.138S4172.56,4288.914,4171.931,4288.914z"/>
		<path fill="#231815" d="M4175.8,4296.347h-0.553c-0.628,0-1.138-0.511-1.138-1.138c0-0.629,0.51-1.139,1.138-1.139h0.553
			c0.628,0,1.139,0.51,1.139,1.139C4176.938,4295.836,4176.428,4296.347,4175.8,4296.347z"/>
		<path fill="#231815" d="M4175.8,4292.63h-0.553c-0.628,0-1.138-0.509-1.138-1.138c0-0.628,0.51-1.137,1.138-1.137h0.553
			c0.628,0,1.139,0.509,1.139,1.137C4176.938,4292.121,4176.428,4292.63,4175.8,4292.63z"/>
		<path fill="#231815" d="M4175.8,4288.914h-0.553c-0.628,0-1.138-0.51-1.138-1.138s0.51-1.138,1.138-1.138h0.553
			c0.628,0,1.139,0.51,1.139,1.138S4176.428,4288.914,4175.8,4288.914z"/>
		<path fill="#231815" d="M4179.668,4296.347h-0.553c-0.627,0-1.137-0.511-1.137-1.138c0-0.629,0.51-1.139,1.137-1.139h0.553
			c0.63,0,1.139,0.51,1.139,1.139C4180.807,4295.836,4180.298,4296.347,4179.668,4296.347z"/>
		<path fill="#231815" d="M4179.668,4292.63h-0.553c-0.627,0-1.137-0.509-1.137-1.138c0-0.628,0.51-1.137,1.137-1.137h0.553
			c0.63,0,1.139,0.509,1.139,1.137C4180.807,4292.121,4180.298,4292.63,4179.668,4292.63z"/>
		<path fill="#231815" d="M4179.668,4288.914h-0.553c-0.627,0-1.137-0.51-1.137-1.138s0.51-1.138,1.137-1.138h0.553
			c0.63,0,1.139,0.51,1.139,1.138S4180.298,4288.914,4179.668,4288.914z"/>
		<path fill-rule="evenodd" clip-rule="evenodd" fill="#231815" d="M4161.28,4290.497h2.968c0.465,0,0.842,0.376,0.842,0.841
			c0,0.463-0.377,0.84-0.842,0.84h-2.968c-0.466,0-0.842-0.377-0.842-0.84C4160.438,4290.873,4160.814,4290.497,4161.28,4290.497z"
			/>
	</g>
	<g>
		
			<path fill-rule="evenodd" clip-rule="evenodd" fill="none" stroke="#000000" stroke-width="2" stroke-linecap="round" stroke-linejoin="round" stroke-miterlimit="10" d="
			M45.771,44.375c0,1.141-0.999,2.066-2.23,2.066H6.46c-1.232,0-2.231-0.925-2.231-2.066V5.626c0-1.142,0.999-2.067,2.231-2.067
			h37.08c1.231,0,2.23,0.925,2.23,2.067V44.375z"/>
		
			<circle fill-rule="evenodd" clip-rule="evenodd" fill="none" stroke="#000000" stroke-width="2" stroke-linecap="round" stroke-linejoin="round" stroke-miterlimit="10" cx="18.016" cy="10.852" r="2.25"/>
		
			<circle fill-rule="evenodd" clip-rule="evenodd" fill="none" stroke="#000000" stroke-width="2" stroke-linecap="round" stroke-linejoin="round" stroke-miterlimit="10" cx="31.984" cy="10.852" r="2.25"/>
		
			<line fill="none" stroke="#000000" stroke-width="2" stroke-linecap="round" stroke-linejoin="round" stroke-miterlimit="10" x1="4.309" y1="41.733" x2="45.667" y2="41.733"/>
		<path fill="none" stroke="#000000" stroke-width="2" stroke-linecap="round" stroke-linejoin="round" stroke-miterlimit="10" d="
			M8.833,41.665V20.066c0-1.104,0.976-2,2.18-2h27.974c1.204,0,2.18,0.896,2.18,2v21.599"/>
		<g>
			<path fill="none" stroke="#000000" stroke-width="2" stroke-linecap="round" stroke-linejoin="round" stroke-miterlimit="10" d="
				M20.266,18.167v3.659c0,0.214-0.188,0.388-0.422,0.388h-3.656c-0.233,0-0.422-0.173-0.422-0.388v-3.659"/>
			
				<line fill="none" stroke="#000000" stroke-width="2" stroke-linecap="round" stroke-linejoin="round" stroke-miterlimit="10" x1="18.016" y1="22.313" x2="18.016" y2="24.58"/>
		</g>
		<g>
			<path fill="none" stroke="#000000" stroke-width="2" stroke-linecap="round" stroke-linejoin="round" stroke-miterlimit="10" d="
				M34.234,18.167v3.659c0,0.214-0.188,0.388-0.422,0.388h-3.656c-0.233,0-0.422-0.173-0.422-0.388v-3.659"/>
			
				<line fill="none" stroke="#000000" stroke-width="2" stroke-linecap="round" stroke-linejoin="round" stroke-miterlimit="10" x1="31.984" y1="22.313" x2="31.984" y2="24.58"/>
		</g>
		<rect x="2.5" y="2.5" fill-rule="evenodd" clip-rule="evenodd" fill="none" width="45" height="45"/>
		<g>
			
				<ellipse fill-rule="evenodd" clip-rule="evenodd" fill="none" stroke="#000000" stroke-width="2" stroke-linecap="round" stroke-linejoin="round" stroke-miterlimit="10" cx="24.648" cy="31.662" rx="6.535" ry="1.61"/>
			
				<path fill-rule="evenodd" clip-rule="evenodd" fill="none" stroke="#000000" stroke-width="2" stroke-linecap="round" stroke-linejoin="round" stroke-miterlimit="10" d="
				M30.521,37.64c-1.183,2.127-3.37,3.556-5.871,3.556c-3.759,0-6.806-3.221-6.806-7.196c0-0.639,0.109-1.796,0.257-2.386"/>
			
				<path fill-rule="evenodd" clip-rule="evenodd" fill="none" stroke="#000000" stroke-width="2" stroke-linecap="round" stroke-linejoin="round" stroke-miterlimit="10" d="
				M31.145,31.531c0.124,0.49,0.306,1.891,0.041,2.61"/>
			
				<path fill-rule="evenodd" clip-rule="evenodd" fill="none" stroke="#000000" stroke-width="2" stroke-linecap="round" stroke-linejoin="round" stroke-miterlimit="10" d="
				M31.185,34.145c0.491-0.341,1.117-0.611,1.706-0.361c0.764,0.324,0.822,1.255,0.335,2.579c-0.465,1.264-1.477,1.914-2.314,1.533
				c-0.102-0.045-0.313-0.177-0.396-0.248"/>
		</g>
	</g>
</g>
<g id="框" display="none">
	
		<rect x="2.5" y="2.5" display="inline" fill-rule="evenodd" clip-rule="evenodd" fill="none" stroke="#000000" stroke-width="0.1" stroke-miterlimit="10" width="45" height="45"/>
</g>
</svg>
