<?xml version="1.0" encoding="utf-8"?>
<!-- Generator: Adobe Illustrator 16.0.0, SVG Export Plug-In . SVG Version: 6.00 Build 0)  -->
<!DOCTYPE svg PUBLIC "-//W3C//DTD SVG 1.1//EN" "http://www.w3.org/Graphics/SVG/1.1/DTD/svg11.dtd">
<svg version="1.1" xmlns="http://www.w3.org/2000/svg" xmlns:xlink="http://www.w3.org/1999/xlink" x="0px" y="0px" width="50px"
	 height="50px" viewBox="0 0 50 50" enable-background="new 0 0 50 50" xml:space="pBk_Reserve">
<g id="圖層_1">
	<g>
		<g>
			<g>
				
					<circle fill-rule="evenodd" clip-rule="evenodd" fill="none" stroke="#000000" stroke-width="2" stroke-linecap="round" stroke-linejoin="round" stroke-miterlimit="10" cx="126.46" cy="-236.887" r="3.193"/>
				
					<path fill="none" stroke="#000000" stroke-width="2" stroke-linecap="round" stroke-linejoin="round" stroke-miterlimit="10" d="
					M131.62-224.672v-4.319c0-1.749-1.231-3.167-2.751-3.167l-2.452,2.431l-2.363-2.431c-1.519,0-2.751,1.417-2.751,3.167v4.319
					H131.62z"/>
			</g>
			<g>
				
					<circle fill-rule="evenodd" clip-rule="evenodd" fill="none" stroke="#000000" stroke-width="2" stroke-linecap="round" stroke-linejoin="round" stroke-miterlimit="10" cx="141.927" cy="-236.887" r="3.193"/>
				
					<path fill="none" stroke="#000000" stroke-width="2" stroke-linecap="round" stroke-linejoin="round" stroke-miterlimit="10" d="
					M147.085-224.672v-4.319c0-1.749-1.231-3.167-2.751-3.167l-2.452,2.431l-2.363-2.431c-1.519,0-2.751,1.417-2.751,3.167v4.319
					H147.085z"/>
			</g>
			<g>
				
					<circle fill-rule="evenodd" clip-rule="evenodd" fill="none" stroke="#000000" stroke-width="2" stroke-linecap="round" stroke-linejoin="round" stroke-miterlimit="10" cx="157.392" cy="-236.886" r="3.192"/>
				
					<path fill="none" stroke="#000000" stroke-width="2" stroke-linecap="round" stroke-linejoin="round" stroke-miterlimit="10" d="
					M162.551-224.672v-4.318c0-1.749-1.231-3.167-2.751-3.167l-2.452,2.431l-2.363-2.431c-1.519,0-2.751,1.418-2.751,3.167v4.318
					H162.551z"/>
			</g>
			<g>
				
					<path fill="none" stroke="#000000" stroke-width="2" stroke-linecap="round" stroke-linejoin="round" stroke-miterlimit="10" d="
					M129.452-243.067h-6.15c-1.104,0-2-0.668-2-1.493v-17.482c0-0.825,0.896-1.493,2-1.493h37.25c1.104,0,2,0.668,2,1.493v17.482
					c0,0.825-0.896,1.493-2,1.493h-18.224"/>
				<g>
					
						<path fill-rule="evenodd" clip-rule="evenodd" fill="none" stroke="#000000" stroke-width="2" stroke-linecap="round" stroke-linejoin="round" stroke-miterlimit="10" d="
						M139.776-255.995c0,2.111-1.712,3.824-3.822,3.824c-2.112,0-3.822-1.713-3.822-3.824c0-2.109,1.71-3.821,3.822-3.821
						C138.064-259.816,139.776-258.104,139.776-255.995z"/>
					
						<path fill="none" stroke="#000000" stroke-width="2" stroke-linecap="round" stroke-linejoin="round" stroke-miterlimit="10" d="
						M142.131-243.09v-3.732c0-2.094-1.474-3.792-3.294-3.792l-2.936,2.911l-2.829-2.911c-1.819,0-3.294,1.698-3.294,3.792v3.732"/>
				</g>
			</g>
		</g>
		<rect x="119.426" y="-266.804" fill-rule="evenodd" clip-rule="evenodd" fill="none" width="45" height="45"/>
	</g>
	<g>
		<g>
			<g>
				
					<circle fill-rule="evenodd" clip-rule="evenodd" fill="none" stroke="#000000" stroke-width="2" stroke-linecap="round" stroke-linejoin="round" stroke-miterlimit="10" cx="126.46" cy="-236.887" r="3.193"/>
				
					<path fill="none" stroke="#000000" stroke-width="2" stroke-linecap="round" stroke-linejoin="round" stroke-miterlimit="10" d="
					M131.62-224.672v-4.319c0-1.749-1.231-3.167-2.751-3.167l-2.452,2.431l-2.363-2.431c-1.519,0-2.751,1.417-2.751,3.167v4.319
					H131.62z"/>
			</g>
			<g>
				
					<circle fill-rule="evenodd" clip-rule="evenodd" fill="none" stroke="#000000" stroke-width="2" stroke-linecap="round" stroke-linejoin="round" stroke-miterlimit="10" cx="141.927" cy="-236.887" r="3.193"/>
				
					<path fill="none" stroke="#000000" stroke-width="2" stroke-linecap="round" stroke-linejoin="round" stroke-miterlimit="10" d="
					M147.085-224.672v-4.319c0-1.749-1.231-3.167-2.751-3.167l-2.452,2.431l-2.363-2.431c-1.519,0-2.751,1.417-2.751,3.167v4.319
					H147.085z"/>
			</g>
			<g>
				
					<circle fill-rule="evenodd" clip-rule="evenodd" fill="none" stroke="#000000" stroke-width="2" stroke-linecap="round" stroke-linejoin="round" stroke-miterlimit="10" cx="157.392" cy="-236.886" r="3.192"/>
				
					<path fill="none" stroke="#000000" stroke-width="2" stroke-linecap="round" stroke-linejoin="round" stroke-miterlimit="10" d="
					M162.551-224.672v-4.318c0-1.749-1.231-3.167-2.751-3.167l-2.452,2.431l-2.363-2.431c-1.519,0-2.751,1.418-2.751,3.167v4.318
					H162.551z"/>
			</g>
			<g>
				
					<path fill="none" stroke="#000000" stroke-width="2" stroke-linecap="round" stroke-linejoin="round" stroke-miterlimit="10" d="
					M129.452-243.067h-6.15c-1.104,0-2-0.668-2-1.493v-17.482c0-0.825,0.896-1.493,2-1.493h37.25c1.104,0,2,0.668,2,1.493v17.482
					c0,0.825-0.896,1.493-2,1.493h-18.224"/>
				<g>
					
						<path fill-rule="evenodd" clip-rule="evenodd" fill="none" stroke="#000000" stroke-width="2" stroke-linecap="round" stroke-linejoin="round" stroke-miterlimit="10" d="
						M139.776-255.995c0,2.111-1.712,3.824-3.822,3.824c-2.112,0-3.822-1.713-3.822-3.824c0-2.109,1.71-3.821,3.822-3.821
						C138.064-259.816,139.776-258.104,139.776-255.995z"/>
					
						<path fill="none" stroke="#000000" stroke-width="2" stroke-linecap="round" stroke-linejoin="round" stroke-miterlimit="10" d="
						M142.131-243.09v-3.732c0-2.094-1.474-3.792-3.294-3.792l-2.936,2.911l-2.829-2.911c-1.819,0-3.294,1.698-3.294,3.792v3.732"/>
				</g>
			</g>
		</g>
		<rect x="119.426" y="-266.804" fill-rule="evenodd" clip-rule="evenodd" fill="none" width="45" height="45"/>
	</g>
	<g>
		
			<path fill="none" stroke="#231815" stroke-width="1.5" stroke-linecap="round" stroke-linejoin="round" stroke-miterlimit="10" d="
			M4185.318,4272.494h-31.637c-1.758,0-3.188,1.43-3.188,3.186v31.625c0,1.68,1.309,3.061,2.959,3.177v0.881
			c0,0.628,0.51,1.138,1.139,1.138h3.225c0.628,0,1.138-0.51,1.138-1.138v-0.872h20.751v0.872c0,0.628,0.509,1.138,1.138,1.138
			h3.224c0.629,0,1.139-0.51,1.139-1.138v-0.872h0.113c1.758,0,3.188-1.429,3.188-3.186v-31.625
			C4188.505,4273.924,4187.076,4272.494,4185.318,4272.494z"/>
		
			<path fill="none" stroke="#231815" stroke-width="1.5" stroke-linecap="round" stroke-linejoin="round" stroke-miterlimit="10" d="
			M4185.205,4304.177c0,1.662-1.354,3.014-3.016,3.014h-25.721c-1.662,0-3.016-1.352-3.016-3.014v-25.597
			c0-1.662,1.354-3.014,3.016-3.014h25.721c1.662,0,3.016,1.352,3.016,3.014V4304.177z"/>
		
			<path fill="none" stroke="#231815" stroke-width="1.5" stroke-linecap="round" stroke-linejoin="round" stroke-miterlimit="10" d="
			M4162.909,4296.327c-2.698,0-4.894-2.194-4.894-4.892s2.195-4.892,4.894-4.892s4.894,2.194,4.894,4.892
			S4165.607,4296.327,4162.909,4296.327z"/>
		<path fill="#231815" d="M4171.931,4296.347h-0.554c-0.628,0-1.138-0.511-1.138-1.138c0-0.629,0.51-1.139,1.138-1.139h0.554
			c0.629,0,1.138,0.51,1.138,1.139C4173.068,4295.836,4172.56,4296.347,4171.931,4296.347z"/>
		<path fill="#231815" d="M4171.931,4292.63h-0.554c-0.628,0-1.138-0.509-1.138-1.138c0-0.628,0.51-1.137,1.138-1.137h0.554
			c0.629,0,1.138,0.509,1.138,1.137C4173.068,4292.121,4172.56,4292.63,4171.931,4292.63z"/>
		<path fill="#231815" d="M4171.931,4288.914h-0.554c-0.628,0-1.138-0.51-1.138-1.138s0.51-1.138,1.138-1.138h0.554
			c0.629,0,1.138,0.51,1.138,1.138S4172.56,4288.914,4171.931,4288.914z"/>
		<path fill="#231815" d="M4175.8,4296.347h-0.553c-0.628,0-1.138-0.511-1.138-1.138c0-0.629,0.51-1.139,1.138-1.139h0.553
			c0.628,0,1.139,0.51,1.139,1.139C4176.938,4295.836,4176.428,4296.347,4175.8,4296.347z"/>
		<path fill="#231815" d="M4175.8,4292.63h-0.553c-0.628,0-1.138-0.509-1.138-1.138c0-0.628,0.51-1.137,1.138-1.137h0.553
			c0.628,0,1.139,0.509,1.139,1.137C4176.938,4292.121,4176.428,4292.63,4175.8,4292.63z"/>
		<path fill="#231815" d="M4175.8,4288.914h-0.553c-0.628,0-1.138-0.51-1.138-1.138s0.51-1.138,1.138-1.138h0.553
			c0.628,0,1.139,0.51,1.139,1.138S4176.428,4288.914,4175.8,4288.914z"/>
		<path fill="#231815" d="M4179.668,4296.347h-0.553c-0.627,0-1.137-0.511-1.137-1.138c0-0.629,0.51-1.139,1.137-1.139h0.553
			c0.63,0,1.139,0.51,1.139,1.139C4180.807,4295.836,4180.298,4296.347,4179.668,4296.347z"/>
		<path fill="#231815" d="M4179.668,4292.63h-0.553c-0.627,0-1.137-0.509-1.137-1.138c0-0.628,0.51-1.137,1.137-1.137h0.553
			c0.63,0,1.139,0.509,1.139,1.137C4180.807,4292.121,4180.298,4292.63,4179.668,4292.63z"/>
		<path fill="#231815" d="M4179.668,4288.914h-0.553c-0.627,0-1.137-0.51-1.137-1.138s0.51-1.138,1.137-1.138h0.553
			c0.63,0,1.139,0.51,1.139,1.138S4180.298,4288.914,4179.668,4288.914z"/>
		<path fill-rule="evenodd" clip-rule="evenodd" fill="#231815" d="M4161.28,4290.497h2.968c0.465,0,0.842,0.376,0.842,0.841
			c0,0.463-0.377,0.84-0.842,0.84h-2.968c-0.466,0-0.842-0.377-0.842-0.84C4160.438,4290.873,4160.814,4290.497,4161.28,4290.497z"
			/>
	</g>
	<g>
		<g>
			
				<path fill-rule="evenodd" clip-rule="evenodd" fill="none" stroke="#000000" stroke-width="2" stroke-linecap="round" stroke-linejoin="round" stroke-miterlimit="10" d="
				M24.859,7.876c0,2.42-1.96,4.383-4.381,4.383c-2.421,0-4.383-1.963-4.383-4.383c0-2.417,1.962-4.381,4.383-4.381
				C22.899,3.495,24.859,5.458,24.859,7.876z"/>
			<path fill="none" stroke="#000000" stroke-width="2" stroke-linecap="round" stroke-linejoin="round" stroke-miterlimit="10" d="
				M30.456,37.617c-1.693,5.582-7.125,9.394-13.159,8.833C10.402,45.81,5.33,39.7,5.971,32.804
				c0.516-5.548,4.573-9.917,9.731-11.077"/>
			<g>
				<g>
					
						<line fill="none" stroke="#000000" stroke-width="2" stroke-linecap="round" stroke-linejoin="round" stroke-miterlimit="10" x1="26.93" y1="21.421" x2="28.488" y2="26.916"/>
					
						<path fill="none" stroke="#000000" stroke-width="2" stroke-linecap="round" stroke-linejoin="round" stroke-miterlimit="10" d="
						M29.487,27.733h6.59c1.249,0,2.374,0.754,2.848,1.911l4.927,11.458c0.645,1.574-0.107,3.372-1.68,4.017
						c-0.382,0.158-0.779,0.231-1.167,0.231c-1.214,0-2.036-0.295-2.85-1.911c-0.776-1.539-1.459-3.402-2.152-5.002
						c-1.088-2.513-1.416-5.159-4.11-5.259c-1.888-0.071-4.371,0.047-6.254,0.164c-1.7,0-3.284-1.433-3.627-3.079l-3.287-14.779
						c0-1.701,1.927-3.079,3.627-3.079c1.701,0,2.649,1.2,3.079,3.079l0.483,1.812"/>
				</g>
				
					<path fill="none" stroke="#000000" stroke-width="2" stroke-linecap="round" stroke-linejoin="round" stroke-miterlimit="10" d="
					M29.654,27.735c-0.681,0-1.233-0.529-1.233-1.181"/>
			</g>
			<path fill="none" stroke="#000000" stroke-width="2" stroke-linecap="round" stroke-linejoin="round" stroke-miterlimit="10" d="
				M25.938,17.344h8.038c1.004,0,1.818,0.992,1.818,2.013l0,0c0,1.021-0.814,2.013-1.818,2.013h-7.053"/>
		</g>
		<rect x="2.5" y="2.5" fill-rule="evenodd" clip-rule="evenodd" fill="none" width="45" height="45"/>
	</g>
</g>
<g id="框" display="none">
	
		<rect x="2.5" y="2.5" display="inline" fill-rule="evenodd" clip-rule="evenodd" fill="none" stroke="#000000" stroke-width="0.1" stroke-miterlimit="10" width="45" height="45"/>
</g>
</svg>
