<?xml version="1.0" encoding="utf-8"?>
<!-- Generator: Adobe Illustrator 16.0.0, SVG Export Plug-In . SVG Version: 6.00 Build 0)  -->
<!DOCTYPE svg PUBLIC "-//W3C//DTD SVG 1.1//EN" "http://www.w3.org/Graphics/SVG/1.1/DTD/svg11.dtd">
<svg version="1.1" xmlns="http://www.w3.org/2000/svg" xmlns:xlink="http://www.w3.org/1999/xlink" x="0px" y="0px" width="50px"
	 height="50px" viewBox="0 0 50 50" enable-background="new 0 0 50 50" xml:space="pBk_Reserve">
<g id="圖層_1">
	<g>
		<g>
			<g>
				
					<circle fill-rule="evenodd" clip-rule="evenodd" fill="none" stroke="#000000" stroke-width="2" stroke-linecap="round" stroke-linejoin="round" stroke-miterlimit="10" cx="126.46" cy="-236.887" r="3.193"/>
				
					<path fill="none" stroke="#000000" stroke-width="2" stroke-linecap="round" stroke-linejoin="round" stroke-miterlimit="10" d="
					M131.62-224.672v-4.319c0-1.749-1.231-3.167-2.751-3.167l-2.452,2.431l-2.363-2.431c-1.519,0-2.751,1.417-2.751,3.167v4.319
					H131.62z"/>
			</g>
			<g>
				
					<circle fill-rule="evenodd" clip-rule="evenodd" fill="none" stroke="#000000" stroke-width="2" stroke-linecap="round" stroke-linejoin="round" stroke-miterlimit="10" cx="141.927" cy="-236.887" r="3.193"/>
				
					<path fill="none" stroke="#000000" stroke-width="2" stroke-linecap="round" stroke-linejoin="round" stroke-miterlimit="10" d="
					M147.085-224.672v-4.319c0-1.749-1.231-3.167-2.751-3.167l-2.452,2.431l-2.363-2.431c-1.519,0-2.751,1.417-2.751,3.167v4.319
					H147.085z"/>
			</g>
			<g>
				
					<circle fill-rule="evenodd" clip-rule="evenodd" fill="none" stroke="#000000" stroke-width="2" stroke-linecap="round" stroke-linejoin="round" stroke-miterlimit="10" cx="157.392" cy="-236.886" r="3.192"/>
				
					<path fill="none" stroke="#000000" stroke-width="2" stroke-linecap="round" stroke-linejoin="round" stroke-miterlimit="10" d="
					M162.551-224.672v-4.318c0-1.749-1.231-3.167-2.751-3.167l-2.452,2.431l-2.363-2.431c-1.519,0-2.751,1.418-2.751,3.167v4.318
					H162.551z"/>
			</g>
			<g>
				
					<path fill="none" stroke="#000000" stroke-width="2" stroke-linecap="round" stroke-linejoin="round" stroke-miterlimit="10" d="
					M129.452-243.067h-6.15c-1.104,0-2-0.668-2-1.493v-17.482c0-0.825,0.896-1.493,2-1.493h37.25c1.104,0,2,0.668,2,1.493v17.482
					c0,0.825-0.896,1.493-2,1.493h-18.224"/>
				<g>
					
						<path fill-rule="evenodd" clip-rule="evenodd" fill="none" stroke="#000000" stroke-width="2" stroke-linecap="round" stroke-linejoin="round" stroke-miterlimit="10" d="
						M139.776-255.995c0,2.111-1.712,3.824-3.822,3.824c-2.112,0-3.822-1.713-3.822-3.824c0-2.109,1.71-3.821,3.822-3.821
						C138.064-259.816,139.776-258.104,139.776-255.995z"/>
					
						<path fill="none" stroke="#000000" stroke-width="2" stroke-linecap="round" stroke-linejoin="round" stroke-miterlimit="10" d="
						M142.131-243.09v-3.732c0-2.094-1.474-3.792-3.294-3.792l-2.936,2.911l-2.829-2.911c-1.819,0-3.294,1.698-3.294,3.792v3.732"/>
				</g>
			</g>
		</g>
		<rect x="119.426" y="-266.804" fill-rule="evenodd" clip-rule="evenodd" fill="none" width="45" height="45"/>
	</g>
	<g>
		<g>
			<g>
				
					<circle fill-rule="evenodd" clip-rule="evenodd" fill="none" stroke="#000000" stroke-width="2" stroke-linecap="round" stroke-linejoin="round" stroke-miterlimit="10" cx="126.46" cy="-236.887" r="3.193"/>
				
					<path fill="none" stroke="#000000" stroke-width="2" stroke-linecap="round" stroke-linejoin="round" stroke-miterlimit="10" d="
					M131.62-224.672v-4.319c0-1.749-1.231-3.167-2.751-3.167l-2.452,2.431l-2.363-2.431c-1.519,0-2.751,1.417-2.751,3.167v4.319
					H131.62z"/>
			</g>
			<g>
				
					<circle fill-rule="evenodd" clip-rule="evenodd" fill="none" stroke="#000000" stroke-width="2" stroke-linecap="round" stroke-linejoin="round" stroke-miterlimit="10" cx="141.927" cy="-236.887" r="3.193"/>
				
					<path fill="none" stroke="#000000" stroke-width="2" stroke-linecap="round" stroke-linejoin="round" stroke-miterlimit="10" d="
					M147.085-224.672v-4.319c0-1.749-1.231-3.167-2.751-3.167l-2.452,2.431l-2.363-2.431c-1.519,0-2.751,1.417-2.751,3.167v4.319
					H147.085z"/>
			</g>
			<g>
				
					<circle fill-rule="evenodd" clip-rule="evenodd" fill="none" stroke="#000000" stroke-width="2" stroke-linecap="round" stroke-linejoin="round" stroke-miterlimit="10" cx="157.392" cy="-236.886" r="3.192"/>
				
					<path fill="none" stroke="#000000" stroke-width="2" stroke-linecap="round" stroke-linejoin="round" stroke-miterlimit="10" d="
					M162.551-224.672v-4.318c0-1.749-1.231-3.167-2.751-3.167l-2.452,2.431l-2.363-2.431c-1.519,0-2.751,1.418-2.751,3.167v4.318
					H162.551z"/>
			</g>
			<g>
				
					<path fill="none" stroke="#000000" stroke-width="2" stroke-linecap="round" stroke-linejoin="round" stroke-miterlimit="10" d="
					M129.452-243.067h-6.15c-1.104,0-2-0.668-2-1.493v-17.482c0-0.825,0.896-1.493,2-1.493h37.25c1.104,0,2,0.668,2,1.493v17.482
					c0,0.825-0.896,1.493-2,1.493h-18.224"/>
				<g>
					
						<path fill-rule="evenodd" clip-rule="evenodd" fill="none" stroke="#000000" stroke-width="2" stroke-linecap="round" stroke-linejoin="round" stroke-miterlimit="10" d="
						M139.776-255.995c0,2.111-1.712,3.824-3.822,3.824c-2.112,0-3.822-1.713-3.822-3.824c0-2.109,1.71-3.821,3.822-3.821
						C138.064-259.816,139.776-258.104,139.776-255.995z"/>
					
						<path fill="none" stroke="#000000" stroke-width="2" stroke-linecap="round" stroke-linejoin="round" stroke-miterlimit="10" d="
						M142.131-243.09v-3.732c0-2.094-1.474-3.792-3.294-3.792l-2.936,2.911l-2.829-2.911c-1.819,0-3.294,1.698-3.294,3.792v3.732"/>
				</g>
			</g>
		</g>
		<rect x="119.426" y="-266.804" fill-rule="evenodd" clip-rule="evenodd" fill="none" width="45" height="45"/>
	</g>
	<g>
		
			<path fill="none" stroke="#231815" stroke-width="1.5" stroke-linecap="round" stroke-linejoin="round" stroke-miterlimit="10" d="
			M4185.318,4272.494h-31.637c-1.758,0-3.188,1.43-3.188,3.186v31.625c0,1.68,1.309,3.061,2.959,3.177v0.881
			c0,0.628,0.51,1.138,1.139,1.138h3.225c0.628,0,1.138-0.51,1.138-1.138v-0.872h20.751v0.872c0,0.628,0.509,1.138,1.138,1.138
			h3.224c0.629,0,1.139-0.51,1.139-1.138v-0.872h0.113c1.758,0,3.188-1.429,3.188-3.186v-31.625
			C4188.505,4273.924,4187.076,4272.494,4185.318,4272.494z"/>
		
			<path fill="none" stroke="#231815" stroke-width="1.5" stroke-linecap="round" stroke-linejoin="round" stroke-miterlimit="10" d="
			M4185.205,4304.177c0,1.662-1.354,3.014-3.016,3.014h-25.721c-1.662,0-3.016-1.352-3.016-3.014v-25.597
			c0-1.662,1.354-3.014,3.016-3.014h25.721c1.662,0,3.016,1.352,3.016,3.014V4304.177z"/>
		
			<path fill="none" stroke="#231815" stroke-width="1.5" stroke-linecap="round" stroke-linejoin="round" stroke-miterlimit="10" d="
			M4162.909,4296.327c-2.698,0-4.894-2.194-4.894-4.892s2.195-4.892,4.894-4.892s4.894,2.194,4.894,4.892
			S4165.607,4296.327,4162.909,4296.327z"/>
		<path fill="#231815" d="M4171.931,4296.347h-0.554c-0.628,0-1.138-0.511-1.138-1.138c0-0.629,0.51-1.139,1.138-1.139h0.554
			c0.629,0,1.138,0.51,1.138,1.139C4173.068,4295.836,4172.56,4296.347,4171.931,4296.347z"/>
		<path fill="#231815" d="M4171.931,4292.63h-0.554c-0.628,0-1.138-0.509-1.138-1.138c0-0.628,0.51-1.137,1.138-1.137h0.554
			c0.629,0,1.138,0.509,1.138,1.137C4173.068,4292.121,4172.56,4292.63,4171.931,4292.63z"/>
		<path fill="#231815" d="M4171.931,4288.914h-0.554c-0.628,0-1.138-0.51-1.138-1.138s0.51-1.138,1.138-1.138h0.554
			c0.629,0,1.138,0.51,1.138,1.138S4172.56,4288.914,4171.931,4288.914z"/>
		<path fill="#231815" d="M4175.8,4296.347h-0.553c-0.628,0-1.138-0.511-1.138-1.138c0-0.629,0.51-1.139,1.138-1.139h0.553
			c0.628,0,1.139,0.51,1.139,1.139C4176.938,4295.836,4176.428,4296.347,4175.8,4296.347z"/>
		<path fill="#231815" d="M4175.8,4292.63h-0.553c-0.628,0-1.138-0.509-1.138-1.138c0-0.628,0.51-1.137,1.138-1.137h0.553
			c0.628,0,1.139,0.509,1.139,1.137C4176.938,4292.121,4176.428,4292.63,4175.8,4292.63z"/>
		<path fill="#231815" d="M4175.8,4288.914h-0.553c-0.628,0-1.138-0.51-1.138-1.138s0.51-1.138,1.138-1.138h0.553
			c0.628,0,1.139,0.51,1.139,1.138S4176.428,4288.914,4175.8,4288.914z"/>
		<path fill="#231815" d="M4179.668,4296.347h-0.553c-0.627,0-1.137-0.511-1.137-1.138c0-0.629,0.51-1.139,1.137-1.139h0.553
			c0.63,0,1.139,0.51,1.139,1.139C4180.807,4295.836,4180.298,4296.347,4179.668,4296.347z"/>
		<path fill="#231815" d="M4179.668,4292.63h-0.553c-0.627,0-1.137-0.509-1.137-1.138c0-0.628,0.51-1.137,1.137-1.137h0.553
			c0.63,0,1.139,0.509,1.139,1.137C4180.807,4292.121,4180.298,4292.63,4179.668,4292.63z"/>
		<path fill="#231815" d="M4179.668,4288.914h-0.553c-0.627,0-1.137-0.51-1.137-1.138s0.51-1.138,1.137-1.138h0.553
			c0.63,0,1.139,0.51,1.139,1.138S4180.298,4288.914,4179.668,4288.914z"/>
		<path fill-rule="evenodd" clip-rule="evenodd" fill="#231815" d="M4161.28,4290.497h2.968c0.465,0,0.842,0.376,0.842,0.841
			c0,0.463-0.377,0.84-0.842,0.84h-2.968c-0.466,0-0.842-0.377-0.842-0.84C4160.438,4290.873,4160.814,4290.497,4161.28,4290.497z"
			/>
	</g>
	<g>
		
			<path fill-rule="evenodd" clip-rule="evenodd" fill="none" stroke="#000000" stroke-width="2" stroke-linecap="round" stroke-linejoin="round" stroke-miterlimit="10" d="
			M31.427,28.374c-0.8,1.401-2.638,5.136-3.072,6.757c-0.17,0.628-0.401,1.236-0.651,1.823c-0.492,1.154-1.224,2.012-2.242,2.51
			c0,0.485,0.009,0.97-0.003,1.454c-0.011,0.53-0.213,0.729-0.703,0.725c-0.462-0.004-0.646-0.205-0.66-0.722
			c-0.004-0.156,0-0.314,0.002-0.472c0-0.155,0-0.311,0-0.448c-3.47,0-6.91,0-10.392,0c0,0.337,0.002,0.564,0,0.79
			c-0.009,0.642-0.184,0.855-0.696,0.853c-0.512-0.002-0.684-0.212-0.691-0.859c-0.008-0.418-0.002-0.836-0.002-1.321
			c-1.873-0.864-2.524-2.953-3.104-5.081c-0.492-1.802-1.281-3.39-2.216-4.877c-0.1-0.155-0.334-0.237-0.508-0.248
			c-1.408-0.079-2.7-1.255-3.017-2.777c-0.382-1.842,0.62-3.682,2.259-4.137c1.622-0.45,3.097,0.359,3.9,2.153
			c0.847,1.887,1.602,3.822,2.076,5.908c0.024,0.097,0.063,0.187,0.079,0.232c4.749-1.86,9.463-1.806,14.178-0.02
			c0.339-1.075,0.688-2.214,1.084-3.309c0.387-1.068,0.783-2.123,1.264-3.134c1.11-2.341,4.029-2.744,5.434-0.669
			C35.123,25.541,33.939,28.281,31.427,28.374z"/>
		
			<path fill-rule="evenodd" clip-rule="evenodd" fill="none" stroke="#000000" stroke-width="2" stroke-linecap="round" stroke-linejoin="round" stroke-miterlimit="10" d="
			M28.358,27.835"/>
		
			<path fill-rule="evenodd" clip-rule="evenodd" fill="none" stroke="#000000" stroke-width="2" stroke-linecap="round" stroke-linejoin="round" stroke-miterlimit="10" d="
			M11.797,30.636c-0.357-1.352-0.705-2.551-1.176-3.763c-0.228-0.582-1.165-2.849-1.553-3.359c-0.432-0.572-0.533-0.7-0.545-1.447
			c-0.017-1.012-0.057-2.319-0.067-3.331c-0.026-2.732,1.126-4.588,3.03-5.794c1.309-0.827,2.753-1.121,4.198-1.335
			c2.65-0.391,5.297-0.337,7.921,0.299c1.331,0.322,2.635,0.75,3.729,1.832c1.371,1.355,2.093,3.063,1.979,5.245
			c-0.06,1.169-0.138,2.337-0.236,3.501c-0.018,0.195-0.002,0.583-0.125,0.718c-0.655,0.712-0.983,1.699-1.371,2.667
			c-0.608,1.519-0.854,2.541-1.444,4.072c-0.046,0.124-0.141,0.535-0.187,0.662C21.647,29.197,17.662,28.37,11.797,30.636z"/>
		<g>
			
				<line fill-rule="evenodd" clip-rule="evenodd" fill="none" stroke="#000000" stroke-width="2" stroke-linecap="round" stroke-linejoin="round" stroke-miterlimit="10" x1="31.74" y1="28.357" x2="46.393" y2="28.357"/>
			
				<line fill-rule="evenodd" clip-rule="evenodd" fill="none" stroke="#000000" stroke-width="2" stroke-linecap="round" stroke-linejoin="round" stroke-miterlimit="10" x1="35.324" y1="40.848" x2="42.809" y2="40.848"/>
			
				<line fill="none" stroke="#000000" stroke-width="2" stroke-linecap="round" stroke-linejoin="round" stroke-miterlimit="10" x1="39.066" y1="28.487" x2="39.066" y2="40.687"/>
		</g>
		<g>
			
				<polyline fill="none" stroke="#000000" stroke-width="2" stroke-linecap="round" stroke-linejoin="round" stroke-miterlimit="10" points="
				35.111,15.634 45.186,15.634 40.142,20.676 35.158,15.692 			"/>
			
				<line fill="none" stroke="#000000" stroke-width="2" stroke-linecap="round" stroke-linejoin="round" stroke-miterlimit="10" x1="37.395" y1="25.234" x2="42.902" y2="25.234"/>
			
				<line fill="none" stroke="#000000" stroke-width="2" stroke-linecap="round" stroke-linejoin="round" stroke-miterlimit="10" x1="40.148" y1="20.294" x2="40.148" y2="25.165"/>
			
				<line fill="none" stroke="#000000" stroke-width="2" stroke-linecap="round" stroke-linejoin="round" stroke-miterlimit="10" x1="43.99" y1="10.999" x2="42.155" y2="15.371"/>
		</g>
		<rect x="2.5" y="2.5" fill-rule="evenodd" clip-rule="evenodd" fill="none" width="45" height="45"/>
	</g>
</g>
<g id="框" display="none">
	
		<rect x="2.5" y="2.5" display="inline" fill-rule="evenodd" clip-rule="evenodd" fill="none" stroke="#000000" stroke-width="0.1" stroke-miterlimit="10" width="45" height="45"/>
</g>
</svg>
