<?xml version="1.0" encoding="utf-8"?>
<!-- Generator: Adobe Illustrator 16.0.0, SVG Export Plug-In . SVG Version: 6.00 Build 0)  -->
<!DOCTYPE svg PUBLIC "-//W3C//DTD SVG 1.1//EN" "http://www.w3.org/Graphics/SVG/1.1/DTD/svg11.dtd">
<svg version="1.1" id="圖層_1" xmlns="http://www.w3.org/2000/svg" xmlns:xlink="http://www.w3.org/1999/xlink" x="0px" y="0px"
	 width="200px" height="200px" viewBox="0 0 200 200" enable-background="new 0 0 200 200" xml:space="pBk_Reserve">
<path fill="#FFFFFF" d="M100,0C44.797,0,0,44.805,0,100c0,55.195,44.797,100,100,100c55.196,0,100-44.805,100-100
	C200,44.805,155.196,0,100,0z"/>
<g>
	<g>
		<path fill="#D7D7D7" d="M100,0C44.796,0,0,44.805,0,100s44.796,100,100,100c55.196,0,100-44.805,100-100S155.196,0,100,0z M100,40
			c19.298,0,35,15.703,35,35c0,19.297-15.702,35-35,35c-19.307,0-35-15.703-35-35C65,55.704,80.693,40,100,40z M100,180
			c-20.302,0-44.306-8.202-61.396-28.799C55.498,137.998,76.807,130,100,130c23.204,0,44.502,7.998,61.406,21.201
			C144.298,171.798,120.294,180,100,180z"/>
	</g>
</g>
</svg>
